<svg width="1024" height="1024" version="1.1" xmlns="http://www.w3.org/2000/svg" desc="Created with imagetracer.js version 1.2.6">
<path fill="white" stroke="white" stroke-width="1" opacity="0.996078431372549" d="M 511.5 296 L 686 400 L 686 629.5 L 682.5 633 L 671.5 638 L 661.5 645 L 630.5 662 L 519.5 731 L 510.5 735 L 444.5 694 L 336 630.5 L 336 402.5 L 338.5 400 L 459.5 329 L 511.5 296 Z M 511 305 L 346 404 L 344 406 Q 346 412 343 414 L 344 422 L 344 424 Q 345 428 343 430 L 343 472 L 344 473 L 344 516 L 343 517 L 343 528 L 344 529 L 343 534 L 343 626 L 344 628 L 510 726 L 514 726 L 520 723 L 600 673 L 674 629 L 679 627 L 679 405 L 678 402 L 676 402 L 653 387 L 515 305 L 511 305 Z "></path>

<path fill="white" stroke="white" stroke-width="1" opacity="0.996078431372549" d="M 487.5 397 L 514.5 397 L 518.5 399 Q 526 397.5 529 400.5 L 528.5 402 L 535.5 402 L 536 403.5 L 538.5 404 Q 542.3 403.3 543 405.5 L 545.5 409 L 549 408.5 Q 548.3 410.8 550.5 410 L 559.5 416 L 562 416 Q 560.8 419 564.5 418 Q 567.3 423.4 570 421.5 Q 569.5 425.5 572.5 426 Q 574.8 425.3 574 427.5 L 576 427.5 L 576.5 431 L 577.5 429 L 579.5 432 L 581 431.5 L 581 434 L 583 434 L 583 437 Q 586 435.8 585 439.5 L 591 449.5 L 595 467.5 Q 593.2 473.8 596 475.5 L 596 507.5 L 595 508.5 L 595 516.5 L 593 522.5 L 593 527.5 L 587 548.5 L 578 566.5 L 565 584 Q 562.3 582.9 563 585.5 L 549.5 597 L 528.5 610 L 492.5 626 L 485.5 627 L 473 613.5 L 521.5 586 L 543 566.5 L 552 550.5 L 554 540 L 537.5 549 L 523.5 554 L 506.5 557 L 487.5 557 L 486.5 556 L 474.5 555 L 458.5 550 Q 442.3 543.7 432 531.5 Q 422.2 520.3 418 503.5 L 417 491.5 L 416 490.5 L 416 466.5 L 417 465.5 L 418 453.5 L 423 439.5 L 437.5 419 L 440 417.5 Q 439.3 415.3 441.5 416 L 458.5 405 L 475.5 399 Q 483.5 400 487.5 397 Z M 502 421 L 501 422 L 490 422 L 481 424 Q 470 427 464 433 L 459 440 L 454 450 L 450 467 L 450 491 L 452 501 L 455 509 L 463 519 Q 475 530 496 533 L 515 533 L 529 529 Q 547 521 562 510 L 562 478 L 561 477 L 560 463 L 556 451 L 548 438 Q 541 429 530 425 L 511 421 L 502 421 Z "></path>
<path fill="rgb(0,0,0)" stroke="rgb(0,0,0)" stroke-width="1" opacity="0" d="M 0 0 L 1024 0 L 1024 1024 L 0 1024 L 0 0 Z M 512 296 L 460 329 L 339 400 L 336 403 L 336 631 L 445 694 L 511 735 L 520 731 L 631 662 L 662 645 L 672 638 L 683 633 L 686 630 L 686 400 L 512 296 Z "></path>
<path fill="rgb(0,0,0)" stroke="rgb(0,0,0)" stroke-width="1" opacity="0" d="M 510.5 305 L 514.5 305 L 652.5 387 L 675.5 402 L 678 402 L 679 404.5 L 679 627 L 673.5 629 L 599.5 673 L 519.5 723 L 513.5 726 L 509.5 726 L 344 628 L 343 625.5 L 343 533.5 L 344 528.5 L 343 527.5 L 343 516.5 L 344 515.5 L 344 472.5 L 343 471.5 L 343 429.5 Q 345.2 428.2 344 423.5 L 344 421.5 L 343 413.5 Q 345.8 411.7 344 405.5 L 345.5 404 L 510.5 305 Z M 513 362 L 511 363 L 511 364 L 515 363 L 513 362 Z M 488 397 Q 484 400 476 399 L 459 405 L 442 416 Q 439 415 440 418 L 438 419 L 423 440 L 418 454 L 417 466 L 416 467 L 416 491 L 417 492 L 418 504 Q 422 520 432 532 Q 442 544 459 550 L 475 555 L 487 556 L 488 557 L 507 557 L 524 554 L 538 549 L 554 540 L 552 551 L 543 567 L 522 586 L 473 614 L 486 627 L 493 626 L 529 610 L 550 597 L 563 586 Q 562 583 565 584 L 578 567 L 587 549 L 593 528 L 593 523 L 595 517 L 595 509 L 596 508 L 596 476 Q 593 474 595 468 L 591 450 L 585 440 Q 586 436 583 437 L 583 434 L 581 434 L 581 431 L 579 434 L 578 434 L 579 432 L 578 429 L 577 431 L 576 428 L 574 428 Q 575 425 573 426 Q 570 425 570 422 Q 567 423 565 418 Q 561 419 562 416 L 560 416 L 551 410 Q 548 411 549 409 L 546 409 L 543 406 Q 542 403 539 404 L 536 404 L 536 402 L 529 402 L 529 401 Q 526 397 519 399 L 515 397 L 488 397 Z "></path>
<path fill="rgb(0,0,0)" stroke="rgb(0,0,0)" stroke-width="1" opacity="0" d="M 501.5 421 L 510.5 421 L 529.5 425 Q 540.9 429.1 548 437.5 L 556 450.5 L 560 462.5 L 561 476.5 L 562 477.5 L 562 510 Q 547.4 521.3 528.5 529 L 514.5 533 L 495.5 533 Q 475.2 529.5 463 519 L 455 508.5 L 452 500.5 L 450 490.5 L 450 466.5 L 454 449.5 L 459 439.5 L 464 433 Q 470.5 427.4 480.5 424 L 489.5 422 L 500.5 422 L 501.5 421 Z "></path></svg>