<svg width="48" height="48" version="1.1" xmlns="http://www.w3.org/2000/svg" desc="Created with imagetracer.js version 1.2.6">
    <path fill="rgb(237,237,237)" stroke="rgb(237,237,237)" stroke-width="1" opacity="1" d="M 41.5 21 L 42.5 23 L 41.5 21 Z "></path>
    <path fill="rgb(237,237,237)" stroke="rgb(237,237,237)" stroke-width="1" opacity="1" d="M 6.5 25 L 3.5 29 L 6.5 25 Z "></path>
    <path fill="rgb(237,237,237)" stroke="rgb(237,237,237)" stroke-width="1" opacity="1" d="M 19.5 25 L 21.5 28 L 19.5 25 Z "></path>
    <path fill="rgb(237,237,237)" stroke="rgb(237,237,237)" stroke-width="1" opacity="1" d="M 19.5 40 L 18.5 42 L 19.5 40 Z "></path>
    <path fill="rgb(237,237,237)" stroke="rgb(237,237,237)" stroke-width="1" opacity="1" d="M 4.5 42 L 5.5 44 L 4.5 42 Z "></path>
    <path fill="rgb(237,237,237)" stroke="rgb(237,237,237)" stroke-width="1" opacity="1" d="M 21.5 42 L 20.5 44 L 21.5 42 Z "></path>
    <path fill="rgb(173,173,173)" stroke="rgb(173,173,173)" stroke-width="1" opacity="1" d="M 26.5 2 L 28.5 5 L 26.5 2 Z "></path>
    <path fill="rgb(173,173,173)" stroke="rgb(173,173,173)" stroke-width="1" opacity="1" d="M 19.5 9 L 21.5 12 L 19.5 9 Z "></path>
    <path fill="rgb(173,173,173)" stroke="rgb(173,173,173)" stroke-width="1" opacity="1" d="M 28.5 9 L 26.5 12 L 28.5 9 Z "></path>
    <path fill="rgb(173,173,173)" stroke="rgb(173,173,173)" stroke-width="1" opacity="1" d="M 6.5 10 L 5.5 12 L 6.5 10 Z "></path>
    <path fill="rgb(173,173,173)" stroke="rgb(173,173,173)" stroke-width="1" opacity="1" d="M 9.5 10 L 10.5 12 L 9.5 10 Z "></path>
    <path fill="rgb(173,173,173)" stroke="rgb(173,173,173)" stroke-width="1" opacity="1" d="M 5.5 14 L 6.5 16 L 5.5 14 Z "></path>
    <path fill="rgb(173,173,173)" stroke="rgb(173,173,173)" stroke-width="1" opacity="1" d="M 10.5 14 L 9.5 16 L 10.5 14 Z "></path>
    <path fill="rgb(173,173,173)" stroke="rgb(173,173,173)" stroke-width="1" opacity="1" d="M 41.5 18 L 40.5 20 L 41.5 18 Z "></path>
    <path fill="rgb(173,173,173)" stroke="rgb(173,173,173)" stroke-width="1" opacity="1" d="M 34.5 19 L 33.5 21 L 34.5 19 Z "></path>
    <path fill="rgb(173,173,173)" stroke="rgb(173,173,173)" stroke-width="1" opacity="1" d="M 43.5 19 Q 46.5 20.5 43.5 22 Q 40.5 20.5 43.5 19 Z "></path>
    <path fill="rgb(173,173,173)" stroke="rgb(173,173,173)" stroke-width="1" opacity="1" d="M 33.5 29 L 34.5 31 L 33.5 29 Z "></path>
    <path fill="rgb(173,173,173)" stroke="rgb(173,173,173)" stroke-width="1" opacity="1" d="M 44.5 29 L 43.5 31 L 44.5 29 Z "></path>
    <path fill="rgb(173,173,173)" stroke="rgb(173,173,173)" stroke-width="1" opacity="1" d="M 18.5 39 L 17.5 41 L 18.5 39 Z "></path>
    <path fill="rgb(237,100,180)" stroke="rgb(237,100,180)" stroke-width="1" opacity="1" d="M 23.5 2 L 28 4.5 L 29 7.5 L 26.5 11 L 23.5 12 L 20 9.5 L 19 6.5 L 20 6.5 Q 19.3 8.8 21.5 8 L 25 3 L 23.5 2 Z "></path>
    <path fill="rgb(237,100,180)" stroke="rgb(237,100,180)" stroke-width="1" opacity="1" d="M 7.5 10 L 11 12.5 L 8.5 16 L 5 13.5 L 7.5 10 Z "></path>
    <path fill="rgb(237,100,180)" stroke="rgb(237,100,180)" stroke-width="1" opacity="1" d="M 38.5 18 L 40 18.5 L 38 19 L 39.5 22 L 42 23.5 L 43.5 26 Q 45.8 26.8 45 24.5 L 46 24.5 L 41.5 31 L 38.5 32 L 33 27.5 L 32 24.5 L 36.5 19 L 38.5 18 Z "></path>
    <path fill="rgb(237,100,180)" stroke="rgb(237,100,180)" stroke-width="1" opacity="1" d="M 42.5 19 L 44.5 22 L 42.5 19 Z "></path>
<path fill="rgb(237,100,180)" stroke="rgb(237,100,180)" stroke-width="1" opacity="1" d="M 9.5 25 Q 19.6 23.4 22 29.5 L 24 35.5 L 21 43 L 17.5 45 L 9.5 45 L 4 40.5 L 2 34.5 Q 3.3 28.8 7.5 26 L 9.5 25 Z M 21 35 L 19 38 L 12 43 Q 11 46 17 44 L 22 38 Q 23 34 21 35 Z "></path>
</svg>