<svg xmlns="http://www.w3.org/2000/svg" viewBox="0 0 512 512" role="img" aria-labelledby="title desc" style="color:#1C1917">
  <title id="title">9takes Across Time mark</title>
  <desc id="desc">An ancient philosopher and a modern hooded participant face one another across a shared hearth, completing one meeting circle.</desc>
  <path fill="currentColor" fill-rule="evenodd" shape-rendering="geometricPrecision" d="M231 138C237.0 137.2 247.5 137.4 253 139C258.5 140.6 272.6 149.4 277 151C281.4 152.6 287.6 151.2 290 152C292.4 152.8 295.8 156.1 297 158C298.2 159.9 300.0 165.0 300 168C300.0 171.0 298.7 180.4 297 183C295.3 185.6 286.0 190.0 286 190C286.0 190.0 289.4 209.8 289 214C288.6 218.2 282.6 219.8 283 225C283.4 230.2 292.0 257.0 292 257C292.0 257.0 280.0 259.0 280 259C280.0 259.0 283.0 271.0 283 271C283.0 271.0 277.0 274.0 277 274C277.0 274.0 279.2 277.4 279 279C278.8 280.6 274.6 284.5 275 287C275.4 289.5 281.2 297.2 282 300C282.8 302.8 283.0 306.6 282 310C281.0 313.4 274.0 328.0 274 328C274.0 328.0 262.7 323.1 261 320C259.3 316.9 260.7 305.4 260 302C259.3 298.6 254.9 295.0 255 292C255.1 289.0 258.6 279.6 261 277C263.4 274.4 275.0 270.0 275 270C275.0 270.0 274.0 264.0 274 264C274.0 264.0 264.4 265.0 262 266C259.6 267.0 255.7 269.8 254 272C252.3 274.2 248.2 279.8 248 284C247.8 288.2 252.0 307.0 252 307C252.0 307.0 244.2 307.2 242 306C239.8 304.8 235.2 300.1 234 297C232.8 293.9 232.0 280.0 232 280C232.0 280.0 226.0 290.0 226 290C226.0 290.0 220.0 286.3 219 284C218.0 281.7 217.5 275.2 218 271C218.5 266.8 223.1 253.1 223 249C222.9 244.9 217.0 237.0 217 237C217.0 237.0 217.1 248.9 216 253C214.9 257.1 209.0 267.3 208 271C207.0 274.7 206.9 280.9 208 284C209.1 287.1 214.8 295.1 217 297C219.2 298.9 224.3 298.3 226 300C227.7 301.7 229.2 309.1 231 311C232.8 312.9 241.0 316.0 241 316C241.0 316.0 235.4 329.9 237 336C238.6 342.1 251.7 358.8 254 367C256.3 375.2 254.8 397.3 256 404C257.2 410.7 261.0 418.7 264 423C267.0 427.3 276.1 436.4 281 440C285.9 443.6 305.0 453.0 305 453C305.0 453.0 289.4 454.0 283 453C276.6 452.0 260.9 449.0 252 445C243.1 441.0 218.8 428.2 209 420C199.2 411.8 177.4 388.5 170 377C162.6 365.5 149.9 333.7 147 324C144.1 314.3 144.6 301.4 146 296C147.4 290.6 159.0 279.0 159 279C159.0 279.0 150.1 272.2 149 270C147.9 267.8 149.0 262.8 150 261C151.0 259.2 157.0 255.0 157 255C157.0 255.0 150.0 247.0 149 245C148.0 243.0 147.7 240.3 149 238C150.3 235.7 160.0 226.0 160 226C160.0 226.0 153.7 218.9 153 216C152.3 213.1 152.2 205.1 154 202C155.8 198.9 166.1 193.4 168 190C169.9 186.6 168.4 177.5 170 174C171.6 170.5 177.0 164.4 181 161C185.0 157.6 197.0 148.8 203 146C209.0 143.2 225.0 138.8 231 138ZM374 144C383.2 142.2 397.0 144.0 403 145C409.0 146.0 419.3 149.7 424 152C428.7 154.3 438.0 160.4 442 164C446.0 167.6 453.9 175.9 457 182C460.1 188.1 467.0 205.6 468 215C469.0 224.4 463.3 251.6 465 260C466.7 268.4 479.8 278.9 482 285C484.2 291.1 483.8 304.2 483 311C482.2 317.8 477.5 335.0 475 342C472.5 349.0 465.8 362.5 462 369C458.2 375.5 447.8 390.2 443 396C438.2 401.8 427.4 412.4 422 417C416.6 421.6 404.2 430.4 398 434C391.8 437.6 378.3 444.6 370 447C361.7 449.4 334.4 453.4 329 454C323.6 454.6 325.0 452.0 325 452C325.0 452.0 344.2 442.7 349 439C353.8 435.3 357.9 436.4 365 421C372.1 405.6 403.1 327.7 408 311C412.9 294.3 408.5 292.4 406 282C403.5 271.6 391.0 233.1 387 224C383.0 214.9 379.0 211.0 373 206C367.0 201.0 343.0 186.7 337 182C331.0 177.3 323.0 167.0 323 167C323.0 167.0 319.9 162.8 326 160C332.1 157.2 364.8 145.8 374 144ZM315 319C315.0 319.0 319.3 334.3 323 341C326.7 347.7 342.6 367.8 346 375C349.4 382.2 351.4 395.4 351 401C350.6 406.6 346.0 417.9 343 422C340.0 426.1 326.0 435.0 326 435C326.0 435.0 329.6 426.2 330 423C330.4 419.8 331.5 414.5 329 408C326.5 401.5 309.0 369.0 309 369C309.0 369.0 303.1 378.8 303 384C302.9 389.2 308.2 407.4 308 412C307.8 416.6 301.8 419.2 301 422C300.2 424.8 301.0 435.0 301 435C301.0 435.0 289.5 426.8 287 424C284.5 421.2 281.1 416.4 280 412C278.9 407.6 277.4 392.3 278 387C278.6 381.7 281.4 373.9 285 368C288.6 362.1 304.4 343.9 308 338C311.6 332.1 315.0 319.0 315 319ZM334 189C334.0 189.0 361.2 206.7 367 212C372.8 217.3 378.2 222.9 382 233C385.8 243.1 397.7 285.2 399 296C400.3 306.8 393.0 323.0 393 323C393.0 323.0 380.0 293.0 380 293C380.0 293.0 362.8 296.8 359 297C355.2 297.2 348.0 295.0 348 295C348.0 295.0 347.6 280.4 347 278C346.4 275.6 343.0 275.0 343 275C343.0 275.0 345.0 270.0 345 270C345.0 270.0 340.0 268.0 340 268C340.0 268.0 341.0 258.0 341 258C341.0 258.0 328.0 253.0 328 253C328.0 253.0 338.5 229.4 339 224C339.5 218.6 332.6 212.2 332 208C331.4 203.8 334.0 189.0 334 189ZM282 163C282.0 163.0 279.8 169.2 278 171C276.2 172.8 270.8 178.1 267 178C263.2 177.9 246.0 170.0 246 170C246.0 170.0 241.0 183.0 241 183C241.0 183.0 220.0 183.0 220 183C220.0 183.0 228.0 191.2 229 194C230.0 196.8 229.2 203.8 228 206C226.8 208.2 223.0 211.8 219 212C215.0 212.2 198.8 207.6 195 208C191.2 208.4 188.3 213.1 187 215C185.7 216.9 184.0 224.0 184 224C184.0 224.0 191.4 217.2 195 217C198.6 216.8 209.9 221.8 214 222C218.1 222.2 226.1 220.7 229 219C231.9 217.3 236.9 211.0 238 208C239.1 205.0 238.0 194.0 238 194C238.0 194.0 244.3 193.2 246 192C247.7 190.8 252.0 184.0 252 184C252.0 184.0 266.5 187.5 270 187C273.5 186.5 279.3 181.6 281 180C282.7 178.4 283.9 176.0 284 174C284.1 172.0 282.0 163.0 282 163ZM199 227C199.0 227.0 194.6 237.2 192 239C189.4 240.8 179.5 241.0 177 242C174.5 243.0 172.0 244.7 171 247C170.0 249.3 169.0 261.0 169 261C169.0 261.0 176.4 251.4 179 250C181.6 248.6 188.5 249.8 191 249C193.5 248.2 198.7 244.9 200 243C201.3 241.1 202.1 234.9 202 233C201.9 231.1 199.0 227.0 199 227Z"/>
</svg>
