<svg xmlns="http://www.w3.org/2000/svg" viewBox="0 0 1024 1024" role="img" aria-labelledby="title desc" style="color:#111111">
  <title id="title">9takes Nine-Voice Agora</title>
  <desc id="desc">Nine equal inward-facing profile masks arranged around one open circular commons.</desc>
  <defs>
    <path id="voice" d="M 416 187 Q 512 150 608 187 L 596 232 L 576 272 L 560 285 L 552 300 L 548 315 L 560 332 L 544 329 L 548 339 L 536 335 L 532 346 C 510 343 495 334 482 320 L 460 300 L 448 272 L 428 232 Z"/>
  </defs>
  <g fill="currentColor">
    <use href="#voice" transform="rotate(0 512 512)"/>
    <use href="#voice" transform="rotate(40 512 512)"/>
    <use href="#voice" transform="rotate(80 512 512)"/>
    <use href="#voice" transform="rotate(120 512 512)"/>
    <use href="#voice" transform="rotate(160 512 512)"/>
    <use href="#voice" transform="rotate(200 512 512)"/>
    <use href="#voice" transform="rotate(240 512 512)"/>
    <use href="#voice" transform="rotate(280 512 512)"/>
    <use href="#voice" transform="rotate(320 512 512)"/>
  </g>
</svg>
