<?xml version="1.0" encoding="utf-8"?>
<svg width="360" height="270" xmlns="http://www.w3.org/2000/svg">
  <path stroke="#8C8C8C" d="M 40.5 3 C 43.5 2.333 45.333 2.833 46 4.5 L 45 6.5 L 315 7 C 313.533 3 315.033 1.667 319.5 3 L 324.5 7 L 331.5 7 L 337 11.5 L 338 20.5 L 333.5 26 L 326.5 28 C 322.7 27.2 319.867 25.367 318 22.5 L 313 15.5 L 313 10.5 L 313.5 9 L 46 9.5 C 47.467 10.367 47.8 12.367 47 15.5 L 38.5 26 L 32.5 28 C 28.1 27.4 24.933 25.567 23 22.5 L 22 13.5 L 26.5 8 L 35.5 7 L 40.5 3 Z M 42 4 L 38 6 L 38 7 C 41.333 7.667 43.333 7.333 44 6 C 44.667 4 44 3.333 42 4 Z M 316 4 L 318 7 L 323 7 L 316 4 Z M 42 8 L 37 10 L 40 10 C 42 11.333 43 13.667 43 17 L 46 16 L 45 10 L 42 8 Z M 317 8 C 314.333 9.333 313.333 12 314 16 L 317 17 L 318 13 L 323 10 L 317 8 Z M 29 10 L 24 12 C 22.667 13.333 22.333 16.333 23 21 L 30 26 C 36.667 26.667 40.667 25 42 21 L 37 19 C 34.333 18.333 33.333 16.667 34 14 L 34 12 L 33 11 L 28 17 L 29 20 L 34 22 L 31 22 L 27 18 C 27 14 28.333 11.667 31 11 L 29 10 Z M 330 10 L 333 16 C 333 18.667 332 20.667 330 22 L 326 22 L 330 20 C 331.333 20.667 331.667 19 331 15 L 327 11 L 327 13 L 326 17 C 324.667 19 322 20.333 318 21 L 325 26 C 331.667 26.667 335.667 25 337 21 C 337.667 16.333 337.333 13.333 336 12 L 330 10 Z M 35 11 C 34.333 15 35.667 17.667 39 19 C 42.333 20.333 43.333 19 42 15 C 41.333 11.667 39 10.333 35 11 Z M 322 11 C 318.667 12.333 317.333 15 318 19 C 322 19.667 324.333 18.667 325 16 C 326.333 11.333 325.333 9.667 322 11 Z" style="fill: rgb(48, 48, 48);"/>
  <path stroke="#8C8C8C" d="M 13.5 22 C 20.033 21.533 24.2 23.367 26 27.5 L 27 36.5 L 21.5 43 L 11.5 48 L 8.5 46 L 8 223.5 L 9.5 223 L 13.5 222 L 26 231.5 L 27 239.5 L 21.5 247 L 13.5 248 L 8 244.5 C 5.867 242.3 5.2 238.633 6 233.5 C 3.333 232.167 2 229.5 2 225.5 L 5.5 224 L 7 224.5 L 6.5 45 L 3.5 46 C 2.033 45.533 1.533 44.033 2 41.5 L 6 36.5 C 5.067 30.233 6.233 26.067 9.5 24 L 13.5 22 Z M 16 23 L 13 24 L 9 31 L 10 32 L 11 29 L 14 28 C 18.667 27.333 21.333 28.667 22 32 L 22 35 L 20 30 L 18 29 L 13 30 L 11 34 L 17 35 C 19 35 19.667 36.667 19 40 L 19 42 L 21 42 L 26 35 L 24 27 C 22.667 23.667 20 22.333 16 23 Z M 10 35 L 11 40 L 17 43 C 19 43.667 19.333 42.333 18 39 C 16.667 35.667 14 34.333 10 35 Z M 6 38 C 4 39.333 3.333 41.667 4 45 L 6 44 L 6 38 Z M 9 38 L 7 45 L 10 46 C 13.333 46.667 15.667 46.333 17 45 L 13 43 L 9 38 Z M 13 223 L 7 225 L 9 232 L 10 230 L 17 226 L 13 223 Z M 5 225 L 5 232 L 6 232 C 6.667 228 6.333 225.667 5 225 Z M 17 227 L 14 228 C 11.333 229.333 10 231.667 10 235 C 14 235.667 16.667 234.667 18 232 C 19.333 228 19 226.333 17 227 Z M 20 228 L 20 230 L 19 233 C 17.667 235.667 14.667 237 10 237 L 11 239 C 12.333 241 15 241.667 19 241 L 21 236 L 22 236 C 22.667 239.333 21.667 241.333 19 242 L 12 241 L 10 239 L 9 239 L 11 245 L 15 247 C 18.333 247.667 21 247 23 245 L 26 239 L 25 233 L 20 228 Z M 341.5 22 C 346.833 21.333 350.333 22.5 352 25.5 C 354.133 27.7 354.8 31.367 354 36.5 C 356.667 37.833 358 40.5 358 44.5 L 355.5 46 L 353 45 L 353.5 225 L 356.5 224 C 358.033 224.533 358.533 226.033 358 228.5 L 354 233.5 C 354.933 239.767 353.767 243.933 350.5 246 C 348.7 247.867 345.7 248.533 341.5 248 L 335 243.5 C 333 241.5 332.333 238.167 333 233.5 L 337.5 228 L 347.5 222 L 351.5 224 L 352 46.5 L 350.5 47 L 346.5 48 L 334 38.5 L 333 30.5 L 338.5 23 L 341.5 22 Z M 342 23 L 340 24 L 334 32 C 334 37.333 336 40.667 340 42 C 342 42.667 342.333 41.333 341 38 C 342.333 34.667 345.333 33.333 350 34 L 349 32 C 347.667 29.333 345.333 28.333 342 29 L 339 34 L 338 34 C 338 30.667 339.333 28.667 342 28 C 344.667 27.333 346.667 27.667 348 29 C 349.333 28.333 349.667 29 349 31 L 351 32 L 349 26 C 347.667 23.333 345.333 22.333 342 23 Z M 346 35 C 342.667 36.333 341.333 39 342 43 C 346 43 348.667 41.667 350 39 C 351.333 35 350 33.667 346 35 Z M 352 38 L 350 41 L 343 45 L 348 47 L 353 45 L 352 38 Z M 355 38 L 354 44 L 356 45 C 356.667 41.667 356.333 39.333 355 38 Z M 348 223 L 343 226 L 349 228 L 352 232 L 353 225 L 348 223 Z M 356 225 L 354 227 L 355 232 L 356 230 L 356 225 Z M 342 227 L 342 232 C 343.333 234.667 346 235.667 350 235 L 349 231 C 347.667 228.333 345.333 227 342 227 Z M 340 228 L 334 236 C 334 240 335 243 337 245 L 342 247 L 348 246 L 351 241 L 351 238 L 350 240 L 347 242 C 341.667 242.667 338.667 241.667 338 239 L 339 235 L 342 241 L 348 240 L 350 237 L 344 235 C 342 235 341 233.667 341 231 L 341 229 L 340 228 Z M 32.5 242 C 37.367 242.2 40.533 244.033 42 247.5 L 47 254.5 L 47 259.5 L 46.5 261 L 314 260.5 C 312.533 259.7 312.2 257.7 313 254.5 L 321.5 244 L 327.5 242 C 331.9 242.6 335.067 244.433 337 247.5 L 338 256.5 L 332.5 263 L 324.5 263 C 323.433 266.267 320.433 267.6 315.5 267 C 313.7 266.2 313.533 265.367 315 264.5 L 316 262.5 L 44.5 262 L 45 263.5 L 46 265.5 C 45.333 267.167 43.5 267.667 40.5 267 L 35.5 263 L 28.5 263 L 23 258.5 L 22 249.5 L 26.5 244 L 32.5 242 Z M 30 244 L 23 250 C 22.333 254 22.667 256.667 24 258 L 28 260 L 31 260 L 27 255 C 27 251.667 28.333 249.333 31 248 L 34 249 L 28 253 L 29 256 L 34 259 L 33 258 L 34 254 C 35.333 251.333 38 250 42 250 C 40.667 245.333 36.667 243.333 30 244 Z M 325 244 L 318 250 L 324 251 C 326 251.667 326.667 253.667 326 257 L 327 259 L 330 258 L 332 254 L 331 250 L 326 249 L 330 248 L 333 253 L 331 258 C 331.667 259.333 331.333 259.667 330 259 L 330 260 L 333 260 L 336 258 L 337 256 L 337 250 L 335 246 C 333 244 329.667 243.333 325 244 Z M 39 251 C 35.667 252.333 34.333 255 35 259 C 39 259.667 41.333 258.667 42 256 C 43.333 251.333 42.333 249.667 39 251 Z M 318 251 C 317.333 255 318.667 257.667 322 259 C 325.333 260.333 326.333 259 325 255 C 324.333 251.667 322 250.333 318 251 Z M 43 253 L 43 257 L 37 261 L 44 262 C 46 260.667 46.667 258.333 46 255 L 43 253 Z M 316 253 L 314 255 C 313.333 258.333 314.333 260.667 317 262 L 323 261 L 320 259 L 317 256 C 317.667 253.333 317.333 252.333 316 253 Z M 39 263 L 42 266 C 44 266.667 44.667 266 44 264 L 39 263 Z M 318 263 L 316 266 L 323 264 L 318 263 Z" style="fill: rgb(48, 48, 48);"/>
  <text style="fill: rgb(48, 48, 48); font-family: 'Noto Serif'; font-size: 35.1823px; white-space: pre; transform-box: fill-box; transform-origin: 9.83915px 24.1289px;" transform="matrix(-0.383675, -0.457245, 0.457247, -0.383674, 5.857401, 267.065121)">9</text>
  <text style="fill: rgb(48, 48, 48); font-family: 'Noto Serif'; font-size: 35.1823px; white-space: pre; transform-origin: 9.839px -13.536px;" transform="matrix(0.422066, 0.422065, -0.422067, 0.422065, 334.030543, 30.372695)">9</text>
  <text style="fill: rgb(48, 48, 48); font-family: 'Noto Serif'; font-size: 35.1823px; white-space: pre; transform-origin: 9.839px -13.536px;" transform="matrix(0.422066, -0.422065, 0.422066, 0.422066, 6.328491, 30.372848)">9</text>
  <text style="fill: rgb(48, 48, 48); font-family: 'Noto Serif'; font-size: 35.1823px; white-space: pre; transform-origin: 9.839px -13.536px;" transform="matrix(-0.383675, 0.457245, -0.457246, -0.383674, 334.501765, 267.065456)">9</text>
</svg>