<svg width="360" height="270" xmlns="http://www.w3.org/2000/svg">
<path fill="#FCFCFC" stroke="#FCFCFC" d="M2.5 0h2L6 .5l-2 1L7 2l.5-2L9 3.5 7.5 5Q5.8 1.3 4 4.5L3.5 6 3 4 0 2.5.5 1 1 3q2.7 1.1 2-1.5L2.5 0Zm13 0 2.5.5-.5 1.5 3-2v3h-2l-1.5.5 4 2-2 1 2 1L18.5 9V7l-5-1-3 1-1-2 3 1L14 2.5 15.5 0Z"/>
<path fill="#FCFCFC" stroke="#FCFCFC" d="M35.5 0h2q3 2.8 8.5 2l.5-2L48 4h7.5l1 1h15q1.8-2.7 8-1l1 1h232l-1-2L80 2.5 313 2l.5-2 1 2 3.5-2 .5 2 4-2q1.5 3.5 3 1l2-1 1 2-3.5.5 4 1-4 .5q-1.1 2.7 1.5 2h4.5q-1-3 2-2l1.5 4 1.5-1.5-1.5-2.5 1.5-.5-2-1 1.5-.5 3.5.5.5-2.5.5 2.5v2l.5 1.5 3-1 3.5-.5-.5-1.5 1.5.5.5-1.5q3 1.5 0 3l-1.5.5 2 1-1.5.5-4-1-2.5.5 1 2-.5 1.5 2.5-.5-.5-1.5 1.5.5.5-1.5 2.5 3.5-1 2 4.5 2.5 1.5-.5-3 1.5q-1.1 2.7 1.5 2l1.5.5.5-1.5 1.5.5-1-3.5 2-.5-1-2q1.5-3 3 0l-2 1 .5 2.5 2-1 1 2h-2q-2.2-.7-1.5 1.5l-1.5 3.5-4.5.5q1.3 2.8 2.5.5l4-1 1 1 2.5-1.5-.5 2.5-1-1-3.5 3.5.5 1.5 1.5-.5-2 4 3-2 .5-1.5.5 1.5-1 2 2 3.5-2.5-1-1.5 3.5 1.5-.5 2.5 1.5-1 3 1 3-1 2 .5 1.5-1-1-2.5 1.5 2-3 1-2q-4-2 0-4 .8-2.2-1.5-1.5l-2.5 1 1 3.5-2-1 1-3-1-3v-4l-1-2h2l-1.5-2.5-1.5.5.5-1.5q-2.2.8-1.5-1.5h-2l.5-1.5-2 1 1.5-2.5q.8-2.2-1.5-1.5l-2.5 1.5.5 1.5-3.5-1.5 3-.5.5-3 1 2 2.5-1-.5-2-1.5.5v-2q.8-2.2-1.5-1.5v-2l-3.5.5 2 1-1.5.5-3-4-.5 1.5 2.5 3.5 1.5.5-1.5.5-2-1 .5 1.5-1 2 2 5.5 4 .5-3.5.5-1.5-3-2 .5.5 1.5q-1.5-3.5-3-1l-3.5 1-.5 2q-1.5-2.5-3 1l-3-1-1.5.5q3.8-1.7.5-3.5l-2 3-4-4-1.5 1.5 3 2q.8 2.3-1.5 1.5l-2-3h-2l-2 1-.5-6.5 2-2 1-2-1-2 2-3-.5-1.5 1 3q2.3.8 1.5-1.5h1l-1.5 2.5q-3.3-1.1-2.5 1.5 1.8-1.6 3.5 1.5l1-1q2.3.8 1.5-1.5h1l.5 1.5 1.5-.5-.5 2.5-3-1-1.5.5q1.8 4.3 3.5 1.5l1.5.5-2 .5 1.5 3 1-2 2 1-.5-1.5 1-2-.5-1.5 1.5.5q1.1-3.3-1.5-2.5v-1l2.5 1.5 2 3-1 3 1.5 1.5 1.5-.5-.5-1.5 1.5-.5-1-1 1.5-2.5-2 1 1-4 2.5 1.5-.5 1.5 1.5.5-2 1 2.5 5.5q2.8-1.3.5-2.5l1-7h-1l-.5 1.5-4-5-10-2-6.5 1-1-2.5 2.5-.5v2q5.9 1.7 4.5-2l-3-.5.5-1.5-3.5 1-.5-2-.5 2-2 .5 1 2h-2l-.5 1.5-1-1h-264L46 4.5l1-2-1.5.5-6-1v2Q36.2 2.9 37 5.5l.5 1.5h-2q-5.5 1.5-7-1L28 8l-5 3.5-.5 1.5-1.5-.5 1 2v2l-1 3 2 1 .5-1.5 1 2 2-3 1.5.5-2 .5q-1.5 3.7 1.5 3v-2l2.5-1.5q-3.8-1.7-.5-3.5l1.5-.5-.5-1.5q2.3-.7 1.5 1.5h1l.5-1.5.5 1.5-1 3 1.5 1.5h2q2.3.8 1.5-1.5l-.5-1.5 1 1 3.5-3.5 1-2-3-1L41.5 8l1.5.5-.5 1.5 2-1 1.5 3.5v2l2 3-4 1.5 2 3.5-3 1-2.5 3.5-1.5.5 1 2h-1l-2-3 3-1 1.5-2.5 1.5-.5-1.5-2.5 1.5.5 3-4-1.5-.5-1.5.5-.5-2.5-2 3-1.5.5 3 1-4 1 2 3q-1.7 4.2-3.5 1.5l-1.5.5.5 1.5-2-1-2 1-2.5-.5.5-1.5-2-1-1.5.5q.8-2.2-1.5-1.5l-1.5-.5-.5 1.5-1-2-.5 2-6 1.5 1.5 1.5 3-1 2 1 2.5-.5.5-1.5 2 3q1.3-2.2 2.5.5l2 3-1.5-.5q-4.8 1.7-3.5-2.5l-2-1 1 3-1 3h1l.5-1.5.5 3.5q-3.1 1.8-1.5 3.5L19 40l2-3.5-3-.5-.5-3-.5 2-5 1.5 1 2.5 4-.5-3-1 2.5-.5 1.5 1.5-1.5 2.5q2.6-.7 1.5 2l-3.5-2q-1.2 2.3-2.5-.5l.5-1.5-2.5-1.5.5-2.5h2q3.3 1.1 2.5-1.5L13.5 31l-1 3-2-3-1.5.5 2-3-.5-1.5 1.5-.5q-2.2-1.2.5-2.5 1.5 2.5 3-1 3.8.8 4.5-1.5l-1.5-.5h-2l-2 1-2-1v2l-2-1v2L9 23.5q.8 2.3-1.5 1.5v2q-3 .7-1.5-3l2-.5L3.5 20 5 24.5l-3 3-1 3q3.8 1.8.5 3.5-2.3.8-1.5-1.5v-2l1-3-1-2L1.5 22l1.5-.5-3-2L1.5 16v4q2.3.8 1.5-1.5v-2Q3.8 13.9.5 15v-1L4 12.5l-2-1 2-1 1 2q-3.7 1.7-.5 3.5l1-2 .5 1.5-1 2 2.5.5q3.3 1.1 2.5-1.5l-3-1L9.5 12l3.5 1-1-3.5 1.5.5 1.5-.5-1-2h1l.5 1.5 1.5-.5-.5 1.5 2.5 1.5.5 1.5 2-4 1 2L24 9.5 22.5 7q1.5 2.5 3-1l2.5-.5L22 4l.5-2q1.5 2.5 3-1l8 2 2 2 3-4-2 1h-2L32 1.5 35.5 0ZM322 1l2 3h1l-3-3ZM26 2l-1 2 2-1 3 2h4l-8-3Zm313 5-2 2h2V7ZM16 10q-3 1-1 3l-3 2 2 4v-1h1l-1 2 1 1 2-1h2l2-1-1-3 1-2-3 1v-1l-2-1v-3Zm29 1-2 3 2-1v-2ZM9 13v2l2-1-2-1Zm309 1q0 4-2 3l1 3-1 2 3-2 2 2 1-2-4-1 3-1-1-1-2-3Zm10 1v2q-2 1 1 2l1-3-2-1ZM7 18q-3 2 0 3 3-1 0-3Zm24 1q-3 2 0 3l6-1-2-1h-2l-2-1Zm299 0-6 2 6 1q3-1 0-3ZM9 20l-2 2h3l-1-2Zm325 0-2 2h2v-2ZM2 23l1 2h1l-2-2Zm11 4v2h-2l1 2 2-1 3-1 2 2 1-1-1-2-6-1Zm10 0v3q3-1 0-3Zm-2 3-2 3 2-1 1 4q2-1 1-4l-2-2Zm335 1v2l2-1-2-1ZM23 36l-2 2h2v-2Z"/>
<path fill="#FCFCFC" stroke="#FCFCFC" d="m342.5 0 3.5 1.5-3 1 2 1-1.5.5-2.5-1.5 2-1-.5-1.5Zm10 0 2.5.5-1.5 2.5-1.5-.5 1 2-2.5 1.5.5-1.5 1.5-4.5Zm7 1 .5 1.5-3 1.5-.5 2-1.5-4 4 1 .5-2Zm-348 1 .5 2.5-2-1L11.5 2Zm45 0 15.5.5-15.5.5V2Zm-15 2q3.3-1.1 2.5 1.5-.7 2.3-4.5 1.5V6l2.5-.5-.5-1.5Zm4 2-1 2 1-2ZM.5 7 1 9.5H0L.5 7Zm2 0 2.5.5L2 9l.5-2ZM355 7q3.8-1 5 1.5l-.5 1.5-1-2h-2l-2.5 2.5-.5 2.5-.5-2.5 2-3.5Zm-41.5 2-.5 1.5q.5 4.5-.5 4.5h-16v-1h15l.5-3-264 .5 3 1-3 1 6 1-7 .5q-1-3.8 1.5-5h264l1-1ZM28 10l3 .5-4 6.5-3.5 1v-1q2.6.7 1.5-2l-2-.5 2-1-.5-1.5 2-1-.5 1.5.5 2.5 1.5-5Zm301.5 0q3.8-1.2 2.5 2.5l-2.5-2.5Zm-291 1 1.5 2.5-5 2q-.7-2.2 1.5-1.5v-1l-1.5-.5 1.5-.5 1.5.5.5-1.5Z"/>
<path fill="#FCFCFC" stroke="#FCFCFC" d="m56.5 12 7.5.5-7.5.5v-1Zm40 0 7.5.5-7.5.5v-1Zm48 0 15.5.5-15.5.5v-1Zm24 0 7.5.5-7.5.5v-1Zm56 0 7.5.5-7.5.5v-1Zm48 0 7.5.5-7.5.5v-1Zm16 0 7.5.5-7.5.5v-1Zm-232 2 39.5.5-39.5.5v-1Zm48 0 47.5.5-47.5.5v-1Zm56 0 111.5.5-111.5.5v-1Zm120 0 7.5.5-7.5.5v-1Zm77 3q2.3-.7 1.5 1.5l-1.5-1.5Zm-311 3 1 2-1-2Zm290 4-1.5 2.5.5 1.5 3-2 2 2q1.5-3.5 3-1l1.5-.5-.5-1.5 3-1 2.5 3.5-2.5 1.5q-1.5-3.5-3-1l-2-1q-3 1.5 0 3l1.5-.5-1 2 2 1 1-2-.5-1.5 3 2 2.5-1.5-.5 2.5q-1.2-2.2-2.5.5.8 2.3-1.5 1.5l-1.5-.5q-.8 2.6 2.5 1.5l2.5.5v2l.5 1.5 1.5-.5-1 5 3.5 1.5v-2q2.8 1.3.5 2.5l-1 3v15l1 1v47l-1 1v23l1 1v15l-1 1v15l1 1v15q-2.7 1.8-1 8l1 1v15q-2.7 1.7-1 8l1 2-1 2 1 2.5q3-1 2 2l-4 1.5-2 4 1 2-2-1-1.5-3.5-2 3 3.5 2.5q.8 2.3-1.5 1.5l-1.5.5.5-1.5-2-1-.5 1.5v2l.5 1.5 2-1 2.5.5-2.5 3.5-2 1-2-3-3.5 5.5 2.5 1.5 1.5-.5-.5 1.5 1.5.5-4 .5-1 4.5v2l.5 2.5 2.5-1 1 2.5h-2l1 2q-2-1.7-4 2l1 2.5-3-.5 2-1-2-.5-.5-2-1 3q-3.5-2 1-4l1.5-.5-.5-1.5q2.3.8 1.5-1.5l-1-4q2.3-1.2-.5-2.5l-2 1-3-1v1q2.6-.8 1.5 2.5h1l.5-1.5 1.5 2.5-.5 2.5q-1.2-2.2-2.5.5l2 1-3 .5q1.1 2.7-1.5 2v-3l1.5-.5q-2.5-1.5 1-3l-2-2-.5-1.5-1.5 2.5 2 1-2 1v2q.8 2.3-1.5 1.5l-2 1v-1q2.3.8 1.5-1.5h-2l1-3-.5-1.5 2.5-.5-2.5-1.5-2.5 1.5-.5-1.5-2 3 1.5.5-1 3.5 2-.5q-2.2-1.3.5-2.5v5l-2-1-1 2 1.5.5-1.5.5-2.5-1-.5 2q-1.7-2.7-3.5 1.5l-.5 1.5-1-2-.5 2.5 1.5 2.5q-2.2.8-1.5-1.5l-1.5-1.5-23.5-.5 24-1-264-.5-1 5-2-.5 2-4h-1l-.5 1.5-2.5-3.5 2-1-.5 1.5 271.5-.5-.5-1.5q1.3 2.3 2.5-.5l-2.5-1.5-1.5.5 1-3-3-2 2-3h-2l1-5 1-2-2-.5.5-2h4l1.5.5-1.5.5q-1.2-2.2-2.5.5l2.5 1.5 1.5-.5-.5 1.5 3.5-1.5-2-1 .5-2.5 6.5 2.5-9 4 1 2.5q3 1 2-2h2.5l1.5-3 4.5 1 2-1q1.1 2.8 4.5 2-1.3 4.1 2 3l-1-2.5 2 1q-.7 2.3 1.5 1.5v-2l2.5-1.5-3.5-1.5-1.5.5.5-1.5-2-1-3 2q-1.5-3.5-3-1l-3.5-2.5 3 1-1-6 2.5-4.5 2.5 3.5-1 4q3.1 1.7 1.5 3.5l2.5-1.5q-2.7-.8-2-5l2.5-.5 1.5 1.5-1 3h3l-1-5q2.3-1.2-.5-2.5l-1.5.5.5 1.5-2.5-.5q-.7-2.2 1.5-1.5l2.5-4-5 3.5-.5 1.5-1.5-3.5 1.5-4.5-5 3 1-4 2 1 2-1 2 1 3-1 2.5 2.5-2 1 2 1-.5 2.5-1.5-.5 3.5 4.5 2.5-.5-3-3 1-1-1-3.5 2 .5q-2.2 1.3.5 2.5l.5-2q2.7 1.1 2-1.5l-.5-1.5q1.5 2.5 3-1l1.5-.5-2.5-.5h-2l-2-1-.5 1.5 1 2.5-4-1 1.5-3 2.5-1.5q-2.2-1.2.5-2.5l1.5.5-.5 1.5 2-1 1 3 .5-3.5-.5-1.5 2.5 1.5-1 2 .5 4.5 1.5-.5V45l-2 .5 1 2h-1l-1.5-2.5-2.5 1.5-.5-1.5-4 3-2-1-2 1-2.5-.5v-4l.5-2.5 2 1-.5-1.5-1-2 1.5.5 2-1 .5 4-2 .5 2 1-.5 1.5 3-1 2.5 1q-1.1-2.7 1.5-2l2.5-1q1.3-4.1-2-3l-1.5 3-2-1v2q-3.3 1.1-2.5-1.5l1-2q-2.2-1.2.5-2.5 2.3.8 1.5-1.5l-1.5-2.5-1 2-1-2-1.5 1.5 1.5 2.5-2.5-1.5-.5 1.5-1-3-2 4v-4q-2.6.8-1.5-2.5h1l.5 1.5.5-2.5-1.5-2.5-1 2-4-2-.5 1.5 1.5 2.5 1-2q-.5 5 2.5 6.5l-3-2q.8-2.2-1.5-1.5l-1.5.5 1-3-1-3.5 6 1q-1.5-3.7 1.5-3l1-1Zm.5 4 2 6v-1h2l-1-3-3-2Zm9 3v2l2-1-2-1Zm0 5q1 3-2 2l1 2 2-1 1-2-2-1Zm-8 9 2 2q1-3-2-2Zm12 181q0 4 2 1l-2-1Zm-19 6-2 4 2 5 1-6-1-3Zm10 2v3q3-1 0-3Zm2 2-1 2 2-1-1-1Zm-6 5v1h2l-2-1Zm-22 4-2 4q2 3 3 0l-1-4Zm11 0q-5 2-2 4-1 2 2 1l-1-1q-1-3 2-2l-1-2Zm3 0v2l2-1-2-1Zm-2 3q0 3 2 1v2l2-1q-1-3-4-2Zm-11 1q1 3-2 5h3l-1 4 3 1 3-1-3-2-2 1 3-4-2-1 4-1q-1-3-2-1l-4-1Zm5 4-2 2 2 1v-3Zm20 4-2 3 2-1v-2Zm-1.5-233 1 2-1-2Z"/>
<path fill="#FCFCFC" stroke="#FCFCFC" d="m321 26 5 1.5-.5 1.5 1.5.5-2.5 1.5-3-2-.5 2 2 .5-1.5.5-1.5-2.5 1-3.5ZM4.5 27 7 28.5 5.5 30 3 29.5 4.5 27Zm26 0q2.3-.7 1.5 1.5l2.5-1.5 2.5 1.5-.5 1.5-2.5-1.5-.5 2.5-3-4Zm-26 4L6 32.5v6L4.5 41l.5-1.5q.8-2.6-2.5-1.5 1.6 1.8-1.5 3.5l1 2q-2.3 1.2.5 2.5l2 1L7 46v178.5l1.5.5-.5-3.5 2.5-2.5 3.5 1.5q-3.5 1.5-1 3l1 2h-2l2.5 3.5 3-2-1.5 2.5 1.5 2.5-2-1 .5 1.5-1 2 3.5.5.5-2.5 1-3-.5-1.5 1.5-.5-2-1 .5-1.5-4.5 1 1-3.5h-2l3.5-1.5 3.5 6 4-.5-3-1q1.3-2.8 2.5-.5l3-1h2l2.5 2.5h-2l1 2-1.5 2.5-.5-1.5q2.3-1.2-.5-2.5l-1.5 2.5 4 8 .5 4.5 2.5-1.5-3.5 2.5-1-1-2.5 1.5-1-3h2l.5-1.5 1 2 .5-2.5-4-7q2.8-1.8-1.5-3.5l-3.5.5.5 1.5q-2.6-.8-1.5 2.5l-.5 1.5q3-.9 1.5 3.5l-1 2 1 2.5 3-.5q-3.5-1.5-1-3l-1-3v-2l-1-2 2-.5.5 2 1.5-.5-2 3 1.5.5 1.5-.5q.8 4.3-2 5v2l-1.5 2.5q-1.7-2.7-3.5 1.5l2 1-1.5.5-5-1-3.5-2.5 1.5-3.5-.5 1.5q-1.1 3.3 1.5 2.5l1-3 4.5-.5-3-1-.5-1.5-3 1-2.5-3.5 2.5-.5 2 1 .5-1.5v-2l-1.5-2.5-1.5.5q2.8 1.8-1.5 3.5l-.5-2.5 4-3q-2-4.5-4-1L8.5 232l-.5-2.5q2.5-1.5-1-3l-1-2L5.5 47l-2 1-2.5-.5-1-6L1.5 39q-2.3.8-1.5-1.5 4.1-1.4 4.5-6.5ZM10 223l2 2q1-3-2-2Zm17 2 1 2q1-3-1-2Zm-10 11q-3 2 0 3h1l-1-3Zm3 6-3 2h2q1 2 2 0 1-3-1-2Zm-3 3v1h2l-2-1ZM27.5 32l2 1q1.3-2.3 2.5.5l-4 2 1 2-3.5 2.5v-1l1.5-.5-.5-1.5 1.5.5-1-2 1.5-2.5-1-1Zm189 0 7.5.5-7.5.5v-1Zm112 3 2 3h2l2.5 1.5-1.5.5h-4l-1.5-1.5 1-2-.5-1.5Zm-297 1-1 2 1-2Z"/>
<path fill="#FCFCFC" stroke="#FCFCFC" d="m8.5 38 4.5 6.5-4 2 2 1L8.5 49v-4q-2.2.8-1.5-1.5l3-1q.7-2.6-2-1.5l.5-3Zm-3 4 .5 1.5-2 1L5.5 42Zm14 1 2 1 1.5-.5-5 3 .5 1.5-4.5-2.5 1.5-.5h2l2.5-.5-.5-1.5Zm4 2v3h-2l-1.5-.5 3.5-2.5Zm257 35 .5 7.5h-1l.5-7.5Zm-272 40 .5 7.5H8l.5-7.5Zm3 96 1.5.5-2.5 1.5 1-2Zm2 2q3.3-1.1 2.5 1.5l-1.5-.5-1-1Zm344.5 0q3-1 2 2-3 1-2-2Zm.5 5 1.5 5.5-.5 2.5-2.5-1.5 2-.5-.5-6Zm-357 1 1.5 7.5-1.5 2.5 4-3 .5 2.5-1 3 1 2-2 1q.8-2.2-1.5-1.5v-1l1.5-.5-2.5-1.5-1.5.5 2-4-.5-1.5-1.5.5 1-2-1-3 1.5-1.5Z"/>
<path fill="#FCFCFC" stroke="#FCFCFC" d="m4.5 225 1.5 2.5-1.5 2.5-.5-1.5v-2l.5-1.5Zm349.5 1q3.3-1.3 2 3.5h-1l-1-3.5Zm-23.5 2 .5 2-2-.5 1.5-1.5Zm24 3q1.5 3.5 3 1l2.5 1.5q.8 2.6-2.5 1.5l-1.5-.5q.8 2.3-1.5 1.5v-5Zm-325 1 1.5 2.5h-1l-.5-2.5Z"/>
<path fill="#FCFCFC" stroke="#FCFCFC" d="m359.5 236 .5 2.5-.5 2.5-2.5-1.5 2-.5.5-3Zm-5.5 1 2 .5-.5 2.5-1.5-3Zm-318.5 3 1 2 4-2v1l-1.5.5 2 .5-.5 2-2.5-.5.5-1.5-4 1 .5-1.5.5-1.5Z"/>
<path fill="#FCFCFC" stroke="#FCFCFC" d="m44.5 240 3.5 2.5-2 1 .5 1.5-2 1q-1.2-2.2-2.5.5l2.5 1.5 1.5-.5-.5 1.5 2-1 .5 4.5-2 2q1 3.8-2 2.5l-1-3.5h1l.5 1.5 1.5-1.5-1.5-2.5q1.3 2.3 2.5-.5l-4.5-1.5-2 1-3.5-2 1.5 3q4.4-1.5 3.5 1.5v2q.8 2.3-1.5 1.5l-2-1 1.5 2.5-1.5 1.5-2.5-.5-1-2 1.5-3.5q2.3.8 1.5-1.5-1.2-2.8-2.5-.5-2.2-.7-1.5 1.5v2l-.5 2.5-2.5-.5-3.5-4.5-1.5 3q2.7-1.1 2 1.5 3.8 1.8.5 3.5l-4.5-2-1-2.5 1-3-1.5-3.5q-2.7 1.3-.5 2.5v3.5q-2.7-1.1-2 1.5l3 1 3 4q-1.5 3-3 0l.5-1.5-4-3-3.5.5 1-2.5q3.7 1.5 3-1.5l1-2-1.5-2.5q3.3 1.1 2.5-1.5l3-2-2 3 2.5 4.5q3.3-1.7-.5-3.5l1.5-3.5h2l1.5-.5-.5-1.5 3.5 1.5-.5 1.5 2.5-.5-1-2.5q2.7-1.1 2 1.5 2-1.7 4 2-.7 2.6 2 1.5l-2-3.5 3-1-.5-1.5 1.5.5q.8-2.2-1.5-1.5v-1l2-1ZM28 247v2l2-1-2-1Zm7 0 1 3 1-2-2-1Zm-8 1q-2 3 1 2l-1-2Zm4 0-3 4 2-1q2 1 1-1l3-1-3-1Zm1 5q-2 3 1 2l-1-2ZM6.5 241v2l1.5.5-3.5 1.5-1.5-.5 2-.5 1.5-3Zm340.5 0q2.7-1.1 2 1.5l-1.5 3.5-2.5-1.5.5-1.5-3.5-.5 3.5-.5 1.5.5V241Zm6.5 0 1.5 3 2 .5-1.5.5q-1.2-2.3-2.5.5 1.1 3.3-1.5 2.5v-3l1.5-.5-.5-1.5 1.5-.5-.5-1.5Zm5 2q2.3-.7 1.5 1.5l-1.5-1.5Zm-350 2 1 2 1.5-.5.5 1.5 1.5-.5.5 1.5 3.5-1 1 2.5-1.5-.5-2-1-.5 1.5 1 2h-1q.7-3-3-1.5l-.5 2-1-2-2.5 1-.5-2-.5 3-2.5-1-3 4-.5-1.5.5-4.5 1.5.5q.8-2.2-1.5-1.5l.5-1.5.5-1.5 2 5 3.5-2.5 1.5-3.5Zm.5 3-2 2 4 1 2-1-1-1-3-1Z"/>
<path fill="#FCFCFC" stroke="#FCFCFC" d="m5.5 246-.5 1.5-.5 1.5-.5-1.5 1.5-1.5Zm344 0 2 4 3.5-2.5-.5-1.5 2.5 1.5-3 2 1.5 2.5 3-6 .5 2.5-1 2h2l-1.5 3.5-1.5-.5q-.8 2.6 2.5 1.5v1l-5.5 1 1 3.5-2-1 1-5.5 2-.5-6-1.5.5 2 1.5-.5-.5 1.5 1.5.5-2 .5q1.1 2.7-1.5 2v-2q-2.2.8-1.5-1.5l-1-2.5 4-1.5q-3.1-1.1-1.5-4.5Z"/>
<path fill="#FCFCFC" stroke="#FCFCFC" d="m347.5 247 .5 1.5-.5 1.5 1.5.5-3 .5-.5 2-.5-1.5 1-2-1.5.5-2.5-.5 3.5-1.5 1.5.5.5-1.5Zm-335 5 .5 1.5-1 2 6 4-2.5 1.5-.5-2q-2.7-1.1-2 1.5l3 2-1.5.5-2.5-3.5 1-2.5-3.5 1v-1l1.5-.5-3-2-.5 1.5-.5-1.5 1.5-1.5q1.8 3.8 3.5.5l.5-1.5Z"/>
<path fill="#FCFCFC" stroke="#FCFCFC" d="M3.5 254q3.8-1.2 2.5 2.5 4.3 2.3-.5 4.5l.5-1.5-.5-2.5-2 3-1-2 1.5-.5q-3.8-1.7-.5-3.5Zm.5 1 1 2q1-3-1-2Zm43.5 0 .5 2.5h-1l.5-2.5Zm265 1 .5 2.5-.5 2.5-1-1h-263l-2 1v-1l2-1H312l.5-3Zm34 1 1.5 3.5-2 1q2.3-1.2-.5-2.5l-1 4-.5-3.5 2.5-2.5Zm-304 1 1.5.5-2 .5-.5 3-1.5-2.5 2.5-1.5Zm313 0 2.5.5q-2.1 3.3-2.5-.5Zm-336 1 1 2-1-2Zm-19 1 4.5 2.5-1.5-.5-2.5.5 2 1-.5 1.5 4 1q1.3-2.2 2.5.5L7.5 269l-4-2-2 3-1.5-2.5h2l-.5-2.5-1.5.5 1-2-.5-3.5Zm18 1 .5 2 2 .5-1.5.5-2.5-.5 1.5-2.5Z"/>
<path fill="#FCFCFC" stroke="#FCFCFC" d="m356.5 261 3.5 1.5-3.5 1.5q-3-1.5 0-3Zm-329 1-1 2 1-2Zm-17 1 2.5.5-3.5 1.5 1-2Zm19 0h6q2.2 4.9 8.5 4l1 2.5-2.5.5-4.5-2-.5-2h-2l-1.5.5q3.8 1.8.5 3.5l-2.5-1.5 2-3q-.7-2.2-4.5-1.5v-1Zm4.5 4q-2 3 1 2l-1-2Z"/>
<path fill="#FCFCFC" stroke="#FCFCFC" d="m41.5 263 .5 2 2 .5-3 .5.5-3Zm276 0q3-.8 1.5 3l-3-.5 2-1-.5-1.5Zm5 0h2l6.5.5-4 1v2l1 2-3-1 1 2h-3l-.5-1.5-1 2-1-2-1.5.5 1.5-2.5 2.5-1.5-.5-1.5Zm1.5 2 1 2q1-3-1-2Zm23.5-2 3.5 1.5-1.5-.5q-3.7-1.2-2.5 2.5-3.1 1.8-1.5 3.5-2.6.8-1.5-2.5l1-2-.5-1.5 3-1Zm-333 1 1.5.5-1 2 1 3.5-2-.5q2.5-1.5-1-3l1.5-2.5Zm42 0 8.5.5-8.5.5v-1Zm72 0 7.5.5-7.5.5v-1Zm56 0 7.5.5-7.5.5v-1Zm13.5 0q3-1.2 2 2.5l-2-1V264Zm10.5 0 7.5.5-7.5.5v-1Zm46.5 0 9 .5-8.5 1.5-.5-2Zm17.5 0 7.5.5-7.5.5v-1Zm86 0 1 2-1-2Zm-347 1 .5 2.5-2-1 1.5-1.5Z"/>
<path fill="#FCFCFC" stroke="#FCFCFC" d="M348.5 265q3 1.5 0 3v-3Z"/>
<path fill="#FCFCFC" stroke="#FCFCFC" d="m352.5 265-.5 1.5.5 1.5 4-3 2 3 1.5-.5-1.5 2.5-2-3-6 3v-1l1.5-.5-1-2 1.5-1.5Zm-37 4 2.5.5-2.5.5v-1Z"/>
<path fill="#8C8C8C" stroke="#8C8C8C" d="M10.5 0q4.8-1.7 3.5 2.5l-2 1-.5-1.5q-3 1.5 0 3L18 7.5q1.1 3.3-1.5 2.5l-1-3L12 9.5l1 3.5 2.5-1 1.5 3q3.7-1.5 3 1.5v2q.8 2.3-1.5 1.5H15q1.5-3.8-1.5-3-2.7-1.2-.5-2.5.8-2.2-1.5-1.5l-2-1L7 15.5l3 1q.8 2.6-2.5 1.5l-4-8-1 2 1.5.5L0 14q-1-3.8 1.5-5Q5.9 10.5 5 7.5L4 4l5 1q-1-3.8 1.5-5Zm.5 6q0 4 2 1l-2-1Zm-4 4v3q3-1 0-3ZM346 0q3.8-1 5 1.5-1.5 4.4 1.5 3.5l3.5-1-1 5q3.8-1 5 1.5 1.7 4.8-2.5 3.5l-1-2 1.5-.5q-1.5-3-3 0l-2.5 6.5q-3.3 1.1-2.5-1.5l3-1-2.5-3.5-3.5 1 1 2.5-3 1.5q1.5 3.7-1.5 3h-2q-2.2.8-1.5-1.5V15q3.7 1.5 3-1.5 1.3-2.7 2.5-.5 2.3.8 1.5-1.5l1-2-3.5-2.5-1 3q-2.6.8-1.5-2.5l8-4-2-1-.5 1.5-1.5-4Zm2 6q0 4 2 1l-2-1Zm6 4-2 2 2 1v-3ZM40.5 3Q45 2 46 4.5l-1 2L315 7q-2.2-6 4.5-4l5 4h7l5.5 4.5 1 9-4.5 5.5-7 2q-5.7-1.2-8.5-5.5l-5-7v-5l.5-1.5L46 9.5q2.2 1.3 1 6L38.5 26l-6 2q-6.6-.9-9.5-5.5l-1-9L26.5 8l9-1 5-4ZM42 4l-4 2v1q5 1 6-1 1-3-2-2Zm274 0 2 3h5l-7-3ZM42 8l-5 2h3q3 2 3 7l3-1-1-6-3-2Zm275 0q-4 2-3 8l3 1 1-4 5-3-6-2ZM29 10l-5 2q-2 2-1 9l7 5q10 1 12-5l-5-2q-4-1-3-5v-2l-1-1-5 6 1 3 5 2h-3l-4-4q0-6 4-7l-2-1Zm301 0 3 6q0 4-3 6h-4l4-2q2 1 1-5l-4-4v2l-1 4q-2 3-8 4l7 5q10 1 12-5 1-7-1-9l-6-2ZM35 11q-1 6 4 8t3-4q-1-5-7-4Zm287 0q-5 2-4 8 6 1 7-3 2-7-3-5Z"/>
<path fill="#8C8C8C" stroke="#8C8C8C" d="M13.5 22q9.8-.7 12.5 5.5l1 9-5.5 6.5-10 5-3-2L8 223.5l1.5-.5 4-1 12.5 9.5 1 8-5.5 7.5-8 1-5.5-3.5q-3.2-3.3-2-11-4-2-4-8l3.5-1.5 1.5.5L6.5 45l-3 1q-2.2-.7-1.5-4.5l4-5Q4.6 27.1 9.5 24l4-2Zm2.5 1-3 1-4 7 1 1 1-3 3-1q7-1 8 4v3l-2-5-2-1-5 1-2 4 6 1q3 0 2 5v2h2l5-7-2-8q-2-5-8-4Zm-6 12 1 5 6 3q3 1 1-4t-8-4Zm-4 3q-3 2-2 7l2-1v-6Zm3 0-2 7 3 1q5 1 7-1l-4-2-4-5Zm4 185-6 2 2 7 1-2 7-4-4-3Zm-8 2v7h1q1-6-1-7Zm12 2-3 1q-4 2-4 7 6 1 8-3 2-6-1-5Zm3 1v2l-1 3q-2 4-9 4l1 2q2 3 8 2l2-5h1q1 5-3 6l-7-1-2-2H9l2 6 4 2q5 1 8-2l3-6-1-6-5-5ZM341.5 22q8-1 10.5 3.5 3.2 3.3 2 11 4 2 4 8l-2.5 1.5-2.5-1 .5 180 3-1q2.3.8 1.5 4.5l-4 5q1.4 9.4-3.5 12.5-2.7 2.8-9 2l-6.5-4.5q-3-3-2-10l4.5-5.5 10-6 4 2 .5-177.5-1.5.5-4 1-12.5-9.5-1-8 5.5-7.5 3-1Zm.5 1-2 1-6 8q0 8 6 10 3 1 1-4 2-5 9-4l-1-2q-2-4-7-3l-3 5h-1q0-5 4-6t6 1q2-1 1 2l2 1-2-6q-2-4-7-3Zm4 12q-5 2-4 8 6 0 8-4 2-6-4-4Zm6 3-2 3-7 4 5 2 5-2-1-7Zm3 0-1 6 2 1q1-5-1-7Zm-7 185-5 3 6 2 3 4 1-7-5-2Zm8 2-2 2 1 5 1-2v-5Zm-14 2v5q2 4 8 3l-1-4q-2-4-7-4Zm-2 1-6 8q0 6 3 9l5 2 6-1 3-5v-3l-1 2-3 2q-8 1-9-3l1-4 3 6 6-1 2-3-6-2q-3 0-3-4v-2l-1-1ZM32.5 242q7.3.3 9.5 5.5l5 7v5l-.5 1.5 267.5-.5q-2.2-1.2-1-6l8.5-10.5 6-2q6.6.9 9.5 5.5l1 9-5.5 6.5h-8q-1.6 4.9-9 4-2.7-1.2-.5-2.5l1-2-271.5-.5.5 1.5 1 2q-1 2.5-5.5 1.5l-5-4h-7l-5.5-4.5-1-9 4.5-5.5 6-2Zm-2.5 2-7 6q-1 6 1 8l4 2h3l-4-5q0-5 4-7l3 1-6 4 1 3 5 3-1-1 1-4q2-4 8-4-2-7-12-6Zm295 0-7 6 6 1q3 1 2 6l1 2 3-1 2-4-1-4-5-1 4-1 3 5-2 5q1 2-1 1v1h3l3-2 1-2v-6l-2-4q-3-3-10-2Zm-286 7q-5 2-4 8 6 1 7-3 2-7-3-5Zm279 0q-1 6 4 8t3-4q-1-5-7-4Zm-275 2v4l-6 4 7 1q3-2 2-7l-3-2Zm273 0-2 2q-1 5 3 7l6-1-3-2-3-3q1-4-1-3ZM39 263l3 3q3 1 2-2l-5-1Zm279 0-2 3 7-2-5-1ZM15 250l2.5 1 2.5-1-1 2.5 1 2.5q-3.8-1.5-3 1.5-1.2 2.8-2.5.5-2.2-.7-1.5 1.5l-1 2 3.5 2.5 1-3q2.6-.8 1.5 2.5l-8 4 2 1 .5-1.5 1.5 4q-3.8 1-5-1.5 1.5-4.4-1.5-3.5L4 266l1-5q-3.8 1-5-1.5-1.7-4.8 2.5-3.5l1 2-1.5.5q1.5 3 3 0l2.5-6.5 3.5 1.5-1.5.5q-1.2-2.2-2.5.5l2.5 3.5 3.5-1-1-2.5 3-1.5v-3Zm-8 7v3q3-1 0-3Zm5 5-2 2h3l-1-2Zm328-12 2.5 1 2.5-1q-1.5 3.7 1.5 3l3 5 3.5-2.5-1.5-2.5-1.5.5q-.8-2.6 2.5-1.5l4 8 1-2-1.5-.5 4-1.5q1 3.8-1.5 5-4.4-1.5-3.5 1.5l1 3.5-5-1q1 3.8-1.5 5-4.8 1.7-3.5-2.5l2-1 .5 1.5q3-1.5 0-3l-6.5-2.5 1.5-3.5.5 1.5q-2.2 1.3.5 2.5l3.5-2.5-1-3.5-2.5 1-1.5-3q-3.8 1.5-3-1.5V250Zm14 7-2 2 2 1v-3Zm-5 5-2 2h3l-1-2Z"/>
<path fill="#FFF" stroke="#FFF" d="m.5 0 2 1h2l2-1 1 2 1-2L9 1.5l-1 2L8.5 5 7 2 3.5 1 3 2.5v2l2 4-3-1L1.5 9 0 3.5l1-2L.5 0Zm16 0h2l2 1h2l6-1 2 1 4-1 3 1 4-1h2q3.3-1.1 2.5 1.5h1l.5-1.5H313l.5 2 .5-2 3 1.5-.5 1.5-1-2-1 3-2-2h-232v1h231l3.5 3.5-2 .5-.5-2h-232q-1.7-2.7-8-1l-1 1h-15l-1-1H48l-.5-2-.5 2-2-.5.5-1.5-6 1Q38.3.7 37 3.5l.5 1.5h-4q-5.3.8-7-2L24 4.5l5 2-1.5-.5-2.5.5 1 1-3.5 3.5-1-2-2 4-1-2-1.5.5L18 9l3-1.5-1.5-.5-1.5.5 3-2L19.5 4q-1.7 3.8-3.5.5l.5-1.5-4 2V4L17 1.5 16.5 0ZM26 1v1h2l-2-1Zm7 0v1h2l-2-1ZM23 2q-2 3 1 2l-1-2Zm6 0v1h2l-2-1Zm28 0v1h15L57 2ZM32 3v1h2l-2-1Zm286-3 4.5 1 4-1v1l-1.5.5 3.5.5V0q5.5-1.5 7 1l3.5-1 .5 3 .5-3 2.5 1 3.5-.5v2l1 2-5 2-1 2v2l.5 1.5 4-1v1l-3.5.5.5 1.5-3 1-3.5-5.5q2.3-1.2-.5-2.5-1.2 2.3-2.5-.5 1-3.7-2-2.5 1.3 3-2.5 2h-2l-3-2-1.5.5q2.3-1.2-.5-2.5l-2 1-1.5-3Zm8 3v1h3l-3-1Zm9 1 1 2q1-3-1-2Zm6 2-2 3 2-1V6Zm-3 3 1 2q1-3-1-2Zm2 2-1 3h2l-1-3Zm11.5-11 2 3 .5-1.5-.5-1.5h2l4.5.5-1 2 1 5-2 1 .5-1.5-2.5-.5 1-2.5 2-.5-4-1.5q1.1 3.3-3 2l-.5-4Z"/>
<path fill="#FFF" stroke="#FFF" d="m39.5 5 2.5.5L38.5 7l1-2Zm7 0 1 1 264.5.5L46 7l.5-2Zm272 0 2.5.5-2.5.5V5Zm31 1-1 2 1-2Zm-334 1 .5 1.5v2q.8 2.3-1.5 1.5v-2q-2.2.8-1.5-1.5h2l.5-1.5Zm329 0 .5 2 2 .5-1.5.5-1-3Zm-301 1 .5 2-2 .5 3 1 1 2q-1.5 3-3 0l-2-3L43.5 8Zm274 0 1 2 3-1v1l-6 5q-2.7-1.2-.5-2.5-.8-2.6 2.5-1.5v-1l-1.5-.5 1.5-1.5Z"/>
<path fill="#FFF" stroke="#FFF" d="m47 9 266 .5-265 1 264 .5-.5 3h-15v1h16l.5 1.5q-2.2 1.3.5 2.5l1.5.5-2 1 2.5 1.5 1-2 1.5 2.5-1 2 2.5 1.5 1.5-.5.5 3.5 1-2 .5 1.5-.5 1.5 5.5-2 .5 2 2-3 3-1 .5 2-4 .5 3 .5-1 6.5 1.5 2.5-1.5.5 4 1.5q-1 3.8 1.5 5l4-1v1q-2.6-.7-1.5 2l2.5-1q1.7 2.8 7 2 1.3-2.3 2.5.5v167l-1 1 .5 1.5q-3-.9-1.5 3.5h-1l-.5-2.5-2 1v-2l-2.5 1.5.5 3.5-2-1-1.5 2.5.5 1.5-2-1q-5.9 2.6-7.5 9.5l1 4h-1l-.5-3.5-.5 5.5 3 1-.5 1.5 6.5 5.5-2 .5-1.5-3-5-4-1.5.5v-2l-.5-3.5-1 5h-5l-6.5 3.5 2 1-1.5.5-2.5-1.5 2 5h-1l-.5-1.5-3.5 4.5 1 2-1 3 1.5 2.5h-265l-1.5-1.5 1-4-1-2q2.3-1.3-.5-2.5h-2l-1.5-.5 4-1-2.5-1.5-1.5.5.5-1.5-1.5-.5.5-1.5H39q1.1-2.7-1.5-2l-2-3-.5 2-2.5-1-1.5.5q.8-5.8-2.5-7.5l-.5 2.5 2 4-.5 2.5-2.5-1.5-1.5 3.5-3.5 2.5q.8 2.6-2.5 1.5l-2.5 1q-1.3-3.3 3.5-2l6.5-7.5 1-10-1.5.5-3.5-2.5 2-1-4-.5-.5-2-2 1v-1l1.5-.5-2.5-3.5-2.5.5.5 1.5-2.5-1.5.5-1.5-3-1-1 2 1.5.5-2.5 1.5-.5-2.5 1-2-1-3v-87q2.8-1.8 1-8l-1-1v-70l.5-2.5q1.3 2.2 6 1l2-1 2 1v-2l1.5-.5-2-1 6-2.5q-1.2-3 2.5-2l.5-2.5 1-2-1-2.5 2-.5-2-.5q-1.2-3 2.5-2l-.5-1.5.5-1.5q1.8 3.1 3.5 1.5-2.3 1.3.5 2.5l1-3 2.5 1.5-1-2 3.5-2.5v2l3.5-2.5-1-2 2-3.5 3-.5v-2q-.5-3 6.5-1.5v-1l-5.5-.5 3-1-4-2V9Zm10 3v1h7l-7-1Zm40 0v1h7l-7-1Zm48 0v1h15l-15-1Zm24 0v1h7l-7-1Zm56 0v1h7l-7-1Zm48 0v1h7l-7-1Zm16 0v1h7l-7-1ZM57 14v1h39l-39-1Zm48 0v1h47l-47-1Zm56 0v1h111l-111-1Zm120 0v1h7l-7-1Zm45 15-1 2 2-1-1-1Zm4 1-1 3q3-1 2 2h1v-5l-1 2-1-2Zm-113 2v1h7l-7-1ZM30 33l-2 2h3l-1-2Zm-8 13-1 2 2-1-1-1Zm259 34-1 8h1v-8ZM14 218l1 1 1 1q1-3-2-2Zm11 7 2 5 1-2-3-3Zm4 0-1 2 2 1-1-3Zm302 0-1 2 2-1-1-1Zm4 0-1 2 2-1-1-1Zm-4 3-2 2h2v-2Zm3 0-2 3 3-2-1-1Zm-4 4-1 3h1v-3Zm-17 9q-2 3 1 2l-1-2Zm8 0-1 2 3-1-2-1Zm-281 1 1 2q1-3-1-2Zm5 0-1 2 3 1-2-3Zm270 1-2 3 3-2-1-1ZM49 259v1h263l-263-1ZM6.5 10l1 2-1-2Zm21 1 .5 1.5-1.5 2.5-.5-2.5 1.5-1.5Z"/>
<path fill="#FFF" stroke="#FFF" d="M35.5 11q3.3-1.1 2.5 1.5l3 1-2 3 1.5.5 1.5-.5q.8 2.6-2.5 1.5L36 16.5l1-2-2-1 2-1-1.5-1.5ZM322 11h3v5l-3 .5.5 1.5h-2q-3.3 1.1-2.5-1.5l1.5.5 1.5-.5-1.5-2.5 1.5-.5-.5-1.5 1.5.5V11Zm10.5 0 1 3 2-1v2q3-.9 1.5 3.5l-1.5 2.5-2.5-3.5 3 1-1.5-3.5-1.5.5-.5-4.5Zm-311 1 .5 1.5-.5 2.5-2.5-1.5 2-.5.5-2Zm10 0q2.6-.8 1.5 2.5l.5 1.5-3-1-1.5-.5 1.5-.5 1.5.5-.5-2.5Zm296 0 .5 3 2-.5-.5-1.5 1.5 1.5v4l-2.5 2.5q-4.5 1-5.5-1.5l1.5.5 4.5-.5q-1.2-2.7-2.5-.5-2.2.8-1.5-1.5l3-1-.5-1.5-1.5.5 1.5-3.5Zm-323 1 4 7 3.5-2.5q-5.3 2.3-1.5 4.5l1.5-.5q-2.5-1.5 1-3l.5-1.5 1.5 4 2.5-1 2.5 1.5-1.5.5h-2l-2-1-5 3v-2l-2.5.5.5 1.5q-2.6-.8-1.5 2.5l.5 1.5-2-1-.5 1.5 2 3H4l.5 2.5 1.5-.5L4.5 37q-1.2-2.2-2.5.5l2 1-2 1v2L1.5 43 0 39l2-.5Q-.8 37.4 0 34l2-.5q-3.5-1.5-1-3l-1-3 1-2-1-3 1-3-1-3q-.8-2.6 2.5-1.5l2-2ZM4 15l-1 2 2 1-1-3Zm0 3q-2 3 1 2l-1-2Zm10 1-2 2h2v-2ZM2 25v2l2-1-2-1Z"/>
<path fill="#FFF" stroke="#FFF" d="m9 13 2 .5-.5 2.5-1.5-.5-.5 1.5-.5-1.5L9 13Zm339.5 0q4.4-1.5 3.5 1.5 2.3 1.3-.5 2.5v-2l-2.5 1.5 1.5 2.5 2-1 2 1-.5-1.5 2-3-.5-1.5 3 2 1.5-.5v2l-1 4 1 3q2 8-2 10l2 .5-1 4.5 1 2h-1l-.5-1.5q-1.2 2.3-2.5-.5v-2l1-3-1.5-2.5-1.5.5 1-2-3-4 3 1-1-3h1l.5 1.5q3-1.5 0-3l-3.5.5.5 1.5-3-1-4-2-4.5 1 1.5-3v2l4.5-1.5-1-2.5 4-2.5-1.5-1.5Zm9.5 4 1 2q1-3-1-2Zm-8 2-1 2v1l6-1-1-1h-2l-2-1Zm8 10-2 2h2v-2ZM23 15h2q-1.1 2.7 1.5 2v2l1.5.5-.5 2.5-2 1 .5-1.5-.5-2.5-1 2-1.5-2.5 2-1-2-.5v-2Zm-3.5 2q2.3-.7 1.5 1.5l.5 1.5-2-3Zm12 0h2q2.3-.7 1.5 1.5l-.5 1.5 4 1 2.5-1-.5 2h-2l-1.5.5q2.3 1.2-.5 2.5L34 23.5l3-2q-6.3.8-8-3l2.5 1.5 1.5-.5-1.5-2.5Zm301 2 2.5 3.5-3 2q-.7-2.2 1.5-1.5v-1l-1.5-.5.5-2.5Zm-13 1q2.3-.7 1.5 1.5l3 2 .5-1.5 1 3 1.5.5-1.5.5-6-6Zm-298 1 .5 2q2.7-1.1 2 1.5l-3-2 .5-1.5Zm317 0q2.3-.7 1.5 1.5h-2q.8 2.3-1.5 1.5l-1.5.5 3.5-3.5Zm-309 1q4.5 2 1 4L27 25l.5-2 2 1v-2Zm301 0 .5 2.5q.8 2.3-1.5 1.5l-2-3q1.5 2.5 3-1Zm-317 2h2q5.3-1.2 6.5 1.5-3.1 1.8-1.5 3.5L19 27.5l1.5-2.5-3 2q-1.5-2.5-3 1L11 26.5l1.5.5 2.5-.5-1.5-2.5Z"/>
<path fill="#FFF" stroke="#FFF" d="m340.5 24 5.5.5-2 1 1.5 1.5 2.5-1.5q-2.3 1.3.5 2.5 2.3-.7 1.5 1.5l.5 1.5-4-4h-2l-2 1-1-1q-1.7 3.1-3.5 1.5l1 2-2 1-1-3 2-1q-2.2-1.3.5-2.5l2-1Zm-315 1 1 2-1-2Zm-3 2 1.5 1.5q-3.5 1.5-1 3l.5 3.5 1.5-.5-.5 2.5-1.5-.5 1 2-3.5 2.5v-1l2.5-1.5-1.5-.5-1 1-3.5-3.5q.5-4-2.5-4.5l-.5 1.5.5 1.5-2-1-1.5.5 4.5-4.5h2l2.5 2.5q.7 2.6-2 1.5v3l4-1.5-1-4 1.5-3.5Z"/>
<path fill="#FFF" stroke="#FFF" d="m342.5 29 4 2 2.5 1.5-.5 1.5-1-2q-1.8 3.1-3.5 1.5l-1.5 2.5q-2.2-.7-1.5 1.5l-3.5 2.5-2.5-3.5h2l.5-2.5 1 3 2.5-3.5-1-2 2.5-2.5Zm.5 1-2 3 2-1v-2ZM24.5 30l.5 2.5h-1l.5-2.5Zm311 0 .5 2.5h-1l.5-2.5Zm-324 5 4.5 1.5-2 1 4 2q.8 2.3-1.5 1.5v-2l-3.5.5 1.5 2.5-3.5-2.5 2-.5-1.5-4Z"/>
<path fill="#FFF" stroke="#FFF" d="M348.5 35q3 1.5 0 3l-1.5-.5q.8 2.3-1.5 1.5l-2.5.5-.5 1.5-.5-1.5 4-1.5q-1.1-2.7 1.5-2l1-1Zm-343 5 .5 1.5-2 1L5.5 40Z"/>
<path fill="#FFF" stroke="#FFF" d="m346.5 40-1 2-1.5-.5 2.5-1.5Zm-338 1 3 2v1l-1.5.5.5 1.5L8 43.5l.5-2.5Zm341 0 3.5 2.5-3.5 2.5v-2l-3 2-2.5-1.5 1.5-.5q1.5 2.5 3-1l1.5-.5-.5-1.5Zm5 0 1.5 2.5-2-1 .5-1.5Zm4 1 1.5 3.5v172q-2.7-.6-2 2.5 3.7-1.3 2 4.5l-1 4 .5 1.5-1.5-1.5-1-6.5q-2.7 1.1-2-1.5l-1-2 1-2q-2.7-1.8-1-8l1-1v-15q-2.7-1.7-1-8l1-1v-15l-1-1v-15l1-1v-15l-1-1v-23l1-1v-47l-1-1v-15l1.5-2.5 1 2 1-3 1.5.5-.5-3.5Zm-345 1 3.5 1.5-4.5 1.5.5-1.5.5-1.5Zm-12 1 1 2-1.5-.5.5 2.5h2l1.5-.5-.5-1.5L6 47.5V224l-3.5 1-2.5-.5v-179L1.5 44Zm9 180 2 1 2.5-1-1.5 3-3 2v-3l1.5.5q.8-2.2-1.5-1.5v-1Zm334.5 0 4 .5q-2 4.5-4 1V224Zm4.5 2 2.5.5v2l-.5 1.5-1-2q-1.2 2.3-2.5-.5l1.5-1.5Zm-345 1 1.5 3.5H5l-.5-3.5Zm-4 1 2 4 1.5-.5 1 2q-2.5 1.5 1 3l-2 2 .5 1.5 1.5-.5 1 3H5l1.5 2.5 1.5-.5-1 4 5-1-.5 1.5 2-1 1.5 2.5-1.5 2.5-1.5-.5-2 3 .5 1.5q-3.7 1.3-2.5-2.5l3-1-.5-2.5-1.5.5.5-1.5q-3.7-1.2-2.5 2.5l-4 2 2 .5-.5 2q-1.7-3.1-3.5-1.5l-1-2 .5-4.5q2.6.8 1.5-2.5H1L.5 248 0 236.5v-4l1-2-.5-2.5ZM14 249l-3 2h3v-2Zm-9 1-1 3h2q1-4-1-3Zm9.5-22 2 1 1.5-.5-1.5 4.5-1.5-.5-1.5 2.5-2.5-.5v-4l1.5-1.5 2-1Zm.5 1 1 2h1l-2-2Z"/>
<path fill="#FFF" stroke="#FFF" d="M343.5 228q2.3-.7 1.5 1.5l1.5-.5 2.5 1.5-.5 3.5 1.5.5-1.5.5-3.5-1.5q.8-2.2-1.5-1.5l-1.5-2.5 1.5-1.5Zm.5 1q-2 3 1 2l-1-2Zm10.5-1 .5 2.5h-1l.5-2.5Z"/>
<path fill="#FFF" stroke="#FFF" d="m338.5 229 4.5 5.5-.5 1.5 2 1h2l2-1-1 2q-2.2-.7-1.5 1.5l-3.5 1.5-1-2 1.5.5q.8-2.2-1.5-1.5l-2-4-2 2-2.5-.5 2-3q-2.8-1.7 1.5-3.5Zm.5 1-2 2h2v-2Zm-319 0 4 1.5-.5 1.5-.5-2-2 .5 2.5 3.5 1.5-.5q.7 2.6-2 1.5v2.5q-2.2 1.2.5 2.5l1.5-.5-4 1.5.5 2 1.5-.5-2.5 2.5h-2l-2.5-.5 3-1-2-1 4-1.5 2-6.5-3.5-1.5v4l-1-3-1.5-.5 3-2V230Zm337.5 0 2.5 1-1.5 3-1.5.5 3 1-1 3 1 3q.8 2.3-1.5 1.5l1.5 2.5-1 5 1 3q.8 2.6-2.5 1.5l-2 1v-1q2.3.8 1.5-1.5l-1.5.5-2.5-1.5 1.5.5 1.5-.5-1.5-2.5-2 1q-1.5-2.5-3 1l-3 1-1.5-4-3 .5.5 1.5-1.5-3 4.5 1 2.5-.5.5-1.5 1 2 .5-3 2 .5-.5 1.5q2.6.8 1.5-2.5l-.5-1.5q1.3 2.2 2.5-.5l-.5-1.5-1.5.5 3-5-2-1 2-.5-.5-2-1.5.5 3.5-4.5Zm1.5 16-1 3h1v-3Zm-3 1-1 2 2-1-1-1Zm-9 2-1 2h3l-2-2Z"/>
<path fill="#FFF" stroke="#FFF" d="m11.5 236 2 1 3.5-.5 2 3-2 1 .5-1.5-3 2-1-3-2-2Zm326 1 .5 2.5h-1l.5-2.5Zm-328 1 3 4 3.5 1.5-2 1 .5 1.5-2.5-1-.5-3-1.5.5-.5-4.5Zm341 1-.5 1.5q.5 4-2.5 4.5l-4 1h-2q-4 .5-4.5-2.5l1.5.5 1.5-.5-5-3 1.5.5 4 2h2l4-1v2l2.5-1.5 1.5-3.5Zm-320 5h2q2.3-.7 1.5 1.5l2.5 1.5v-2l1 3 2 1 1.5-.5-10 6.5.5 2 1.5-.5q.8 2.3-1.5 1.5l-2.5-3.5h2l.5-1.5q1.3 2.2 2.5-.5l-.5-1.5-2 1-1-2 2 1v-2l3 2-.5-1.5q1.3-3.7-2.5-2.5l-1-1-4 4-1.5.5 1 3-.5 1.5-1-2-1 3-1.5-3.5 2.5-5.5 2.5 1.5-1-3.5 3.5-1Zm296 0 4.5 1.5-.5 2.5-1.5-3-3 .5.5 1.5q-2.2-.7-1.5 1.5l3 1-.5 1.5 2-1-1 2-2.5.5 3 1q-2 3.5-4-1l1-2-1.5-.5q-1.2 2.2-2.5-.5l1-2-2-1 2.5-1.5q1.5 2.5 3-1Zm-7 4 1 2-1-2Zm16 0v2q2.6-.8 1.5 2.5l-1 3q.8 2.3-1.5 1.5l-2.5-.5 2-4q1.1-3.3-1.5-2.5v-1l3-1Zm-314 2-.5 1.5q.8 2.3-1.5 1.5l2-3Z"/>
<path fill="#FFF" stroke="#FFF" d="m40.5 252 1.5 1.5q-3.1 1.8-1.5 3.5l-3 2v-2q-2.2-.7-1.5 1.5h-1l1-2q-2.2-1.3.5-2.5l3 1 1-3Zm277.5 0 2.5 1 2-1 2.5 3.5-1.5 3.5-4.5-2.5q2.5-1.5-1-3V252Zm3 1-1 4h2l1-3-2-1Zm-276.5 0 .5 1.5-1 2.5 2 .5-3.5 4.5-1.5-3.5 3.5-5.5Zm286 1-1 2 1-2Zm21 0 1.5.5-2 1 .5 1.5h-2l-2.5-1.5 1.5.5 3-2ZM20 255l2 .5-1 3 1.5 1.5 11 5 2-1 2.5 4 3.5 1 1.5-.5-3.5 1.5h-2l-4-1-1 1H16l-1-4.5 4-3-1-3.5q-4.1-1.3-3 2l2 .5-2.5.5-1.5-3 2-.5-.5-1.5 2 1q1.8-3.1 3.5-1.5V255Zm294.5 0 1 3 1-3 2.5 3.5q-3.1 1.8-1.5 3.5-4.8-2-3-7Zm26 0 4 3 1.5-.5v4l-.5 1.5-.5-4q-3.8-1.5-3 1.5l-.5 3.5 3.5 1.5-1 4.5h-17.5l-1-1-1.5.5 1-2-2 1-.5 1.5-.5-1.5 1.5-3.5 2-1h2l4-1 2 1v-2l3-2 .5 2 3-1.5-3-2q2 1.7 4-2l-.5-1.5Zm-.5 7-3 2h3v-2Zm-14 3-1 2 2 1-1-3Zm-299.5-9 1 2-1-2Zm329 1 1 2-1-2Zm-24 1-1 2-1.5-.5 2.5-1.5Zm-331 3 3 1 1.5-.5-1 3.5q-3-1.2-2 2.5L.5 270l-.5-1.5v-4l1-2-.5-1.5Zm.5 2v2l2-1-2-1Zm37.5 0q3.8-1 2.5 2l-2.5-2Zm8 0 1 3 .5-3 264 .5-24 1 23.5.5 1 1 1-3 2 4 2 1 1.5-.5.5 1.5 1.5-.5q.8 2.6-2.5 1.5l-3-1-2 1h-265l-1-1-2 1-1.5-2.5 2.5-4.5Zm10.5 1v1h8l-8-1Zm72 0v1h7l-7-1Zm56 0v1h7l-7-1Zm13 0v2l2 1q1-4-2-3Zm11 0v1h7l-7-1Zm46 0 1 2 8-1-9-1Zm18 0v1h7l-7-1Zm-226 2-2 2h2v-2Zm267 0q-2 3 1 2l-1-2Zm5.5-3 2.5.5-3 1.5.5-2Zm38 0q3.3-1.1 2.5 1.5v4l-.5 1.5-1-2-.5 2q-5.4 1.5-7-1.5l1-2-.5-1.5 4 3 2.5-.5-2-3 1.5-1.5Zm-3.5 4-2 2h3l-1-2ZM8.5 265l-.5 1.5 1 3.5-7-.5 1.5-2.5 2.5.5-.5 1.5 2.5-.5-1-2 1.5-1.5Z"/>
</svg>