<svg aria-roledescription="timeline" role="graphics-document document" style="overflow: hidden; max-width: 100%;" xmlns="http://www.w3.org/2000/svg" width="100%" id="graph-div" height="100%" xmlns:xlink="http://www.w3.org/1999/xlink" xmlns:ev="http://www.w3.org/2001/xml-events"><style>@import url("https://cdnjs.cloudflare.com/ajax/libs/font-awesome/6.2.0/css/all.min.css");'</style><defs><marker orient="auto" markerHeight="4" markerWidth="6" refY="2" refX="5" id="arrowhead"><path d="M 0,0 V 4 L6,2 Z"></path></marker><style id="svg-pan-zoom-controls-styles" type="text/css">.svg-pan-zoom-control { cursor: pointer; fill: black; fill-opacity: 0.333; } .svg-pan-zoom-control:hover { fill-opacity: 0.8; } .svg-pan-zoom-control-background { fill: white; fill-opacity: 0.5; } .svg-pan-zoom-control-background { fill-opacity: 0.8; }</style></defs><g id="viewport-20230628035030283" class="svg-pan-zoom_viewport" transform="matrix(0.4283105312835491,0,0,0.4283105312835491,-0.07392462896009278,316.3427393057802)" style="transform: matrix(0.428311, 0, 0, 0.428311, -0.0739246, 316.343);"><style>#graph-div{font-family:"trebuchet ms",verdana,arial,sans-serif;font-size:12px;fill:#000000;}#graph-div .error-icon{fill:#552222;}#graph-div .error-text{fill:#552222;stroke:#552222;}#graph-div .edge-thickness-normal{stroke-width:2px;}#graph-div .edge-thickness-thick{stroke-width:3.5px;}#graph-div .edge-pattern-solid{stroke-dasharray:0;}#graph-div .edge-pattern-dashed{stroke-dasharray:3;}#graph-div .edge-pattern-dotted{stroke-dasharray:2;}#graph-div .marker{fill:#666;stroke:#666;}#graph-div .marker.cross{stroke:#666;}#graph-div svg{font-family:"trebuchet ms",verdana,arial,sans-serif;font-size:12px;}#graph-div .edge{stroke-width:3;}#graph-div .section--1 rect,#graph-div .section--1 path,#graph-div .section--1 circle,#graph-div .section--1 path{fill:#555;}#graph-div .section--1 text{fill:#F4F4F4;}#graph-div .node-icon--1{font-size:40px;color:#F4F4F4;}#graph-div .section-edge--1{stroke:#555;}#graph-div .edge-depth--1{stroke-width:17;}#graph-div .section--1 line{stroke:#aaaaaa;stroke-width:3;}#graph-div .lineWrapper line{stroke:#F4F4F4;}#graph-div .disabled,#graph-div .disabled circle,#graph-div .disabled text{fill:lightgray;}#graph-div .disabled text{fill:#efefef;}#graph-div .section-0 rect,#graph-div .section-0 path,#graph-div .section-0 circle,#graph-div .section-0 path{fill:#F4F4F4;}#graph-div .section-0 text{fill:#333;}#graph-div .node-icon-0{font-size:40px;color:#333;}#graph-div .section-edge-0{stroke:#F4F4F4;}#graph-div .edge-depth-0{stroke-width:14;}#graph-div .section-0 line{stroke:#0b0b0b;stroke-width:3;}#graph-div .lineWrapper line{stroke:#333;}#graph-div .disabled,#graph-div .disabled circle,#graph-div .disabled text{fill:lightgray;}#graph-div .disabled text{fill:#efefef;}#graph-div .section-1 rect,#graph-div .section-1 path,#graph-div .section-1 circle,#graph-div .section-1 path{fill:#555;}#graph-div .section-1 text{fill:#F4F4F4;}#graph-div .node-icon-1{font-size:40px;color:#F4F4F4;}#graph-div .section-edge-1{stroke:#555;}#graph-div .edge-depth-1{stroke-width:11;}#graph-div .section-1 line{stroke:#aaaaaa;stroke-width:3;}#graph-div .lineWrapper line{stroke:#F4F4F4;}#graph-div .disabled,#graph-div .disabled circle,#graph-div .disabled text{fill:lightgray;}#graph-div .disabled text{fill:#efefef;}#graph-div .section-2 rect,#graph-div .section-2 path,#graph-div .section-2 circle,#graph-div .section-2 path{fill:#BBB;}#graph-div .section-2 text{fill:#333;}#graph-div .node-icon-2{font-size:40px;color:#333;}#graph-div .section-edge-2{stroke:#BBB;}#graph-div .edge-depth-2{stroke-width:8;}#graph-div .section-2 line{stroke:#444444;stroke-width:3;}#graph-div .lineWrapper line{stroke:#333;}#graph-div .disabled,#graph-div .disabled circle,#graph-div .disabled text{fill:lightgray;}#graph-div .disabled text{fill:#efefef;}#graph-div .section-3 rect,#graph-div .section-3 path,#graph-div .section-3 circle,#graph-div .section-3 path{fill:#777;}#graph-div .section-3 text{fill:#333;}#graph-div .node-icon-3{font-size:40px;color:#333;}#graph-div .section-edge-3{stroke:#777;}#graph-div .edge-depth-3{stroke-width:5;}#graph-div .section-3 line{stroke:#888888;stroke-width:3;}#graph-div .lineWrapper line{stroke:#333;}#graph-div .disabled,#graph-div .disabled circle,#graph-div .disabled text{fill:lightgray;}#graph-div .disabled text{fill:#efefef;}#graph-div .section-4 rect,#graph-div .section-4 path,#graph-div .section-4 circle,#graph-div .section-4 path{fill:#999;}#graph-div .section-4 text{fill:#333;}#graph-div .node-icon-4{font-size:40px;color:#333;}#graph-div .section-edge-4{stroke:#999;}#graph-div .edge-depth-4{stroke-width:2;}#graph-div .section-4 line{stroke:#666666;stroke-width:3;}#graph-div .lineWrapper line{stroke:#333;}#graph-div .disabled,#graph-div .disabled circle,#graph-div .disabled text{fill:lightgray;}#graph-div .disabled text{fill:#efefef;}#graph-div .section-5 rect,#graph-div .section-5 path,#graph-div .section-5 circle,#graph-div .section-5 path{fill:#DDD;}#graph-div .section-5 text{fill:#333;}#graph-div .node-icon-5{font-size:40px;color:#333;}#graph-div .section-edge-5{stroke:#DDD;}#graph-div .edge-depth-5{stroke-width:-1;}#graph-div .section-5 line{stroke:#222222;stroke-width:3;}#graph-div .lineWrapper line{stroke:#333;}#graph-div .disabled,#graph-div .disabled circle,#graph-div .disabled text{fill:lightgray;}#graph-div .disabled text{fill:#efefef;}#graph-div .section-6 rect,#graph-div .section-6 path,#graph-div .section-6 circle,#graph-div .section-6 path{fill:#FFF;}#graph-div .section-6 text{fill:#333;}#graph-div .node-icon-6{font-size:40px;color:#333;}#graph-div .section-edge-6{stroke:#FFF;}#graph-div .edge-depth-6{stroke-width:-4;}#graph-div .section-6 line{stroke:#000000;stroke-width:3;}#graph-div .lineWrapper line{stroke:#333;}#graph-div .disabled,#graph-div .disabled circle,#graph-div .disabled text{fill:lightgray;}#graph-div .disabled text{fill:#efefef;}#graph-div .section-7 rect,#graph-div .section-7 path,#graph-div .section-7 circle,#graph-div .section-7 path{fill:#DDD;}#graph-div .section-7 text{fill:#333;}#graph-div .node-icon-7{font-size:40px;color:#333;}#graph-div .section-edge-7{stroke:#DDD;}#graph-div .edge-depth-7{stroke-width:-7;}#graph-div .section-7 line{stroke:#222222;stroke-width:3;}#graph-div .lineWrapper line{stroke:#333;}#graph-div .disabled,#graph-div .disabled circle,#graph-div .disabled text{fill:lightgray;}#graph-div .disabled text{fill:#efefef;}#graph-div .section-8 rect,#graph-div .section-8 path,#graph-div .section-8 circle,#graph-div .section-8 path{fill:#BBB;}#graph-div .section-8 text{fill:#333;}#graph-div .node-icon-8{font-size:40px;color:#333;}#graph-div .section-edge-8{stroke:#BBB;}#graph-div .edge-depth-8{stroke-width:-10;}#graph-div .section-8 line{stroke:#444444;stroke-width:3;}#graph-div .lineWrapper line{stroke:#333;}#graph-div .disabled,#graph-div .disabled circle,#graph-div .disabled text{fill:lightgray;}#graph-div .disabled text{fill:#efefef;}#graph-div .section-9 rect,#graph-div .section-9 path,#graph-div .section-9 circle,#graph-div .section-9 path{fill:#999;}#graph-div .section-9 text{fill:#333;}#graph-div .node-icon-9{font-size:40px;color:#333;}#graph-div .section-edge-9{stroke:#999;}#graph-div .edge-depth-9{stroke-width:-13;}#graph-div .section-9 line{stroke:#666666;stroke-width:3;}#graph-div .lineWrapper line{stroke:#333;}#graph-div .disabled,#graph-div .disabled circle,#graph-div .disabled text{fill:lightgray;}#graph-div .disabled text{fill:#efefef;}#graph-div .section-10 rect,#graph-div .section-10 path,#graph-div .section-10 circle,#graph-div .section-10 path{fill:#777;}#graph-div .section-10 text{fill:#333;}#graph-div .node-icon-10{font-size:40px;color:#333;}#graph-div .section-edge-10{stroke:#777;}#graph-div .edge-depth-10{stroke-width:-16;}#graph-div .section-10 line{stroke:#888888;stroke-width:3;}#graph-div .lineWrapper line{stroke:#333;}#graph-div .disabled,#graph-div .disabled circle,#graph-div .disabled text{fill:lightgray;}#graph-div .disabled text{fill:#efefef;}#graph-div .section-root rect,#graph-div .section-root path,#graph-div .section-root circle{fill:hsl(0, 0%, 70.6862745098%);}#graph-div .section-root text{fill:#333;}#graph-div .icon-container{height:100%;display:flex;justify-content:center;align-items:center;}#graph-div .edge{fill:none;}#graph-div .eventWrapper{filter:brightness(120%);}#graph-div :root{--mermaid-font-family:"trebuchet ms",verdana,arial,sans-serif;}</style><g></g><g></g><g transform="translate(100, 50)" class="taskWrapper"><g class="timeline-node section--1"><g><path d="M0 57.8 v-52.8 q0,-5 5,-5 h180 q5,0 5,5 v57.8 H0 Z" class="node-bkg node-undefined" id="node-undefined"></path><line y2="62.8" x2="190" y1="62.8" x1="0" class="node-line--1"></line></g><g transform="translate(95, 10)"><text text-anchor="middle" dominant-baseline="middle" alignment-baseline="middle" dy="1em"><tspan dy="1em" x="0">2001</tspan></text></g></g></g><g class="lineWrapper"><line stroke-dasharray="5,5" marker-end="url(#arrowhead)" stroke="black" stroke-width="2" y2="378.00000228881834" x2="195" y1="112.8" x1="195"></line></g><g transform="translate(100, 250)" class="eventWrapper"><g class="timeline-node section--1"><g><path d="M0 51.00000076293945 v-46.00000076293945 q0,-5 5,-5 h180 q5,0 5,5 v51.00000076293945 H0 Z" class="node-bkg node-undefined" id="node-undefined"></path><line y2="56.00000076293945" x2="190" y1="56.00000076293945" x1="0" class="node-line--1"></line></g><g transform="translate(95, 10)"><text text-anchor="middle" dominant-baseline="middle" alignment-baseline="middle" dy="1em"><tspan dy="1em" x="0">Started   making   films   with</tspan><tspan dy="1.1em" x="0">his   brother   Van   Neistat</tspan></text></g></g></g><g transform="translate(300, 50)" class="taskWrapper"><g class="timeline-node section-0"><g><path d="M0 57.8 v-52.8 q0,-5 5,-5 h180 q5,0 5,5 v57.8 H0 Z" class="node-bkg node-undefined" id="node-undefined"></path><line y2="62.8" x2="190" y1="62.8" x1="0" class="node-line-0"></line></g><g transform="translate(95, 10)"><text text-anchor="middle" dominant-baseline="middle" alignment-baseline="middle" dy="1em"><tspan dy="1em" x="0">2003</tspan></text></g></g></g><g class="lineWrapper"><line stroke-dasharray="5,5" marker-end="url(#arrowhead)" stroke="black" stroke-width="2" y2="378.00000228881834" x2="395" y1="112.8" x1="395"></line></g><g transform="translate(300, 250)" class="eventWrapper"><g class="timeline-node section-0"><g><path d="M0 51.00000076293945 v-46.00000076293945 q0,-5 5,-5 h180 q5,0 5,5 v51.00000076293945 H0 Z" class="node-bkg node-undefined" id="node-undefined"></path><line y2="56.00000076293945" x2="190" y1="56.00000076293945" x1="0" class="node-line-0"></line></g><g transform="translate(95, 10)"><text text-anchor="middle" dominant-baseline="middle" alignment-baseline="middle" dy="1em"><tspan dy="1em" x="0">Created   the   "iPod's   Dirty</tspan><tspan dy="1.1em" x="0">Secret"   video</tspan></text></g></g></g><g transform="translate(500, 50)" class="taskWrapper"><g class="timeline-node section-1"><g><path d="M0 57.8 v-52.8 q0,-5 5,-5 h180 q5,0 5,5 v57.8 H0 Z" class="node-bkg node-undefined" id="node-undefined"></path><line y2="62.8" x2="190" y1="62.8" x1="0" class="node-line-1"></line></g><g transform="translate(95, 10)"><text text-anchor="middle" dominant-baseline="middle" alignment-baseline="middle" dy="1em"><tspan dy="1em" x="0">2004</tspan></text></g></g></g><g class="lineWrapper"><line stroke-dasharray="5,5" marker-end="url(#arrowhead)" stroke="black" stroke-width="2" y2="378.00000228881834" x2="595" y1="112.8" x1="595"></line></g><g transform="translate(500, 250)" class="eventWrapper"><g class="timeline-node section-1"><g><path d="M0 51.00000076293945 v-46.00000076293945 q0,-5 5,-5 h180 q5,0 5,5 v51.00000076293945 H0 Z" class="node-bkg node-undefined" id="node-undefined"></path><line y2="56.00000076293945" x2="190" y1="56.00000076293945" x1="0" class="node-line-1"></line></g><g transform="translate(95, 10)"><text text-anchor="middle" dominant-baseline="middle" alignment-baseline="middle" dy="1em"><tspan dy="1em" x="0">Started   working   with   Tom</tspan><tspan dy="1.1em" x="0">Sachs</tspan></text></g></g></g><g transform="translate(700, 50)" class="taskWrapper"><g class="timeline-node section-2"><g><path d="M0 57.8 v-52.8 q0,-5 5,-5 h180 q5,0 5,5 v57.8 H0 Z" class="node-bkg node-undefined" id="node-undefined"></path><line y2="62.8" x2="190" y1="62.8" x1="0" class="node-line-2"></line></g><g transform="translate(95, 10)"><text text-anchor="middle" dominant-baseline="middle" alignment-baseline="middle" dy="1em"><tspan dy="1em" x="0">2006</tspan></text></g></g></g><g class="lineWrapper"><line stroke-dasharray="5,5" marker-end="url(#arrowhead)" stroke="black" stroke-width="2" y2="378.00000228881834" x2="795" y1="112.8" x1="795"></line></g><g transform="translate(700, 250)" class="eventWrapper"><g class="timeline-node section-2"><g><path d="M0 64.2000015258789 v-59.2000015258789 q0,-5 5,-5 h180 q5,0 5,5 v64.2000015258789 H0 Z" class="node-bkg node-undefined" id="node-undefined"></path><line y2="69.2000015258789" x2="190" y1="69.2000015258789" x1="0" class="node-line-2"></line></g><g transform="translate(95, 10)"><text text-anchor="middle" dominant-baseline="middle" alignment-baseline="middle" dy="1em"><tspan dy="1em" x="0">Created   an   HBO   series</tspan><tspan dy="1.1em" x="0">"The   Neistat   Brothers"   with</tspan><tspan dy="1.1em" x="0">his   brother   Van   Neistat</tspan></text></g></g></g><g transform="translate(900, 50)" class="taskWrapper"><g class="timeline-node section-3"><g><path d="M0 57.8 v-52.8 q0,-5 5,-5 h180 q5,0 5,5 v57.8 H0 Z" class="node-bkg node-undefined" id="node-undefined"></path><line y2="62.8" x2="190" y1="62.8" x1="0" class="node-line-3"></line></g><g transform="translate(95, 10)"><text text-anchor="middle" dominant-baseline="middle" alignment-baseline="middle" dy="1em"><tspan dy="1em" x="0">2010</tspan></text></g></g></g><g class="lineWrapper"><line stroke-dasharray="5,5" marker-end="url(#arrowhead)" stroke="black" stroke-width="2" y2="378.00000228881834" x2="995" y1="112.8" x1="995"></line></g><g transform="translate(900, 250)" class="eventWrapper"><g class="timeline-node section-3"><g><path d="M0 51.00000076293945 v-46.00000076293945 q0,-5 5,-5 h180 q5,0 5,5 v51.00000076293945 H0 Z" class="node-bkg node-undefined" id="node-undefined"></path><line y2="56.00000076293945" x2="190" y1="56.00000076293945" x1="0" class="node-line-3"></line></g><g transform="translate(95, 10)"><text text-anchor="middle" dominant-baseline="middle" alignment-baseline="middle" dy="1em"><tspan dy="1em" x="0">The   series   was   aired   on</tspan><tspan dy="1.1em" x="0">HBO</tspan></text></g></g></g><g transform="translate(1100, 50)" class="taskWrapper"><g class="timeline-node section-4"><g><path d="M0 57.8 v-52.8 q0,-5 5,-5 h180 q5,0 5,5 v57.8 H0 Z" class="node-bkg node-undefined" id="node-undefined"></path><line y2="62.8" x2="190" y1="62.8" x1="0" class="node-line-4"></line></g><g transform="translate(95, 10)"><text text-anchor="middle" dominant-baseline="middle" alignment-baseline="middle" dy="1em"><tspan dy="1em" x="0">2015</tspan></text></g></g></g><g class="lineWrapper"><line stroke-dasharray="5,5" marker-end="url(#arrowhead)" stroke="black" stroke-width="2" y2="378.00000228881834" x2="1195" y1="112.8" x1="1195"></line></g><g transform="translate(1100, 250)" class="eventWrapper"><g class="timeline-node section-4"><g><path d="M0 51.00000076293945 v-46.00000076293945 q0,-5 5,-5 h180 q5,0 5,5 v51.00000076293945 H0 Z" class="node-bkg node-undefined" id="node-undefined"></path><line y2="56.00000076293945" x2="190" y1="56.00000076293945" x1="0" class="node-line-4"></line></g><g transform="translate(95, 10)"><text text-anchor="middle" dominant-baseline="middle" alignment-baseline="middle" dy="1em"><tspan dy="1em" x="0">Started   a   daily   vlog   on</tspan><tspan dy="1.1em" x="0">YouTube</tspan></text></g></g></g><g transform="translate(1300, 50)" class="taskWrapper"><g class="timeline-node section-5"><g><path d="M0 57.8 v-52.8 q0,-5 5,-5 h180 q5,0 5,5 v57.8 H0 Z" class="node-bkg node-undefined" id="node-undefined"></path><line y2="62.8" x2="190" y1="62.8" x1="0" class="node-line-5"></line></g><g transform="translate(95, 10)"><text text-anchor="middle" dominant-baseline="middle" alignment-baseline="middle" dy="1em"><tspan dy="1em" x="0">2016</tspan></text></g></g></g><g class="lineWrapper"><line stroke-dasharray="5,5" marker-end="url(#arrowhead)" stroke="black" stroke-width="2" y2="378.00000228881834" x2="1395" y1="112.8" x1="1395"></line></g><g transform="translate(1300, 250)" class="eventWrapper"><g class="timeline-node section-5"><g><path d="M0 51.00000076293945 v-46.00000076293945 q0,-5 5,-5 h180 q5,0 5,5 v51.00000076293945 H0 Z" class="node-bkg node-undefined" id="node-undefined"></path><line y2="56.00000076293945" x2="190" y1="56.00000076293945" x1="0" class="node-line-5"></line></g><g transform="translate(95, 10)"><text text-anchor="middle" dominant-baseline="middle" alignment-baseline="middle" dy="1em"><tspan dy="1em" x="0">Co-founded   the   social</tspan><tspan dy="1.1em" x="0">media   company   Beme</tspan></text></g></g></g><g transform="translate(1500, 50)" class="taskWrapper"><g class="timeline-node section-6"><g><path d="M0 57.8 v-52.8 q0,-5 5,-5 h180 q5,0 5,5 v57.8 H0 Z" class="node-bkg node-undefined" id="node-undefined"></path><line y2="62.8" x2="190" y1="62.8" x1="0" class="node-line-6"></line></g><g transform="translate(95, 10)"><text text-anchor="middle" dominant-baseline="middle" alignment-baseline="middle" dy="1em"><tspan dy="1em" x="0">2017</tspan></text></g></g></g><g class="lineWrapper"><line stroke-dasharray="5,5" marker-end="url(#arrowhead)" stroke="black" stroke-width="2" y2="378.00000228881834" x2="1595" y1="112.8" x1="1595"></line></g><g transform="translate(1500, 250)" class="eventWrapper"><g class="timeline-node section-6"><g><path d="M0 51.00000076293945 v-46.00000076293945 q0,-5 5,-5 h180 q5,0 5,5 v51.00000076293945 H0 Z" class="node-bkg node-undefined" id="node-undefined"></path><line y2="56.00000076293945" x2="190" y1="56.00000076293945" x1="0" class="node-line-6"></line></g><g transform="translate(95, 10)"><text text-anchor="middle" dominant-baseline="middle" alignment-baseline="middle" dy="1em"><tspan dy="1em" x="0">Beme   was   acquired   by</tspan><tspan dy="1.1em" x="0">CNN</tspan></text></g></g></g><g transform="translate(1700, 50)" class="taskWrapper"><g class="timeline-node section-7"><g><path d="M0 57.8 v-52.8 q0,-5 5,-5 h180 q5,0 5,5 v57.8 H0 Z" class="node-bkg node-undefined" id="node-undefined"></path><line y2="62.8" x2="190" y1="62.8" x1="0" class="node-line-7"></line></g><g transform="translate(95, 10)"><text text-anchor="middle" dominant-baseline="middle" alignment-baseline="middle" dy="1em"><tspan dy="1em" x="0">2018</tspan></text></g></g></g><g class="lineWrapper"><line stroke-dasharray="5,5" marker-end="url(#arrowhead)" stroke="black" stroke-width="2" y2="378.00000228881834" x2="1795" y1="112.8" x1="1795"></line></g><g transform="translate(1700, 250)" class="eventWrapper"><g class="timeline-node section-7"><g><path d="M0 77.40000228881836 v-72.40000228881836 q0,-5 5,-5 h180 q5,0 5,5 v77.40000228881836 H0 Z" class="node-bkg node-undefined" id="node-undefined"></path><line y2="82.40000228881836" x2="190" y1="82.40000228881836" x1="0" class="node-line-7"></line></g><g transform="translate(95, 10)"><text text-anchor="middle" dominant-baseline="middle" alignment-baseline="middle" dy="1em"><tspan dy="1em" x="0">Stopped   daily   vlogging   and</tspan><tspan dy="1.1em" x="0">started   368,   a   creative</tspan><tspan dy="1.1em" x="0">space   for   creators   to</tspan><tspan dy="1.1em" x="0">collaborate</tspan></text></g></g></g><g transform="translate(1900, 50)" class="taskWrapper"><g class="timeline-node section-8"><g><path d="M0 57.8 v-52.8 q0,-5 5,-5 h180 q5,0 5,5 v57.8 H0 Z" class="node-bkg node-undefined" id="node-undefined"></path><line y2="62.8" x2="190" y1="62.8" x1="0" class="node-line-8"></line></g><g transform="translate(95, 10)"><text text-anchor="middle" dominant-baseline="middle" alignment-baseline="middle" dy="1em"><tspan dy="1em" x="0">2020</tspan></text></g></g></g><g class="lineWrapper"><line stroke-dasharray="5,5" marker-end="url(#arrowhead)" stroke="black" stroke-width="2" y2="378.00000228881834" x2="1995" y1="112.8" x1="1995"></line></g><g transform="translate(1900, 250)" class="eventWrapper"><g class="timeline-node section-8"><g><path d="M0 64.2000015258789 v-59.2000015258789 q0,-5 5,-5 h180 q5,0 5,5 v64.2000015258789 H0 Z" class="node-bkg node-undefined" id="node-undefined"></path><line y2="69.2000015258789" x2="190" y1="69.2000015258789" x1="0" class="node-line-8"></line></g><g transform="translate(95, 10)"><text text-anchor="middle" dominant-baseline="middle" alignment-baseline="middle" dy="1em"><tspan dy="1em" x="0">Moved   to   Los   Angeles   and</tspan><tspan dy="1.1em" x="0">continued   creating   content</tspan><tspan dy="1.1em" x="0">on   YouTube</tspan></text></g></g></g><text y="20" font-weight="bold" font-size="4ex" x="945">Casey Neistat's Career Timeline</text><g class="lineWrapper"><line marker-end="url(#arrowhead)" stroke="black" stroke-width="4" y2="162.8" x2="2140" y1="162.8" x1="50"></line></g></g><g id="svg-pan-zoom-controls" transform="translate(868 713) scale(0.75)" class="svg-pan-zoom-control"><g id="svg-pan-zoom-zoom-in" transform="translate(30.5 5) scale(0.015)" class="svg-pan-zoom-control"><rect x="0" y="0" width="1500" height="1400" class="svg-pan-zoom-control-background"></rect><path d="M1280 576v128q0 26 -19 45t-45 19h-320v320q0 26 -19 45t-45 19h-128q-26 0 -45 -19t-19 -45v-320h-320q-26 0 -45 -19t-19 -45v-128q0 -26 19 -45t45 -19h320v-320q0 -26 19 -45t45 -19h128q26 0 45 19t19 45v320h320q26 0 45 19t19 45zM1536 1120v-960 q0 -119 -84.5 -203.5t-203.5 -84.5h-960q-119 0 -203.5 84.5t-84.5 203.5v960q0 119 84.5 203.5t203.5 84.5h960q119 0 203.5 -84.5t84.5 -203.5z" class="svg-pan-zoom-control-element"></path></g><g id="svg-pan-zoom-reset-pan-zoom" transform="translate(5 35) scale(0.4)" class="svg-pan-zoom-control"><rect x="2" y="2" width="182" height="58" class="svg-pan-zoom-control-background"></rect><path d="M33.051,20.632c-0.742-0.406-1.854-0.609-3.338-0.609h-7.969v9.281h7.769c1.543,0,2.701-0.188,3.473-0.562c1.365-0.656,2.048-1.953,2.048-3.891C35.032,22.757,34.372,21.351,33.051,20.632z" class="svg-pan-zoom-control-element"></path><path d="M170.231,0.5H15.847C7.102,0.5,0.5,5.708,0.5,11.84v38.861C0.5,56.833,7.102,61.5,15.847,61.5h154.384c8.745,0,15.269-4.667,15.269-10.798V11.84C185.5,5.708,178.976,0.5,170.231,0.5z M42.837,48.569h-7.969c-0.219-0.766-0.375-1.383-0.469-1.852c-0.188-0.969-0.289-1.961-0.305-2.977l-0.047-3.211c-0.03-2.203-0.41-3.672-1.142-4.406c-0.732-0.734-2.103-1.102-4.113-1.102h-7.05v13.547h-7.055V14.022h16.524c2.361,0.047,4.178,0.344,5.45,0.891c1.272,0.547,2.351,1.352,3.234,2.414c0.731,0.875,1.31,1.844,1.737,2.906s0.64,2.273,0.64,3.633c0,1.641-0.414,3.254-1.242,4.84s-2.195,2.707-4.102,3.363c1.594,0.641,2.723,1.551,3.387,2.73s0.996,2.98,0.996,5.402v2.32c0,1.578,0.063,2.648,0.19,3.211c0.19,0.891,0.635,1.547,1.333,1.969V48.569z M75.579,48.569h-26.18V14.022h25.336v6.117H56.454v7.336h16.781v6H56.454v8.883h19.125V48.569z M104.497,46.331c-2.44,2.086-5.887,3.129-10.34,3.129c-4.548,0-8.125-1.027-10.731-3.082s-3.909-4.879-3.909-8.473h6.891c0.224,1.578,0.662,2.758,1.316,3.539c1.196,1.422,3.246,2.133,6.15,2.133c1.739,0,3.151-0.188,4.236-0.562c2.058-0.719,3.087-2.055,3.087-4.008c0-1.141-0.504-2.023-1.512-2.648c-1.008-0.609-2.607-1.148-4.796-1.617l-3.74-0.82c-3.676-0.812-6.201-1.695-7.576-2.648c-2.328-1.594-3.492-4.086-3.492-7.477c0-3.094,1.139-5.664,3.417-7.711s5.623-3.07,10.036-3.07c3.685,0,6.829,0.965,9.431,2.895c2.602,1.93,3.966,4.73,4.093,8.402h-6.938c-0.128-2.078-1.057-3.555-2.787-4.43c-1.154-0.578-2.587-0.867-4.301-0.867c-1.907,0-3.428,0.375-4.565,1.125c-1.138,0.75-1.706,1.797-1.706,3.141c0,1.234,0.561,2.156,1.682,2.766c0.721,0.406,2.25,0.883,4.589,1.43l6.063,1.43c2.657,0.625,4.648,1.461,5.975,2.508c2.059,1.625,3.089,3.977,3.089,7.055C108.157,41.624,106.937,44.245,104.497,46.331z M139.61,48.569h-26.18V14.022h25.336v6.117h-18.281v7.336h16.781v6h-16.781v8.883h19.125V48.569z M170.337,20.14h-10.336v28.43h-7.266V20.14h-10.383v-6.117h27.984V20.14z" class="svg-pan-zoom-control-element"></path></g><g id="svg-pan-zoom-zoom-out" transform="translate(30.5 70) scale(0.015)" class="svg-pan-zoom-control"><rect x="0" y="0" width="1500" height="1400" class="svg-pan-zoom-control-background"></rect><path d="M1280 576v128q0 26 -19 45t-45 19h-896q-26 0 -45 -19t-19 -45v-128q0 -26 19 -45t45 -19h896q26 0 45 19t19 45zM1536 1120v-960q0 -119 -84.5 -203.5t-203.5 -84.5h-960q-119 0 -203.5 84.5t-84.5 203.5v960q0 119 84.5 203.5t203.5 84.5h960q119 0 203.5 -84.5 t84.5 -203.5z" class="svg-pan-zoom-control-element"></path></g></g></svg>