<svg width="265" height="266" viewBox="0 0 265 266" fill="none" xmlns="http://www.w3.org/2000/svg">
<g filter="url(#filter0_ii_105_82)">
<path d="M6 2.5H71C72.933 2.5 74.5 4.067 74.5 6V71C74.5 72.933 72.933 74.5 71 74.5H6C4.067 74.5 2.5 72.933 2.5 71V6C2.5 4.067 4.067 2.5 6 2.5Z" fill="black" stroke="#BE26D7" stroke-width="3"/>
<path d="M156 2.5H221C222.933 2.5 224.5 4.067 224.5 6V71C224.5 72.933 222.933 74.5 221 74.5H156C154.067 74.5 152.5 72.933 152.5 71V6C152.5 4.067 154.067 2.5 156 2.5Z" fill="black" stroke="#BE26D7" stroke-width="3"/>
<path d="M6 77.5H71C72.933 77.5 74.5 79.067 74.5 81V146C74.5 147.933 72.933 149.5 71 149.5H6C4.067 149.5 2.5 147.933 2.5 146V81C2.5 79.067 4.067 77.5 6 77.5Z" fill="black" stroke="#BE26D7" stroke-width="3"/>
<path d="M81 77.5H146C147.933 77.5 149.5 79.067 149.5 81V146C149.5 147.933 147.933 149.5 146 149.5H81C79.067 149.5 77.5 147.933 77.5 146V81C77.5 79.067 79.067 77.5 81 77.5Z" fill="black" stroke="#BE26D7" stroke-width="3"/>
<path d="M156 77.5H221C222.933 77.5 224.5 79.067 224.5 81V146C224.5 147.933 222.933 149.5 221 149.5H156C154.067 149.5 152.5 147.933 152.5 146V81C152.5 79.067 154.067 77.5 156 77.5Z" fill="black" stroke="#BE26D7" stroke-width="3"/>
<path d="M6 152.5H71C72.933 152.5 74.5 154.067 74.5 156V221C74.5 222.933 72.933 224.5 71 224.5H6C4.067 224.5 2.5 222.933 2.5 221V156C2.5 154.067 4.067 152.5 6 152.5Z" fill="black" stroke="#BE26D7" stroke-width="3"/>
<path d="M81 152.5H146C147.933 152.5 149.5 154.067 149.5 156V221C149.5 222.933 147.933 224.5 146 224.5H81C79.067 224.5 77.5 222.933 77.5 221V156C77.5 154.067 79.067 152.5 81 152.5Z" fill="black" stroke="#BE26D7" stroke-width="3"/>
<path d="M156 152.5H221C222.933 152.5 224.5 154.067 224.5 156V221C224.5 222.933 222.933 224.5 221 224.5H156C154.067 224.5 152.5 222.933 152.5 221V156C152.5 154.067 154.067 152.5 156 152.5Z" fill="black" stroke="#BE26D7" stroke-width="3"/>
<path d="M81 2.5H146C147.933 2.5 149.5 4.067 149.5 6V71C149.5 72.933 147.933 74.5 146 74.5H81C79.067 74.5 77.5 72.933 77.5 71V6C77.5 4.067 79.067 2.5 81 2.5Z" fill="black" stroke="#BE26D7" stroke-width="3"/>
<rect x="4" y="4" width="219" height="219" stroke="black" stroke-width="6"/>
</g>
<g filter="url(#filter1_f_105_82)">
<path d="M229.42 6.14769L234.58 11.6523C235.902 13.0625 236.974 15.7727 236.974 17.7057V82.7057C236.974 84.6387 235.902 85.0625 234.58 83.6523L229.42 78.1477C228.098 76.7375 227.026 74.0273 227.026 72.0943V7.09431C227.026 5.16131 228.098 4.73749 229.42 6.14769Z" fill="black" stroke="#BE26D7" stroke-width="3"/>
<path d="M253.42 31.7477L258.58 37.2523C259.902 38.6625 260.974 41.3727 260.974 43.3057V108.306C260.974 110.239 259.902 110.663 258.58 109.252L253.42 103.748C252.098 102.337 251.026 99.6273 251.026 97.6943V32.6943C251.026 30.7613 252.098 30.3375 253.42 31.7477Z" fill="black" stroke="#BE26D7" stroke-width="3"/>
<path d="M229.42 81.1477L234.58 86.6523C235.902 88.0625 236.974 90.7727 236.974 92.7057V157.706C236.974 159.639 235.902 160.063 234.58 158.652L229.42 153.148C228.098 151.737 227.026 149.027 227.026 147.094V82.0943C227.026 80.1613 228.098 79.7375 229.42 81.1477Z" fill="black" stroke="#BE26D7" stroke-width="3"/>
<path d="M241.42 93.9477L246.58 99.4523C247.902 100.862 248.974 103.573 248.974 105.506V170.506C248.974 172.439 247.902 172.862 246.58 171.452L241.42 165.948C240.098 164.537 239.026 161.827 239.026 159.894V94.8943C239.026 92.9613 240.098 92.5375 241.42 93.9477Z" fill="black" stroke="#BE26D7" stroke-width="3"/>
<path d="M253.42 106.748L258.58 112.252C259.902 113.663 260.974 116.373 260.974 118.306V183.306C260.974 185.239 259.902 185.663 258.58 184.252L253.42 178.748C252.098 177.337 251.026 174.627 251.026 172.694V107.694C251.026 105.761 252.098 105.337 253.42 106.748Z" fill="black" stroke="#BE26D7" stroke-width="3"/>
<path d="M229.42 156.148L234.58 161.652C235.902 163.063 236.974 165.773 236.974 167.706V232.706C236.974 234.639 235.902 235.063 234.58 233.652L229.42 228.148C228.098 226.737 227.026 224.027 227.026 222.094V157.094C227.026 155.161 228.098 154.737 229.42 156.148Z" fill="black" stroke="#BE26D7" stroke-width="3"/>
<path d="M241.42 168.948L246.58 174.452C247.902 175.863 248.974 178.573 248.974 180.506V245.506C248.974 247.439 247.902 247.863 246.58 246.452L241.42 240.948C240.098 239.537 239.026 236.827 239.026 234.894V169.894C239.026 167.961 240.098 167.537 241.42 168.948Z" fill="black" stroke="#BE26D7" stroke-width="3"/>
<path d="M253.42 181.748L258.58 187.252C259.902 188.662 260.974 191.373 260.974 193.306V258.306C260.974 260.239 259.902 260.662 258.58 259.252L253.42 253.748C252.098 252.337 251.026 249.627 251.026 247.694V182.694C251.026 180.761 252.098 180.337 253.42 181.748Z" fill="black" stroke="#BE26D7" stroke-width="3"/>
<path d="M241.42 18.9477L246.58 24.4523C247.902 25.8625 248.974 28.5727 248.974 30.5057V95.5057C248.974 97.4387 247.902 97.8625 246.58 96.4523L241.42 90.9477C240.098 89.5375 239.026 86.8273 239.026 84.8943V19.8943C239.026 17.9613 240.098 17.5375 241.42 18.9477Z" fill="black" stroke="#BE26D7" stroke-width="3"/>
<rect x="0.341971" y="0.864769" width="51.6361" height="224" transform="matrix(0.683941 0.729537 0 1 226.108 0.75052)" stroke="black"/>
</g>
<g filter="url(#filter2_f_105_82)">
<path d="M7.24381 227.084H72.1481C74.0811 227.084 76.7306 228.217 78.0661 229.615L83.5797 235.385C84.9151 236.783 84.4307 237.916 82.4977 237.916H17.5935C15.6605 237.916 13.0109 236.783 11.6755 235.385L6.16181 229.615C4.82638 228.217 5.31081 227.084 7.24381 227.084Z" fill="black" stroke="#BE26D7" stroke-width="3"/>
<path d="M157.052 227.084H221.957C223.89 227.084 226.539 228.217 227.875 229.615L233.388 235.385C234.724 236.783 234.239 237.916 232.306 237.916H167.402C165.469 237.916 162.819 236.783 161.484 235.385L155.97 229.615C154.635 228.217 155.119 227.084 157.052 227.084Z" fill="black" stroke="#BE26D7" stroke-width="3"/>
<path d="M19.666 240.084H84.5703C86.5033 240.084 89.1529 241.217 90.4883 242.615L96.002 248.385C97.3374 249.783 96.853 250.916 94.92 250.916H30.0157C28.0827 250.916 25.4331 249.783 24.0977 248.385L18.584 242.615C17.2486 241.217 17.733 240.084 19.666 240.084Z" fill="black" stroke="#BE26D7" stroke-width="3"/>
<path d="M94.5703 240.084H159.475C161.408 240.084 164.057 241.217 165.393 242.615L170.906 248.385C172.242 249.783 171.757 250.916 169.824 250.916H104.92C102.987 250.916 100.337 249.783 99.0019 248.385L93.4883 242.615C92.1529 241.217 92.6373 240.084 94.5703 240.084Z" fill="black" stroke="#BE26D7" stroke-width="3"/>
<path d="M169.475 240.084H234.379C236.312 240.084 238.961 241.217 240.297 242.615L245.81 248.385C247.146 249.783 246.661 250.916 244.728 250.916H179.824C177.891 250.916 175.242 249.783 173.906 248.385L168.393 242.615C167.057 241.217 167.542 240.084 169.475 240.084Z" fill="black" stroke="#BE26D7" stroke-width="3"/>
<path d="M32.0882 253.084H96.9925C98.9255 253.084 101.575 254.217 102.91 255.615L108.424 261.385C109.76 262.783 109.275 263.916 107.342 263.916H42.4379C40.5049 263.916 37.8553 262.783 36.5199 261.385L31.0062 255.615C29.6708 254.217 30.1552 253.084 32.0882 253.084Z" fill="black" stroke="#BE26D7" stroke-width="3"/>
<path d="M106.993 253.084H171.897C173.83 253.084 176.479 254.217 177.815 255.615L183.328 261.385C184.664 262.783 184.179 263.916 182.246 263.916H117.342C115.409 263.916 112.76 262.783 111.424 261.385L105.911 255.615C104.575 254.217 105.06 253.084 106.993 253.084Z" fill="black" stroke="#BE26D7" stroke-width="3"/>
<path d="M181.897 253.084H246.801C248.734 253.084 251.384 254.217 252.719 255.615L258.233 261.385C259.568 262.783 259.084 263.916 257.151 263.916H192.246C190.313 263.916 187.664 262.783 186.328 261.385L180.815 255.615C179.479 254.217 179.964 253.084 181.897 253.084Z" fill="black" stroke="#BE26D7" stroke-width="3"/>
<path d="M82.148 227.084H147.052C148.985 227.084 151.635 228.217 152.97 229.615L158.484 235.385C159.819 236.783 159.335 237.916 157.402 237.916H92.4977C90.5647 237.916 87.9151 236.783 86.5797 235.385L81.066 229.615C79.7306 228.217 80.215 227.084 82.148 227.084Z" fill="black" stroke="#BE26D7" stroke-width="3"/>
<rect x="0.845429" y="0.361495" width="223.713" height="52.9426" transform="matrix(1 0 0.690858 0.722991 0.957778 226.1)" stroke="black"/>
</g>
<defs>
<filter id="filter0_ii_105_82" x="-4" y="-24" width="280" height="250" filterUnits="userSpaceOnUse" color-interpolation-filters="sRGB">
<feFlood flood-opacity="0" result="BackgroundImageFix"/>
<feBlend mode="normal" in="SourceGraphic" in2="BackgroundImageFix" result="shape"/>
<feColorMatrix in="SourceAlpha" type="matrix" values="0 0 0 0 0 0 0 0 0 0 0 0 0 0 0 0 0 0 127 0" result="hardAlpha"/>
<feOffset dx="-5" dy="-2"/>
<feGaussianBlur stdDeviation="5"/>
<feComposite in2="hardAlpha" operator="arithmetic" k2="-1" k3="1"/>
<feColorMatrix type="matrix" values="0 0 0 0 0 0 0 0 0 0 0 0 0 0 0 0 0 0 0.25 0"/>
<feBlend mode="normal" in2="shape" result="effect1_innerShadow_105_82"/>
<feColorMatrix in="SourceAlpha" type="matrix" values="0 0 0 0 0 0 0 0 0 0 0 0 0 0 0 0 0 0 127 0" result="hardAlpha"/>
<feOffset dx="50" dy="-25"/>
<feGaussianBlur stdDeviation="25"/>
<feComposite in2="hardAlpha" operator="arithmetic" k2="-1" k3="1"/>
<feColorMatrix type="matrix" values="0 0 0 0 0 0 0 0 0 0 0 0 0 0 0 0 0 0 0.25 0"/>
<feBlend mode="normal" in2="effect1_innerShadow_105_82" result="effect2_innerShadow_105_82"/>
</filter>
<filter id="filter1_f_105_82" x="225" y="0" width="38" height="265.4" filterUnits="userSpaceOnUse" color-interpolation-filters="sRGB">
<feFlood flood-opacity="0" result="BackgroundImageFix"/>
<feBlend mode="normal" in="SourceGraphic" in2="BackgroundImageFix" result="shape"/>
<feGaussianBlur stdDeviation="0.5" result="effect1_foregroundBlur_105_82"/>
</filter>
<filter id="filter2_f_105_82" x="0.20752" y="225" width="263.979" height="41" filterUnits="userSpaceOnUse" color-interpolation-filters="sRGB">
<feFlood flood-opacity="0" result="BackgroundImageFix"/>
<feBlend mode="normal" in="SourceGraphic" in2="BackgroundImageFix" result="shape"/>
<feGaussianBlur stdDeviation="0.5" result="effect1_foregroundBlur_105_82"/>
</filter>
</defs>
</svg>
