<svg width="463" height="599" xmlns="http://www.w3.org/2000/svg">
<path fill="#F0F0F0" stroke="#F0F0F0" d="m208.5 27 2.5.5-2.5.5v-1Zm39 0 2.5.5-2.5.5v-1Zm-137 38-1 2 1-2Zm240 0 1 2-1-2Zm-247 6-11 12 11-12Zm264 11 2 3-2-3Zm-104 2 1 2-1-2Zm-176 4-1 2 1-2Zm285 0 1 2-1-2Zm-172 1-1 2 1-2Zm68 1 1 2-1-2Zm-185 3-1 2 1-2Zm204 62 .5 2.5h-1l.5-2.5Zm-110 10 .5 2.5h-1l.5-2.5Zm111 8 .5 6.5h-1l.5-6.5Zm-112 6 .5 3.5h-1l.5-3.5Zm-132 30 .5 16.5h-1l.5-16.5Zm244 1 .5 5.5h-1l.5-5.5Zm-112 36 .5 2.5h-1l.5-2.5Zm245 1 .5 2.5h-1l.5-2.5Zm1 32 .5 6.5h-1l.5-6.5Zm-160 29-6 7 6-7Zm-61 9 1 2-1-2Zm-127 2 1 2-1-2Zm3 4 1 2-1-2Zm146 2 6.5.5-6.5.5v-1Zm-142 3 2 3-2-3Zm7 8 6 7-6-7Zm196 4 .5 16.5h-1l.5-16.5Zm-5 1-5 6 5-6Zm-178 7 1 2-1-2Zm168 2-1 2 1-2Zm-4 3-1 2 1-2Zm-196 62-1 2 1-2Zm301 56-1 2 1-2Zm-117 7-1 2 1-2Zm111 1-1 2 1-2Zm-114 3-1 2 1-2Zm110 2-1 2 1-2Zm-115 4-4 5 4-5Zm110 2-3 4 3-4Zm-119 6-1 2 1-2Zm103 10-3 4 3-4Zm-254 4 2 3-2-3Zm246 3-1 2 1-2Zm-8 6-1 2 1-2Zm-228 1 2 3-2-3Zm92 36 3.5.5-3.5.5v-1Zm20 0 5.5.5-5.5.5v-1Z"/>
<path fill="#9D9D9D" stroke="#9D9D9D" d="m218.5 26 22.5.5-22.5.5v-1Zm-13 1 2.5.5-2.5.5v-1Zm45 0 4.5.5-4.5.5v-1Zm-54 1 2.5.5-2.5.5v-1Zm64 0 3.5.5-3.5.5v-1Zm7 1 2.5.5-2.5.5v-1Zm-138 22-1 2 1-2Zm207 3 1 2-1-2Zm-216 3-1 2 1-2Zm223 2 1 2-1-2Zm4 3 2 3-2-3Zm-235 1-1 2 1-2Zm-5 4-3 4 3-4Zm246 0 12 13-12-13Zm-126 6 4.5.5-4.5.5v-1Zm8 0 4.5.5-4.5.5v-1Zm24 8 1 2-1-2Zm-52 1-6 7 6-7Zm-116 1-3 4 3-4Zm279 2 1 2-1-2Zm-104 3 1 2-1-2Zm-181 2-1 2 1-2Zm114 1-1 2 1-2Zm70 1 1 2-1-2Zm107 1 1 2-1-2Zm-297 5-1 2 1-2Zm-6 9-1 2 1-2Zm212 31 .5 2.5h-1l.5-2.5Zm1 8 .5 3.5h-1l.5-3.5Zm-107 4 .5 2.5h-1l.5-2.5Zm-1 8 .5 3.5h-1l.5-3.5Zm109 0 .5 5.5h-1l.5-5.5Zm-110 10 .5 4.5h-1l.5-4.5Zm111 12 .5 29.5h-1l.5-29.5Zm-242 2 .5 2.5h-1l.5-2.5Zm130 1 .5 8.5h-1l.5-8.5Zm-131 7 .5 3.5h-1l.5-3.5Zm-1 11 .5 7.5h-1l.5-7.5Zm373 3 .5 2.5h-1l.5-2.5Zm1 7 .5 2.5h-1l.5-2.5Zm1 8 .5 2.5h-1l.5-2.5Zm-132 4 .5 5.5h-1l.5-5.5Zm-243 3 .5 7.5h-1l.5-7.5Zm376 3 .5 3.5h-1l.5-3.5Zm-244 7 .5 9.5h-1l.5-9.5Zm110 0 .5 2.5h-1l.5-2.5Zm-241 4 .5 3.5h-1l.5-3.5Zm376 1 .5 5.5h-1l.5-5.5Zm-136 3 .5 2.5h-1l.5-2.5Zm-239 4 .5 2.5h-1l.5-2.5Zm131 8 .5 4.5h-1l.5-4.5Zm245 4 .5 18.5h-1l.5-18.5Zm-244 6 .5 2.5h-1l.5-2.5Zm1 7 .5 2.5h-1l.5-2.5Zm243 13 .5 15.5h-1l.5-15.5Zm-158 19-1 2 1-2Zm-71 4 2 3-2-3Zm5 5 2 3-2-3Zm223 0 .5 4.5h-1l.5-4.5Zm-342 12 1 2-1-2Zm341 1 .5 2.5h-1l.5-2.5Zm-336 5 3 4-3-4Zm335 4 .5 2.5h-1l.5-2.5Zm-136 2q2.3-.7 1.5 1.5l-4 1 2.5-2.5Zm-188 5 4 5-4-5Zm323 0 .5 2.5h-1l.5-2.5Zm-145 4-2 3 2-3Zm-170 3 1 2-1-2Zm314 0 .5 2.5h-1l.5-2.5Zm-150 2-1 2 1-2Zm-160 1 1 2-1-2Zm153 4-1 2 1-2Zm23 11 .5 7.5h-1l.5-7.5Zm-71 8 2.5.5-2.5.5v-1Zm-44 1 3.5.5-3.5.5v-1Zm37 0 2.5.5-2.5.5v-1Zm-26 1 18.5.5-18.5.5v-1Zm103 4 .5 4.5h-1l.5-4.5Zm-1 10 .5 2.5h-1l.5-2.5Zm-1 7 .5 2.5h-1l.5-2.5Zm-150 27 .5 2.5h-1l.5-2.5Zm-66 7 .5 2.5h-1l.5-2.5Zm65 0 .5 5.5h-1l.5-5.5Zm-66 10 .5 11.5h-1l.5-11.5Zm66 3 .5 6.5h-1l.5-6.5Zm1 13 .5 2.5h-1l.5-2.5Zm-66 3 .5 2.5h-1l.5-2.5Zm192 11-1 2 1-2Zm113 0-1 2 1-2Zm-3 4-1 2 1-2Zm-4 5-1 2 1-2Zm-114 2-2 3 2-3Zm110 3-2 3 2-3Zm-218 2 1 2-1-2Zm3 4 7 8-7-8Zm96 0-2 3 2-3Zm111 3-8 9 8-9Zm-270 8 1 2-1-2Zm3 4 1 2-1-2Zm252 2-1 2 1-2Zm-157 1 2.5.5-2.5.5v-1Zm19 0 3.5.5-3.5.5v-1Zm132 4-1 2 1-2Zm-4 3-1 2 1-2Zm-227 5 2 3-2-3Zm5 4 1 2-1-2Zm63 27 2.5.5-2.5.5v-1Zm68 0 2.5.5-2.5.5v-1Zm-62 1 3.5.5-3.5.5v-1Zm54 0 2.5.5-2.5.5v-1Zm-44 1 4.5.5-4.5.5v-1Zm31 0 5.5.5-5.5.5v-1Z"/>
<path fill="#292929" stroke="#292929" d="m213.5 26 4.5.5-4.5.5v-1Zm28 0 3.5.5-3.5.5v-1Zm-39 1 2.5.5-2.5.5v-1Zm136 28 1 2-1-2Zm-220 3-1 2 1-2Zm227 2 1 2-1-2Zm-231 1-1 2 1-2Zm236 3 2 3-2-3Zm-241 1-1 2 1-2Zm-7 6-10 11 10-11Zm130 2 2.5.5-2.5.5v-1Zm25 7 1 2-1-2Zm109 0 3 4-3-4Zm-157 1-1 2 1-2Zm52 2 4 5-4-5Zm-174 4-1 2 1-2Zm285 0 1 2-1-2Zm-171 2-1 2 1-2Zm174 2 1 2-1-2Zm-292 1-1 2 1-2Zm115 1-1 2 1-2Zm-118 3-1 2 1-2Zm206 54 .5 2.5h-1l.5-2.5Zm-107 3 .5 2.5h-1l.5-2.5Zm108 11 .5 6.5h-1l.5-6.5Zm-110 9 .5 3.5h-1l.5-3.5Zm-132 14 .5 2.5h-1l.5-2.5Zm131 5 .5 16.5h-1l.5-16.5Zm-132 5 .5 3.5h-1l.5-3.5Zm132 17 .5 21.5h-1l.5-21.5Zm111 5 .5 3.5h-1l.5-3.5Zm133 7 .5 2.5h-1l.5-2.5Zm-134 7 .5 2.5h-1l.5-2.5Zm-242 1 .5 2.5h-1l.5-2.5Zm377 2 .5 4.5h-1l.5-4.5Zm-244 15 .5 4.5h-1l.5-4.5Zm245 1 .5 7.5h-1l.5-7.5Zm0 50 .5 6.5h-1l.5-6.5Zm-230 5 1 2-1-2Zm70 0-2 3 2-3Zm-4 4-3 4 3-4Zm-62 1 1 2-1-2Zm225 7 .5 3.5h-1l.5-3.5Zm-347 1 1 2-1-2Zm3 4 1 2-1-2Zm142 0 2.5.5-2.5.5v-1Zm-138 5 2 3-2-3Zm339 1 .5 2.5h-1l.5-2.5Zm-332 7 5 6-5-6Zm192 4-4 5 4-5Zm-180 7 1 2-1-2Zm170 2-1 2 1-2Zm-165 2 1 2-1-2Zm157 4-1 2 1-2Zm21 7 .5 4.5h-1l.5-4.5Zm-108 15 3.5.5-3.5.5v-1Zm23 0 3.5.5-3.5.5v-1Zm84 1 .5 2.5h-1l.5-2.5Zm-146 21 2.5.5-2.5.5v-1Zm-73 39 .5 3.5h-1l.5-3.5Zm66 0 .5 6.5h-1l.5-6.5Zm-66 16 .5 3.5h-1l.5-3.5Zm190 22-1 2 1-2Zm111 3-1 2 1-2Zm-114 1-1 2 1-2Zm111 3-2 3 2-3Zm-116 3-5 6 5-6Zm110 4-4 5 4-5Zm-120 5-1 2 1-2Zm-84 4 1 2-1-2Zm190 5-4 5 4-5Zm-260 1 1 2-1-2Zm4 5 5 6-5-6Zm96 0 5.5.5-5.5.5v-1Zm10 0 5.5.5-5.5.5v-1Zm142 1-2 3 2-3Zm-241 6 4 5-4-5Zm137 37 2.5.5-2.5.5v-1Zm-51 1 3.5.5-3.5.5v-1Zm41 0 3.5.5-3.5.5v-1Zm-22 1 3.5.5-3.5.5v-1Z"/>
<path fill="#FFF" stroke="#FFF" d="M211.5 27h35l1 1 18 1 16 3 24 7q37.4 14.6 61.5 42.5 17.4 20.1 29 46 10.6 24.4 17 53l5 28v7l2 9v10l1 1v14l1 1v61l-1 1v12l-1 1-1 16-6 33q-6.5 28-17 52-20.7 46.8-55.5 79.5-26.9 25.1-65 39l-36 9-15 1-1 1-32 1-1-1h-13l-1-1-12-1-28-8q-28.9-11.6-48.5-32.5-14.4-15.1-21-38l-3-16v-21l4-21 2.5-2.5 66-14 .5 2.5-4 10-4 18v23l1 1 1 12 4 13q5.8 13.3 16.5 21.5 16.7 13.3 50 10 28.6-5.4 44.5-23.5 13-14.5 21-34l9-27 7-39 2-50.5-5.5 3q-9.7 11.3-23 19l-20 10-26 7q-6.2-1.8-8 1h-28l-1-1h-8l-15-3-28-11Q99.9 350.6 84 331.5q-20.1-22.4-31-54l-5-19v-5l-2-7v-8l-1-1v-42l1-1 1-15 5-23 11-30Q80.1 91.1 108.5 67q21.1-18.4 50-29l20-6 23-4h9l1-1ZM227 73q-11 2-18 8l-14 16-10 24-5 22-2 22-1 1v13l-1 1v69l1 1v13l4 22q4 13 11 24l11 10 14 6q5-1 7 1 21 0 33-11 16-15 23-39l5-21 1-13 1-1v-9l1-1v-14l1-1v-42l-1-1v-17l-1-1v-10l-1-1-1-13-7-24q-5-13-13-21-7-9-19-12-8-2-19-1Z"/>
<path stroke="#000" opacity=".98" d="m210.5 19 7.5.5-7.5.5v-1Zm29 0 8.5.5-8.5.5v-1Zm-39 1 4.5.5-4.5.5v-1Zm54 0 4.5.5-4.5.5v-1Zm-61 1 2.5.5-2.5.5v-1Zm70 0 3.5.5-3.5.5v-1Zm-76 1 2.5.5-2.5.5v-1Zm83 0 2.5.5-2.5.5v-1Zm6 1 2.5.5-2.5.5v-1Zm9 2 2.5.5-2.5.5v-1Zm-139 9 1.5.5-3.5 1.5v-1l2-1Zm176 4 4.5 2.5-1.5-.5q-3.7-.3-3-2Zm-192 4-1 2-2 1 1-2 2-1Zm202 1 3.5 2.5-1.5-.5-2-2Zm-207 2-1 2-2 1 1-2 2-1Zm212 1 1 2-1-2Zm-217 2-1 2 1-2Zm220 0 4.5 3.5-2.5-1.5-2-2Zm-223 2-2 3-3 2 2-3 3-2Zm229 2 6.5 5.5-3.5-2.5-3-3Zm-236 3-3 4 3-4Zm244 3 7 8-7-8Zm-249 1-4 5 4-5Zm-7 6-12 13 12-13Zm270 7 6 7-6-7Zm-283 7-5 6 5-6Zm146 1 4.5.5-4.5.5v-1Zm145 1 3 4-3-4Zm-155 1 1.5.5-3.5 1.5v-1l2-1Zm-4 2-1 2 1-2Zm35 1 1 2-1-2Zm-173 1-3 4 3-4Zm135 0-1 2 1-2Zm166 0 1 2-1-2Zm-125 1 6 7-6-7Zm-45 2-2 3 2-3Zm172 0 2 3-2-3Zm-307 2-1 2 1-2Zm310 2 1 2-1-2Zm-312 1-2 3 2-3Zm133 0-2 3 2-3Zm56 1 2 3-2-3Zm125 1 1 2-1-2Zm-317 2-1 2 1-2Zm133 0-.5 1.5-1.5 2.5.5-1.5 1.5-2.5Zm-135 3-.5 1.5-1.5 2.5.5-1.5 1.5-2.5Zm198 0 3.5 6.5h-1l-2.5-6.5Zm124 0 1 2-1-2Zm-325 5-.5 1.5-1.5 2.5.5-1.5 1.5-2.5Zm328 0 2.5 3.5-2-1-.5-2.5Zm-331 5-.5 1.5-4.5 8.5.5-1.5 4.5-8.5Zm212 9 .5 2.5h-1l.5-2.5Zm-218 2 .5 1.5-1.5 2.5-.5-1.5 1.5-2.5Zm219 2 .5 2.5h-1l.5-2.5Zm2 10 .5 2.5h-1l.5-2.5Zm-88 1 .5 2.5h-1l.5-2.5Zm-1 5 .5 2.5h-1l.5-2.5Zm90 1 .5 3.5h-1l.5-3.5Zm-91 5 .5 3.5h-1l.5-3.5Zm92 4 .5 5.5h-1l.5-5.5Zm-93 3 .5 3.5h-1l.5-3.5Zm-1 9 .5 3.5h-1l.5-3.5Zm95 1 .5 10.5h-1l.5-10.5Zm137 3 .5 2.5h-1l.5-2.5Zm-376 1 .5 2.5h-1l.5-2.5Zm377 3 .5 2.5h-1l.5-2.5Zm-378 2 .5 2.5h-1l.5-2.5Zm144 1 .5 6.5h-1l.5-6.5Zm-145 5 .5 3.5h-1l.5-3.5Zm381 1 .5 2.5h-1l.5-2.5Zm1 5 .5 2.5h-1l.5-2.5Zm-383 1 .5 4.5h-1l.5-4.5Zm384 4 .5 2.5h-1l.5-2.5Zm-239 2 .5 45.5h-1l.5-45.5Zm240 3 .5 3.5h-1l.5-3.5Zm-386 1 .5 6.5h-1l.5-6.5Zm387 6 .5 2.5h-1l.5-2.5Zm1 6 .5 3.5h-1l.5-3.5Zm-145 7 .5 9.5h-1l.5-9.5Zm146 1 .5 3.5h-1l.5-3.5Zm1 9 .5 4.5h-1l.5-4.5Zm-148 6 .5 5.5h-1l.5-5.5Zm-242 3 .5 5.5h-1l.5-5.5Zm391 1 .5 6.5h-1l.5-6.5Zm-150 6 .5 3.5h-1l.5-3.5Zm-240 4 .5 3.5h-1l.5-3.5Zm146 4 .5 7.5h-1l.5-7.5Zm93 0 .5 2.5h-1l.5-2.5Zm152 1 .5 11.5h-1l.5-11.5Zm-390 2 .5 2.5h-1l.5-2.5Zm1 6 .5 2.5h-1l.5-2.5Zm145 5 .5 3.5h-1l.5-3.5Zm89 1 .5 2.5h-1l.5-2.5Zm-232 3 .5 2.5h-1l.5-2.5Zm144 4 .5 2.5h-1l.5-2.5Zm83 10 .5 1.5-1.5 2.5-.5-1.5 1.5-2.5Zm-219 11 1.5 3.5h-1l-.5-3.5Zm142 1 1.5 3.5h-1l-.5-3.5Zm70 3-1 2 1-2Zm-68 2 2.5 3.5-2-1-.5-2.5Zm66 1-1 2 1-2Zm-2 3-8 9 8-9Zm-61 1 1 2-1-2Zm232 0 .5 9.5h-1l.5-9.5Zm-230 3 5 6-5-6Zm-140 5 1 2-1-2Zm189 0-1 2 1-2Zm-42 1 1 2-1-2Zm3 2 4.5 2.5-1.5.5-3-3Zm-147 2 1 2-1-2Zm157 2 4.5.5-4.5.5v-1Zm10 0 3.5.5-3.5.5v-1Zm-165 1 1 2-1-2Zm364 1 .5 6.5h-1l.5-6.5Zm-362 2 1 2-1-2Zm2 3 2 3-2-3Zm3 4 3 4-3-4Zm356 2 .5 4.5h-1l.5-4.5Zm-352 3 5 6-5-6Zm351 6 .5 3.5h-1l.5-3.5Zm-344 2 8 9-8-9Zm343 5 .5 3.5h-1l.5-3.5Zm-332 5 4 5-4-5Zm331 2 .5 2.5h-1l.5-2.5Zm-149 2 1.5.5v13h-1l-.5-12.5-2.5 1.5 2.5-2.5Zm-176 1 2 3-2-3Zm172 2-2 3 2-3Zm-168 1 2 3-2-3Zm320 0 .5 2.5h-1l.5-2.5Zm-156 2-1 2 1-2Zm-160 1 1 2-1-2Zm157 1-1 2 1-2Zm-154 1 3.5 2.5-1.5-.5-2-2Zm312 0 .5 2.5h-1l.5-2.5Zm-161 1-1 2 1-2Zm-3 2-1 2-4 2 1-2 4-2Zm-141 1 3.5 2.5-1.5-.5-2-2Zm304 1 .5 2.5h-1l.5-2.5Zm-299 2 5.5 2.5-1.5.5-4-2v-1Zm122 3 1.5.5-3.5 1.5v-1l2-1Zm-113 1 3.5 1.5-1.5.5-2-2Zm144 2 .5 5.5h-1l.5-5.5Zm-126 4 2.5.5-2.5.5v-1Zm9 2 3.5.5-3.5.5v-1Zm57 0 2.5.5-2.5.5v-1Zm-51 1 3.5.5-3.5.5v-1Zm44 0 3.5.5-3.5.5v-1Zm-35 1 6.5.5-6.5.5v-1Zm25 0 5.5.5-5.5.5v-1Zm76 3 .5 3.5h-1l.5-3.5Zm-130 3 2.5.5-2.5.5v-1Zm-5 1 2.5.5-2.5.5v-1Zm-9 2 2.5.5-2.5.5v-1Zm-5 1 2.5.5-2.5.5v-1Zm148 1 .5 2.5h-1l.5-2.5Zm-162 2 2.5.5-2.5.5v-1Zm-14 3 2.5.5-2.5.5v-1Zm-5 1 2.5.5-2.5.5v-1Zm180 1 .5 2.5h-1l.5-2.5Zm-189 1 2.5.5-2.5.5v-1Zm-5 1 2.5.5-2.5.5v-1Zm-14 3 2.5.5-2.5.5v-1Zm205 10 .5 2.5h-1l.5-2.5Zm-1 4 .5 2.5h-1l.5-2.5Zm-210 2 .5 2.5h-1l.5-2.5Zm79 5 .5 2.5h-1l.5-2.5Zm265 0 .5 1.5-1.5 2.5-.5-1.5 1.5-2.5Zm-345 1 .5 2.5h-1l.5-2.5Zm-1 7 .5 5.5h-1l.5-5.5Zm80 0 .5 9.5h-1l.5-9.5Zm255 15-.5 1.5-1.5 2.5.5-1.5 1.5-2.5Zm-335 3 .5 5.5h-1l.5-5.5Zm81 0 .5 3.5h-1l.5-3.5Zm119 2 .5 1.5-3.5 5.5.5-1.5 2.5-5.5Zm131 2-1 2 1-2Zm-249 3 .5 2.5h-1l.5-2.5Zm247 0-.5 1.5-1.5 2.5.5-1.5 1.5-2.5Zm-328 3 .5 3.5h-1l.5-3.5Zm194 2-.5 1.5-1.5 2.5.5-1.5 1.5-2.5Zm131 0-1 2 1-2Zm-2 3-1 2 1-2Zm-132 2-2 3 2-3Zm130 1-1.5 2.5-2.5 3.5 1.5-2.5 2.5-3.5Zm-237 1 1.5 3.5h-1l-.5-3.5Zm104 2-2 3 2-3Zm-3 4-9 10 9-10Zm131 0-2 3 2-3Zm-228 3 3.5 4.5-3-2-.5-2.5Zm225 1-2 3 2-3Zm-221 5 5 6-5-6Zm217 0-3 4 3-4Zm-135 1-2 3 2-3Zm-4 3-1 2 1-2Zm-71 2 1 2-1-2Zm205 0-20 21 20-21Zm-139 1-1 2-3 1v-1l4-2Zm-155 1 2.5 3.5-2-1-.5-2.5Zm92 0 6.5 3.5-1.5.5q-4.6-1.2-5-4Zm47 5 2.5.5-2.5.5v-1Zm-32 1 2.5.5-2.5.5v-1Zm27 0 2.5.5-2.5.5v-1Zm-130 1 1 2-1-2Zm110 0 15.5.5-15.5.5v-1Zm-108 3 2 3-2-3Zm3 4 2 3-2-3Zm3 4 13 14-13-14Zm260 1-4 5 4-5Zm-6 5-2 3 2-3Zm-4 3-2 3 2-3Zm-4 3-1 2 1-2Zm-231 2 3 4-3-4Zm228 0-1 2 1-2Zm-3 2-1 2 1-2Zm-220 2 2 3-2-3Zm217 0-1 2-2 1 1-2 2-1Zm-213 3 1 2-1-2Zm206 1-1 2-2 1 1-2 2-1Zm-203 1 1 2-1-2Zm3 2 1 2-1-2Zm5 3 3.5 2.5-1.5-.5-2-2Zm11 6 3.5 1.5-1.5.5-2-2Zm33 11 2.5.5-2.5.5v-1Zm85 0 2.5.5-2.5.5v-1Zm-80 1 2.5.5-2.5.5v-1Zm74 0 3.5.5-3.5.5v-1Zm-68 1 2.5.5-2.5.5v-1Zm60 0 4.5.5-4.5.5v-1Zm-52 1 4.5.5-4.5.5v-1Zm41 0 6.5.5-6.5.5v-1Zm-28 1 18.5.5-18.5.5v-1Z"/>
<path stroke="#000" d="M218.5 19h20l1 1 23 1 1 1 17 2 25 7Q343 45 368 71.5q16.4 17.1 28 39 12.3 23.2 20 51l7 31 2 18 1 1v7l1 1 1 21 1 1v19l1 1v40l-1 1v16l-1 1-1 19-1 1-1 13-4 21q-6.1 27.4-16 51-23 55-64.5 91.5-30.5 27-75 40l-37 7h-10l-1 1h-35l-34-6-24-9q-27-13-45.5-34.5-12.8-14.7-19-36l-3-14-1-21 1-1v-9l2-11 4-13.5 86.5-18-.5 1.5-7 17-4 15-1 12-1 1v9l1 1 1 17 3 11q4.5 12 13.5 19.5 7.9 6.6 20 9l22 1 1-1 11-1 13-5q12.7-6.8 21.5-17.5l14-22 12-34 6-33 2-36.5-24.5 16-25 10-20 4-27 1-1-1h-11l-24-5-23-9Q98 358.5 81 339.5q-25.1-26.4-37-66l-6-30v-10l-1-1v-30l1-1v-11l1-1v-7l3-17q5.5-24 15-44Q73.7 87.7 100.5 64q21.3-19.2 50-31l29-9 17-3h8l1-1h12l1-1Zm-4.5 7-1 1h-10l-1 1h-7l-16 3-30 10q-27 12-46 30-26 23-41 56l-11 30-4 18-1 12-1 1v9l-1 1v39l6 34q12 40 38 67 17 19 43 30l25 8 11 2h8l1 1h26l23-4q31-9 52-29l7-6-1 39-1 1v10l-1 1v6l-4 23-11 35q-7 16-17 29-12 15-31 23l-15 4h-11l-1 1-15-1-8-2-17-9q-10-8-15-19l-6-24v-25l3-15 5-15 1-2-71 15-5 25v19l3 17q6 21 19 36 19 21 47 33l20 7 19 4 26 1 1 1 4-1h21l1-1 21-2 36-10q33-12 57-34 37-34 59-83 11-24 17-52l6-34 1-17 1-1v-13l1-1v-56l-1-1v-15l-1-1v-9l-1-1-2-23-5-26q-6-27-16-49-11-25-27-44-26-32-67-47l-21-6-17-3h-7l-1-1-43-1Z"/>
<path stroke="#000" d="M226.5 74h15l10 3q10 5 16.5 13.5l11 21 6 25 1 16 1 1v17l1 1v47l-1 1v13l-1 1-1 15-6 27-10 23-9 12.5-17.5 11-12 3h-8l-10-2-8-4-10.5-9.5-7-11-7-22-1-12-1-1v-12l-1-1v-36l-1-5 1-1 1-44 1-1 1-15 4-21q3.9-16.1 11-29L207.5 83q7.1-6.9 19-9Zm5.5 6-10 2-11 7-9 11-10 24-6 30-1 19-1 1v17l-1 1v45l1 1 1 28 5 23 9 17q7 9 21 12 10 1 17-1l14-7 8-8 11-20 8-31 1-14 1-1v-11l1-1v-60l-1-1v-12l-1-1-1-15-6-23-10-18q-9-14-30-14Z"/></svg>