<svg xmlns="http://www.w3.org/2000/svg" version="1.1" xlink="http://www.w3.org/1999/xlink" xmlns:svgjs="http://svgjs.com/svgjs" 
width="100%" height="100%" viewBox="-9.956001889577237e-8 0.06992233544588089 60 59.92953872680664"><g fill="url(#SvgjsLinearGradient1000)">
<path d="M59.958 11.725c-.008-.028-.02-.054-.031-.081a.994.994 0 0 0-.082-.168.989.989 0 0 0-.055-.08.99.99 0 0 0-.127-.135c-.023-.02-.043-.042-.068-.06-.01-.007-.017-.017-.027-.024a.997.997 0 0 0-.222-.115L49.315 7.256a.914.914 0 0 0-.076-.026L30.71.2a2 2 0 0 0-1.419 0L10.496 7.328a.832.832 0 0 0-.081.027l-9.766 3.71H.645l-.002.001a1.007 1.007 0 0 0-.21.11c-.012.008-.02.019-.03.026-.023.017-.042.037-.063.056a.988.988 0 0 0-.132.14.982.982 0 0 0-.052.076.994.994 0 0 0-.084.173c-.01.026-.022.05-.03.078A.992.992 0 0 0 0 12v36a.999.999 0 0 0 .646.935l19.952 7.568.034.013 9.014 3.419c.008.003.017.001.026.004a.92.92 0 0 0 .656 0c.009-.003.018-.001.027-.004l9.014-3.42.033-.012 19.953-7.568A.999.999 0 0 0 60 48V12a.995.995 0 0 0-.042-.275zM40 42.152v-9.86l8-3.061v9.859zm8-.921v9.872l-8 3.034v-9.844zM19.98 5.87l7.058 2.691-6.389 2.436-7.061-2.703zm9.865 3.761l6.393 2.438-6.396 2.447-6.39-2.446zm16.408-1.395l-7.213 2.76-6.388-2.435 7.211-2.75zm9.93 3.765l-7.267 2.76-7.073-2.696 7.224-2.764zm-16.53 6.27l-7.012-2.684 6.4-2.45 7.055 2.69zm-2.81 1.065L30 21.93l-6.999-2.655 6.843-2.619zM20 20.276v9.876l-8-3.062v-9.848zm2 .759l7 2.655v9.907l-7-2.68zm7 14.702v9.86l-7-2.68v-9.859zm2-12.047l7-2.654v9.881l-7 2.68zm9-3.412l8-3.034v9.846l-8 3.062zm10-3.789l8-3.039v9.813l-8 3.062zm-22.955-.903l-6.855 2.623-6.437-2.442 6.896-2.63zM5.778 14.88L10 16.483v9.842l-8-3.062v-9.815zM2 25.403l8 3.062v9.86l-8-3.062zm10 3.828l8 3.062v9.859l-8-3.062zm8 15.062v9.844l-8-3.034V41.23zm2 .765l7 2.68v9.813l-7-2.655zm9-9.32l7-2.68v9.86l-7 2.679zm19-7.273l8-3.061v9.859l-8 3.062zM30 2.07l7.049 2.675-7.204 2.747-7.051-2.689zM10.774 9.36l7.073 2.706-6.909 2.635L3.818 12zM2 37.402l8 3.062v9.879L2 47.31zm29 10.334l7-2.679v9.838l-7 2.655zm19 2.607v-9.879l8-3.061v9.906z"></path>
</g><defs><linearGradient gradientUnits="userSpaceOnUse" id="SvgjsLinearGradient1000" x1="0.01761521873831384" y1="60.017076380550876" x2="59.982384582141634" y2="0.052307017147539256"><stop stop-color="#eb74c4" offset="0.05"></stop><stop stop-color="#c41c8c" offset="0.95"></stop></linearGradient></defs></svg>