<svg xmlns="http://www.w3.org/2000/svg" width="1200" height="1040" viewBox="0 0 1200 1040" role="img" aria-labelledby="asset-title asset-description">
	<title id="asset-title">The three Enneagram triads</title>
	<desc id="asset-description">The nine Enneagram types appear clockwise, starting with 9 at the top. Instinctual, anger triad: types 8, 9, 1. Intellectual, fear triad: types 7, 6, 5. Emotional, shame triad: types 2, 3, 4.</desc>
	<defs>
		<radialGradient id="stone-light" cx="50%" cy="43%" r="64%"><stop offset="0" stop-color="#241D17"/><stop offset="1" stop-color="#0A0807"/></radialGradient>
		<linearGradient id="center-stone" x1="0" y1="0" x2="0" y2="1"><stop stop-color="#241D17"/><stop offset="1" stop-color="#16110D"/></linearGradient>
		<linearGradient id="portrait-stone"><stop stop-color="#EDE6DA"/><stop offset="1" stop-color="#A8A095"/></linearGradient>
		<linearGradient id="portrait-marble"><stop stop-color="#FAF8F4"/><stop offset="1" stop-color="#EDE6DA"/></linearGradient>
		<marker id="personality-arrowhead" markerWidth="22" markerHeight="22" refX="20" refY="11" orient="auto" markerUnits="userSpaceOnUse"><path d="M1 1 L21 11 L1 21 Z" fill="#EDE6DA"/></marker>
	</defs>
	<rect width="1200" height="1040" rx="24" fill="url(#stone-light)"/>
	<g id="triad-overlays">
		<path d="M290.462,296.579 A365,365 0 0 1 909.538,296.579 L823.885,350.101 A264,264 0 0 0 376.115,350.101 Z" fill="#B45309" fill-opacity="1"/><path d="M294.724,291.751 A364,364 0 0 1 905.276,291.751" fill="none" stroke="#B45309" stroke-width="3" opacity="0.75"/><path d="M587.262,854.778 A365,365 0 0 1 277.724,318.643 L366.902,366.060 A264,264 0 0 0 590.787,753.839 Z" fill="#FBBF24" fill-opacity="1"/><path d="M580.950,853.501 A364,364 0 0 1 275.674,324.747" fill="none" stroke="#FBBF24" stroke-width="3" opacity="0.75"/><path d="M922.276,318.643 A365,365 0 0 1 612.738,854.778 L609.213,753.839 A264,264 0 0 0 833.098,366.060 Z" fill="#F59E0B" fill-opacity="1"/><path d="M924.326,324.747 A364,364 0 0 1 619.050,853.501" fill="none" stroke="#F59E0B" stroke-width="3" opacity="0.75"/>
	</g>
	
	<g id="type-numbers">
		<g id="type-1"><circle cx="799.2641590028272" cy="252.52622263311682" r="36" fill="#16110D" stroke="#B45309" stroke-width="2.4"/><g fill="#EDE6DA" role="img" aria-label="1"><title>1</title><path d="M798.855 236.242L805.720 236.242L805.720 267.526L799.317 267.526L799.317 241.890L799.107 241.890L791.947 246.950L791.947 241.092L798.855 236.242Z"/></g></g><g id="type-2"><circle cx="905.2904034337845" cy="436.1690649232516" r="36" fill="#16110D" stroke="#F59E0B" stroke-width="2.4"/><g fill="#EDE6DA" role="img" aria-label="2"><title>2</title><path d="M916.481 451.169L894.351 451.169L894.351 446.550L905.437 436.157Q907.558 434.078 908.702 432.535Q909.847 430.992 909.847 429.102L909.847 429.102Q909.847 427.003 908.471 425.795Q907.096 424.588 904.996 424.588L904.996 424.588Q902.813 424.588 901.501 425.890Q900.188 427.192 900.188 429.480L900.188 429.480L894.057 429.480Q894.057 426.436 895.454 424.179Q896.850 421.922 899.328 420.693Q901.805 419.465 905.038 419.465L905.038 419.465Q908.356 419.465 910.833 420.651Q913.311 421.838 914.686 423.916Q916.061 425.995 916.061 428.703L916.061 428.703Q916.061 430.446 915.379 432.147Q914.697 433.847 912.943 435.957Q911.190 438.068 907.978 441.007L907.978 441.007L903.254 445.668L903.254 445.899L916.481 445.899L916.481 451.169Z"/></g></g><g id="type-3"><circle cx="868.467875173176" cy="645" r="36" fill="#16110D" stroke="#F59E0B" stroke-width="2.4"/><g fill="#EDE6DA" role="img" aria-label="3"><title>3</title><path d="M868.426 660.420L868.426 660.420Q865.025 660.420 862.390 659.255Q859.754 658.089 858.232 656.011Q856.710 653.932 856.668 651.224L856.668 651.224L863.114 651.224Q863.198 652.987 864.710 654.048Q866.221 655.108 868.447 655.108L868.447 655.108Q870.756 655.108 872.226 653.922Q873.696 652.735 873.696 650.825L873.696 650.825Q873.696 648.893 872.142 647.665Q870.588 646.437 867.859 646.437L867.859 646.437L864.962 646.437L864.962 641.670L867.859 641.670Q870.148 641.670 871.586 640.516Q873.024 639.361 873.024 637.471L873.024 637.471Q873.024 635.666 871.775 634.542Q870.525 633.419 868.489 633.419L868.489 633.419Q866.452 633.419 864.972 634.490Q863.492 635.561 863.450 637.387L863.450 637.387L857.277 637.387Q857.319 634.721 858.810 632.663Q860.300 630.605 862.830 629.451Q865.360 628.296 868.531 628.296L868.531 628.296Q871.743 628.296 874.158 629.472Q876.572 630.647 877.906 632.642Q879.239 634.637 879.239 637.072L879.239 637.072Q879.239 639.718 877.612 641.471Q875.984 643.224 873.381 643.728L873.381 643.728L873.381 643.959Q876.803 644.400 878.588 646.363Q880.373 648.326 880.373 651.245L880.373 651.245Q880.373 653.911 878.840 655.979Q877.307 658.047 874.609 659.234Q871.911 660.420 868.426 660.420Z"/></g></g><g id="type-4"><circle cx="706.0262444309574" cy="781.3047124436316" r="36" fill="#16110D" stroke="#F59E0B" stroke-width="2.4"/><g fill="#EDE6DA" role="img" aria-label="4"><title>4</title><path d="M708.577 790.741L693.607 790.741L693.607 785.681L706.688 765.021L714.729 765.021L714.729 785.576L718.634 785.576L718.634 790.741L714.729 790.741L714.729 796.305L708.577 796.305L708.577 790.741ZM700.074 785.576L708.703 785.576L708.703 772.075L708.451 772.075L700.074 785.324L700.074 785.576Z"/></g></g><g id="type-5"><circle cx="493.9737555690427" cy="781.3047124436316" r="36" fill="#16110D" stroke="#FBBF24" stroke-width="2.4"/><g fill="#EDE6DA" role="img" aria-label="5"><title>5</title><path d="M493.785 796.725L493.785 796.725Q490.572 796.725 488.063 795.538Q485.554 794.352 484.095 792.273Q482.636 790.195 482.552 787.528L482.552 787.528L488.809 787.528Q488.893 789.355 490.341 790.499Q491.790 791.644 493.785 791.644L493.785 791.644Q496.136 791.644 497.648 790.090Q499.160 788.536 499.160 786.059L499.160 786.059Q499.160 783.560 497.617 781.975Q496.073 780.390 493.680 780.390L493.680 780.390Q492.273 780.390 490.982 780.957Q489.691 781.523 488.977 782.447L488.977 782.447L483.224 781.439L484.714 765.021L503.653 765.021L503.653 770.312L490.026 770.312L489.229 778.227L489.397 778.227Q490.236 777.093 491.885 776.358Q493.533 775.624 495.548 775.624L495.548 775.624Q498.383 775.624 500.598 776.946Q502.813 778.269 504.094 780.589Q505.375 782.909 505.375 785.912L505.375 785.912Q505.375 789.061 503.915 791.497Q502.456 793.932 499.842 795.328Q497.228 796.725 493.785 796.725Z"/></g></g><g id="type-6"><circle cx="331.532124826824" cy="645" r="36" fill="#16110D" stroke="#FBBF24" stroke-width="2.4"/><g fill="#EDE6DA" role="img" aria-label="6"><title>6</title><path d="M331.931 660.420L331.931 660.420Q329.537 660.420 327.322 659.622Q325.107 658.824 323.354 657.050Q321.601 655.276 320.572 652.336Q319.543 649.397 319.543 645.093L319.543 645.093Q319.543 639.844 321.097 636.075Q322.651 632.306 325.485 630.301Q328.320 628.296 332.162 628.296L332.162 628.296Q335.248 628.296 337.621 629.493Q339.994 630.689 341.442 632.758Q342.891 634.826 343.206 637.387L343.206 637.387L336.907 637.387Q336.508 635.729 335.259 634.773Q334.010 633.818 332.162 633.818L332.162 633.818Q329.076 633.818 327.459 636.505Q325.842 639.193 325.842 643.812L325.842 643.812L326.052 643.812Q327.102 641.775 329.223 640.610Q331.343 639.445 333.905 639.445L333.905 639.445Q336.655 639.445 338.839 640.747Q341.022 642.048 342.282 644.326Q343.542 646.604 343.542 649.544L343.542 649.544Q343.542 652.714 342.072 655.171Q340.602 657.627 337.988 659.024Q335.374 660.420 331.931 660.420ZM331.889 655.339L331.889 655.339Q334.199 655.339 335.752 653.722Q337.306 652.105 337.306 649.712L337.306 649.712Q337.306 647.360 335.784 645.744Q334.262 644.127 331.931 644.127L331.931 644.127Q330.398 644.127 329.160 644.893Q327.921 645.660 327.207 646.930Q326.493 648.200 326.493 649.733L326.493 649.733Q326.493 651.266 327.196 652.546Q327.900 653.827 329.118 654.583Q330.335 655.339 331.889 655.339Z"/></g></g><g id="type-7"><circle cx="294.7095965662155" cy="436.16906492325154" r="36" fill="#16110D" stroke="#FBBF24" stroke-width="2.4"/><g fill="#EDE6DA" role="img" aria-label="7"><title>7</title><path d="M292.578 451.169L285.923 451.169L298.940 425.386L298.940 425.176L283.781 425.176L283.781 419.885L305.638 419.885L305.638 425.260L292.578 451.169Z"/></g></g><g id="type-8"><circle cx="400.7358409971728" cy="252.52622263311684" r="36" fill="#16110D" stroke="#B45309" stroke-width="2.4"/><g fill="#EDE6DA" role="img" aria-label="8"><title>8</title><path d="M400.725 267.946L400.725 267.946Q397.219 267.946 394.510 266.802Q391.802 265.658 390.259 263.663Q388.716 261.668 388.716 259.128L388.716 259.128Q388.716 257.175 389.597 255.527Q390.479 253.879 392.012 252.776Q393.545 251.674 395.455 251.359L395.455 251.359L395.455 251.170Q392.957 250.645 391.403 248.714Q389.849 246.782 389.849 244.221L389.849 244.221Q389.849 241.806 391.256 239.906Q392.663 238.006 395.119 236.914Q397.576 235.822 400.725 235.822L400.725 235.822Q403.854 235.822 406.321 236.914Q408.788 238.006 410.205 239.906Q411.622 241.806 411.622 244.221L411.622 244.221Q411.622 246.782 410.048 248.714Q408.473 250.645 406.037 251.170L406.037 251.170L406.037 251.359Q407.906 251.674 409.428 252.776Q410.950 253.879 411.864 255.527Q412.777 257.175 412.777 259.128L412.777 259.128Q412.777 261.668 411.223 263.663Q409.670 265.658 406.951 266.802Q404.232 267.946 400.725 267.946ZM400.725 263.201L400.725 263.201Q403.119 263.201 404.599 261.931Q406.079 260.660 406.079 258.624L406.079 258.624Q406.079 256.545 404.557 255.212Q403.035 253.879 400.725 253.879L400.725 253.879Q398.395 253.879 396.883 255.212Q395.371 256.545 395.371 258.624L395.371 258.624Q395.371 260.640 396.841 261.920Q398.311 263.201 400.725 263.201ZM400.725 249.176L400.725 249.176Q402.720 249.176 404.032 247.979Q405.344 246.782 405.344 244.913L405.344 244.913Q405.344 243.045 404.053 241.879Q402.762 240.714 400.725 240.714L400.725 240.714Q398.689 240.714 397.397 241.869Q396.106 243.024 396.106 244.913L396.106 244.913Q396.106 246.782 397.408 247.979Q398.710 249.176 400.725 249.176Z"/></g></g><g id="type-9"><circle cx="600" cy="180" r="36" fill="#16110D" stroke="#B45309" stroke-width="2.4"/><g fill="#EDE6DA" role="img" aria-label="9"><title>9</title><path d="M599.391 195.462L599.391 195.462Q596.305 195.462 593.922 194.244Q591.539 193.026 590.090 190.948Q588.641 188.869 588.326 186.287L588.326 186.287L594.667 186.287Q595.045 187.966 596.284 188.953Q597.522 189.940 599.391 189.940L599.391 189.940Q602.478 189.940 604.105 187.231Q605.732 184.523 605.732 179.883L605.732 179.883L605.522 179.883Q604.451 181.919 602.341 183.095Q600.231 184.271 597.669 184.271L597.669 184.271Q594.877 184.271 592.704 182.969Q590.531 181.667 589.271 179.379Q588.011 177.090 588.011 174.151L588.011 174.151Q588.011 171.001 589.481 168.524Q590.951 166.046 593.565 164.640Q596.179 163.233 599.664 163.254L599.664 163.254Q602.016 163.275 604.231 164.073Q606.446 164.871 608.199 166.655Q609.952 168.440 610.981 171.369Q612.010 174.298 612.010 178.602L612.010 178.602Q612.010 183.872 610.456 187.651Q608.902 191.431 606.068 193.446Q603.233 195.462 599.391 195.462ZM599.622 179.568L599.622 179.568Q601.155 179.568 602.394 178.802Q603.632 178.035 604.357 176.765Q605.081 175.495 605.081 173.941L605.081 173.941Q605.081 172.429 604.378 171.169Q603.674 169.910 602.457 169.143Q601.239 168.377 599.664 168.377L599.664 168.377Q598.131 168.377 596.903 169.122Q595.675 169.868 594.961 171.138Q594.247 172.408 594.247 173.983L594.247 173.983Q594.247 176.355 595.769 177.962Q597.292 179.568 599.622 179.568Z"/></g></g>
	</g>
	
	<g id="triad-labels"><g id="label-instinctual">
		<g fill="#FAF8F4" role="img" aria-label="Instinctual"><title>Instinctual</title><path d="M494.580 25.443L500.834 25.443L500.834 56L494.580 56L494.580 25.443ZM512.380 42.731L512.380 42.731L512.380 56L506.228 56L506.228 33.072L512.032 33.072L512.114 37.810Q513.078 35.410 514.841 34.098Q516.605 32.785 519.250 32.785L519.250 32.785Q522.819 32.785 524.972 35.082Q527.125 37.379 527.125 41.419L527.125 41.419L527.125 56L520.973 56L520.973 42.485Q520.973 40.353 519.876 39.143Q518.779 37.933 516.831 37.933L516.831 37.933Q514.862 37.933 513.621 39.194Q512.380 40.455 512.380 42.731ZM541.481 56.451L541.481 56.451Q537.338 56.451 534.642 54.688Q531.945 52.924 531.350 49.725L531.350 49.725L537.072 48.740Q537.954 51.939 541.666 51.939L541.666 51.939Q543.429 51.939 544.444 51.273Q545.459 50.606 545.459 49.581L545.459 49.581Q545.459 47.838 542.506 47.223L542.506 47.223L538.548 46.402Q531.945 45.049 531.945 39.901L531.945 39.901Q531.945 36.600 534.590 34.692Q537.236 32.785 541.583 32.785L541.583 32.785Q545.665 32.785 548.084 34.446Q550.504 36.107 551.140 38.896L551.140 38.896L545.685 39.860Q545.316 38.691 544.332 37.943Q543.347 37.194 541.666 37.194L541.666 37.194Q540.148 37.194 539.123 37.840Q538.097 38.486 538.097 39.512L538.097 39.512Q538.097 40.373 538.764 40.978Q539.430 41.583 541.050 41.911L541.050 41.911L545.172 42.731Q551.735 44.064 551.735 48.925L551.735 48.925Q551.735 51.181 550.422 52.873Q549.110 54.564 546.792 55.508Q544.475 56.451 541.481 56.451ZM562.994 33.072L567.280 33.072L567.280 37.769L562.994 37.769L562.994 49.294Q562.994 51.427 565.085 51.427L565.085 51.427Q565.434 51.427 566.060 51.334Q566.685 51.242 567.034 51.160L567.034 51.160L567.916 55.774Q566.890 56.082 565.875 56.205Q564.860 56.328 563.937 56.328L563.937 56.328Q560.492 56.328 558.667 54.657Q556.841 52.985 556.841 49.827L556.841 49.827L556.841 37.769L553.683 37.769L553.683 33.072L556.841 33.072L556.841 27.617L562.994 27.617L562.994 33.072ZM577.431 56L571.279 56L571.279 33.072L577.431 33.072L577.431 56ZM574.355 30.078L574.355 30.078Q572.960 30.078 571.976 29.155Q570.992 28.232 570.992 26.920L570.992 26.920Q570.992 25.607 571.976 24.685Q572.960 23.762 574.355 23.762L574.355 23.762Q575.750 23.762 576.744 24.685Q577.739 25.607 577.739 26.920L577.739 26.920Q577.739 28.232 576.744 29.155Q575.750 30.078 574.355 30.078ZM588.813 42.731L588.813 42.731L588.813 56L582.661 56L582.661 33.072L588.464 33.072L588.546 37.810Q589.510 35.410 591.274 34.098Q593.038 32.785 595.683 32.785L595.683 32.785Q599.251 32.785 601.405 35.082Q603.558 37.379 603.558 41.419L603.558 41.419L603.558 56L597.406 56L597.406 42.485Q597.406 40.353 596.309 39.143Q595.211 37.933 593.263 37.933L593.263 37.933Q591.294 37.933 590.054 39.194Q588.813 40.455 588.813 42.731ZM619.062 56.451L619.062 56.451Q615.596 56.451 613.084 54.964Q610.572 53.478 609.208 50.822Q607.844 48.166 607.844 44.639L607.844 44.639Q607.844 41.091 609.208 38.425Q610.572 35.759 613.084 34.272Q615.596 32.785 619.062 32.785L619.062 32.785Q623.143 32.785 625.871 34.826Q628.598 36.866 629.254 40.414L629.254 40.414L623.533 41.480Q623.143 39.696 622.025 38.661Q620.908 37.625 619.124 37.625L619.124 37.625Q616.663 37.625 615.391 39.563Q614.120 41.501 614.120 44.618L614.120 44.618Q614.120 47.694 615.391 49.653Q616.663 51.611 619.124 51.611L619.124 51.611Q620.908 51.611 622.056 50.535Q623.205 49.458 623.574 47.612L623.574 47.612L629.295 48.658Q628.639 52.288 625.912 54.370Q623.184 56.451 619.062 56.451ZM640.616 33.072L644.902 33.072L644.902 37.769L640.616 37.769L640.616 49.294Q640.616 51.427 642.708 51.427L642.708 51.427Q643.056 51.427 643.682 51.334Q644.307 51.242 644.656 51.160L644.656 51.160L645.538 55.774Q644.512 56.082 643.497 56.205Q642.482 56.328 641.559 56.328L641.559 56.328Q638.114 56.328 636.289 54.657Q634.463 52.985 634.463 49.827L634.463 49.827L634.463 37.769L631.305 37.769L631.305 33.072L634.463 33.072L634.463 27.617L640.616 27.617L640.616 33.072ZM656.796 56.287L656.796 56.287Q653.228 56.287 651.064 53.990Q648.901 51.693 648.901 47.653L648.901 47.653L648.901 33.072L655.053 33.072L655.053 46.587Q655.053 48.720 656.161 49.930Q657.268 51.140 659.196 51.140L659.196 51.140Q661.165 51.140 662.405 49.878Q663.646 48.617 663.646 46.341L663.646 46.341L663.646 33.072L669.819 33.072L669.819 56L663.995 56L663.913 51.242Q662.949 53.683 661.175 54.985Q659.401 56.287 656.796 56.287ZM681.447 56.451L681.447 56.451Q678.166 56.451 675.992 54.718Q673.818 52.985 673.818 49.581L673.818 49.581Q673.818 47.018 675.048 45.562Q676.279 44.105 678.248 43.429Q680.216 42.752 682.472 42.547L682.472 42.547Q685.425 42.260 686.728 41.942Q688.030 41.624 688.030 40.496L688.030 40.496L688.030 40.394Q688.030 38.938 687.097 38.138Q686.164 37.338 684.441 37.338L684.441 37.338Q682.657 37.338 681.570 38.107Q680.483 38.876 680.114 39.983L680.114 39.983L674.474 39.040Q675.356 36.066 677.991 34.426Q680.626 32.785 684.461 32.785L684.461 32.785Q686.922 32.785 689.147 33.564Q691.373 34.344 692.777 36.056Q694.182 37.769 694.182 40.558L694.182 40.558L694.182 56L688.358 56L688.358 52.821L688.153 52.821Q687.312 54.421 685.651 55.436Q683.990 56.451 681.447 56.451ZM683.190 52.124L683.190 52.124Q685.343 52.124 686.707 50.873Q688.071 49.622 688.071 47.797L688.071 47.797L688.071 45.315Q687.702 45.582 686.871 45.777Q686.041 45.972 685.118 46.125Q684.195 46.279 683.518 46.361L683.518 46.361Q681.816 46.607 680.770 47.325Q679.724 48.043 679.724 49.417L679.724 49.417Q679.724 50.750 680.698 51.437Q681.672 52.124 683.190 52.124ZM699.432 25.443L705.584 25.443L705.584 56L699.432 56L699.432 25.443Z"/></g>
		<g fill="#EDE6DA" role="img" aria-label="ANGER TRIAD"><title>ANGER TRIAD</title><path d="M518.972 92L516.332 92L520.796 74.480L524.204 74.480L528.668 92L526.052 92L524.996 87.560L520.028 87.560L518.972 92ZM521.708 80.336L520.508 85.424L524.492 85.424L523.292 80.360Q522.980 79.016 522.776 78.020Q522.572 77.024 522.500 76.664L522.500 76.664Q522.428 77.024 522.236 78.020Q522.044 79.016 521.708 80.336L521.708 80.336ZM535.044 92L532.644 92L532.644 74.480L535.908 74.480L541.020 89.048Q540.972 88.352 540.900 87.392Q540.828 86.432 540.792 85.400Q540.756 84.368 540.756 83.528L540.756 83.528L540.756 74.480L543.156 74.480L543.156 92L539.892 92L534.804 77.432Q534.852 78.056 534.912 78.992Q534.972 79.928 535.008 80.936Q535.044 81.944 535.044 82.808L535.044 82.808L535.044 92ZM553.396 92.240L553.396 92.240Q551.764 92.240 550.552 91.628Q549.340 91.016 548.680 89.852Q548.020 88.688 548.020 87.128L548.020 87.128L548.020 79.352Q548.020 77.768 548.680 76.616Q549.340 75.464 550.552 74.852Q551.764 74.240 553.396 74.240L553.396 74.240Q555.028 74.240 556.228 74.864Q557.428 75.488 558.088 76.628Q558.748 77.768 558.748 79.352L558.748 79.352L556.156 79.352Q556.156 77.984 555.436 77.264Q554.716 76.544 553.396 76.544L553.396 76.544Q552.076 76.544 551.344 77.264Q550.612 77.984 550.612 79.328L550.612 79.328L550.612 87.128Q550.612 88.472 551.344 89.216Q552.076 89.960 553.396 89.960L553.396 89.960Q554.716 89.960 555.436 89.216Q556.156 88.472 556.156 87.128L556.156 87.128L556.156 85.160L552.892 85.160L552.892 82.880L558.748 82.880L558.748 87.128Q558.748 88.688 558.088 89.840Q557.428 90.992 556.228 91.616Q555.028 92.240 553.396 92.240ZM574.052 92L563.756 92L563.756 74.480L574.052 74.480L574.052 76.784L566.300 76.784L566.300 81.752L573.212 81.752L573.212 84.032L566.300 84.032L566.300 89.696L574.052 89.696L574.052 92ZM581.508 92L578.916 92L578.916 74.480L584.412 74.480Q586.068 74.480 587.292 75.116Q588.516 75.752 589.200 76.904Q589.884 78.056 589.884 79.616L589.884 79.616Q589.884 81.368 588.984 82.652Q588.084 83.936 586.548 84.464L586.548 84.464L590.124 92L587.172 92L583.980 84.800L581.508 84.800L581.508 92ZM581.508 76.784L581.508 82.520L584.412 82.520Q585.708 82.520 586.476 81.740Q587.244 80.960 587.244 79.664L587.244 79.664Q587.244 78.320 586.476 77.552Q585.708 76.784 584.412 76.784L584.412 76.784L581.508 76.784ZM616.196 92L613.604 92L613.604 76.856L608.924 76.856L608.924 74.456L620.876 74.456L620.876 76.856L616.196 76.856L616.196 92ZM627.708 92L625.116 92L625.116 74.480L630.612 74.480Q632.268 74.480 633.492 75.116Q634.716 75.752 635.400 76.904Q636.084 78.056 636.084 79.616L636.084 79.616Q636.084 81.368 635.184 82.652Q634.284 83.936 632.748 84.464L632.748 84.464L636.324 92L633.372 92L630.180 84.800L627.708 84.800L627.708 92ZM627.708 76.784L627.708 82.520L630.612 82.520Q631.908 82.520 632.676 81.740Q633.444 80.960 633.444 79.664L633.444 79.664Q633.444 78.320 632.676 77.552Q631.908 76.784 630.612 76.784L630.612 76.784L627.708 76.784ZM650.548 92L640.852 92L640.852 89.696L644.380 89.696L644.380 76.784L640.852 76.784L640.852 74.480L650.548 74.480L650.548 76.784L647.020 76.784L647.020 89.696L650.548 89.696L650.548 92ZM657.572 92L654.932 92L659.396 74.480L662.804 74.480L667.268 92L664.652 92L663.596 87.560L658.628 87.560L657.572 92ZM660.308 80.336L659.108 85.424L663.092 85.424L661.892 80.360Q661.580 79.016 661.376 78.020Q661.172 77.024 661.100 76.664L661.100 76.664Q661.028 77.024 660.836 78.020Q660.644 79.016 660.308 80.336L660.308 80.336ZM676.188 92L671.292 92L671.292 74.480L676.188 74.480Q677.916 74.480 679.188 75.140Q680.460 75.800 681.168 77Q681.876 78.200 681.876 79.832L681.876 79.832L681.876 86.624Q681.876 88.232 681.168 89.456Q680.460 90.680 679.188 91.340Q677.916 92 676.188 92L676.188 92ZM673.884 76.832L673.884 89.648L676.188 89.648Q677.628 89.648 678.456 88.844Q679.284 88.040 679.284 86.624L679.284 86.624L679.284 79.832Q679.284 78.440 678.456 77.636Q677.628 76.832 676.188 76.832L676.188 76.832L673.884 76.832Z"/></g>
	</g><g id="label-intellectual">
		<g fill="#FAF8F4" role="img" aria-label="Intellectual"><title>Intellectual</title><path d="M178.704 889.443L184.959 889.443L184.959 920L178.704 920L178.704 889.443ZM196.505 906.731L196.505 906.731L196.505 920L190.353 920L190.353 897.072L196.156 897.072L196.238 901.810Q197.202 899.410 198.966 898.098Q200.729 896.785 203.375 896.785L203.375 896.785Q206.943 896.785 209.097 899.082Q211.250 901.379 211.250 905.419L211.250 905.419L211.250 920L205.098 920L205.098 906.485Q205.098 904.353 204.000 903.143Q202.903 901.933 200.955 901.933L200.955 901.933Q198.986 901.933 197.746 903.194Q196.505 904.455 196.505 906.731ZM223.596 897.072L227.882 897.072L227.882 901.769L223.596 901.769L223.596 913.294Q223.596 915.427 225.688 915.427L225.688 915.427Q226.036 915.427 226.662 915.334Q227.287 915.242 227.636 915.160L227.636 915.160L228.518 919.774Q227.492 920.082 226.477 920.205Q225.462 920.328 224.539 920.328L224.539 920.328Q221.094 920.328 219.269 918.657Q217.443 916.985 217.443 913.827L217.443 913.827L217.443 901.769L214.285 901.769L214.285 897.072L217.443 897.072L217.443 891.617L223.596 891.617L223.596 897.072ZM242.237 920.451L242.237 920.451Q238.730 920.451 236.188 919.016Q233.645 917.580 232.281 914.935Q230.917 912.289 230.917 908.659L230.917 908.659Q230.917 905.111 232.281 902.445Q233.645 899.779 236.116 898.282Q238.587 896.785 241.930 896.785L241.930 896.785Q244.924 896.785 247.364 898.057Q249.805 899.328 251.250 901.912Q252.696 904.496 252.696 908.413L252.696 908.413L252.696 910.136L237.008 910.136Q237.110 912.945 238.566 914.381Q240.022 915.816 242.340 915.816L242.340 915.816Q243.960 915.816 245.119 915.129Q246.277 914.442 246.770 913.109L246.770 913.109L252.348 914.155Q251.507 917.006 248.872 918.729Q246.236 920.451 242.237 920.451ZM237.049 906.280L237.049 906.280L246.770 906.280Q246.544 904.045 245.334 902.732Q244.124 901.420 241.991 901.420L241.991 901.420Q239.776 901.420 238.505 902.784Q237.233 904.147 237.049 906.280ZM256.900 889.443L263.053 889.443L263.053 920L256.900 920L256.900 889.443ZM268.282 889.443L274.435 889.443L274.435 920L268.282 920L268.282 889.443ZM290.021 920.451L290.021 920.451Q286.514 920.451 283.971 919.016Q281.428 917.580 280.064 914.935Q278.700 912.289 278.700 908.659L278.700 908.659Q278.700 905.111 280.064 902.445Q281.428 899.779 283.899 898.282Q286.370 896.785 289.713 896.785L289.713 896.785Q292.707 896.785 295.147 898.057Q297.588 899.328 299.034 901.912Q300.479 904.496 300.479 908.413L300.479 908.413L300.479 910.136L284.791 910.136Q284.894 912.945 286.350 914.381Q287.806 915.816 290.123 915.816L290.123 915.816Q291.743 915.816 292.902 915.129Q294.061 914.442 294.553 913.109L294.553 913.109L300.131 914.155Q299.290 917.006 296.655 918.729Q294.020 920.451 290.021 920.451ZM284.832 906.280L284.832 906.280L294.553 906.280Q294.327 904.045 293.117 902.732Q291.907 901.420 289.774 901.420L289.774 901.420Q287.560 901.420 286.288 902.784Q285.017 904.147 284.832 906.280ZM314.938 920.451L314.938 920.451Q311.472 920.451 308.959 918.964Q306.447 917.478 305.083 914.822Q303.720 912.166 303.720 908.639L303.720 908.639Q303.720 905.091 305.083 902.425Q306.447 899.759 308.959 898.272Q311.472 896.785 314.938 896.785L314.938 896.785Q319.019 896.785 321.746 898.826Q324.474 900.866 325.130 904.414L325.130 904.414L319.408 905.480Q319.019 903.696 317.901 902.661Q316.783 901.625 314.999 901.625L314.999 901.625Q312.538 901.625 311.267 903.563Q309.995 905.501 309.995 908.618L309.995 908.618Q309.995 911.694 311.267 913.653Q312.538 915.611 314.999 915.611L314.999 915.611Q316.783 915.611 317.932 914.535Q319.080 913.458 319.449 911.612L319.449 911.612L325.171 912.658Q324.515 916.288 321.787 918.370Q319.060 920.451 314.938 920.451ZM336.491 897.072L340.777 897.072L340.777 901.769L336.491 901.769L336.491 913.294Q336.491 915.427 338.583 915.427L338.583 915.427Q338.932 915.427 339.557 915.334Q340.183 915.242 340.531 915.160L340.531 915.160L341.413 919.774Q340.388 920.082 339.373 920.205Q338.357 920.328 337.435 920.328L337.435 920.328Q333.989 920.328 332.164 918.657Q330.339 916.985 330.339 913.827L330.339 913.827L330.339 901.769L327.181 901.769L327.181 897.072L330.339 897.072L330.339 891.617L336.491 891.617L336.491 897.072ZM352.672 920.287L352.672 920.287Q349.104 920.287 346.940 917.990Q344.776 915.693 344.776 911.653L344.776 911.653L344.776 897.072L350.929 897.072L350.929 910.587Q350.929 912.720 352.036 913.930Q353.144 915.140 355.071 915.140L355.071 915.140Q357.040 915.140 358.281 913.878Q359.521 912.617 359.521 910.341L359.521 910.341L359.521 897.072L365.694 897.072L365.694 920L359.870 920L359.788 915.242Q358.824 917.683 357.050 918.985Q355.276 920.287 352.672 920.287ZM377.322 920.451L377.322 920.451Q374.041 920.451 371.867 918.718Q369.693 916.985 369.693 913.581L369.693 913.581Q369.693 911.018 370.924 909.562Q372.154 908.105 374.123 907.429Q376.092 906.752 378.348 906.547L378.348 906.547Q381.301 906.260 382.603 905.942Q383.905 905.624 383.905 904.496L383.905 904.496L383.905 904.394Q383.905 902.938 382.972 902.138Q382.039 901.338 380.316 901.338L380.316 901.338Q378.532 901.338 377.445 902.107Q376.358 902.876 375.989 903.983L375.989 903.983L370.350 903.040Q371.231 900.066 373.867 898.426Q376.502 896.785 380.337 896.785L380.337 896.785Q382.798 896.785 385.023 897.564Q387.248 898.344 388.653 900.056Q390.058 901.769 390.058 904.558L390.058 904.558L390.058 920L384.233 920L384.233 916.821L384.028 916.821Q383.188 918.421 381.526 919.436Q379.865 920.451 377.322 920.451ZM379.065 916.124L379.065 916.124Q381.219 916.124 382.583 914.873Q383.946 913.622 383.946 911.797L383.946 911.797L383.946 909.315Q383.577 909.582 382.747 909.777Q381.916 909.972 380.993 910.125Q380.070 910.279 379.394 910.361L379.394 910.361Q377.691 910.607 376.646 911.325Q375.600 912.043 375.600 913.417L375.600 913.417Q375.600 914.750 376.574 915.437Q377.548 916.124 379.065 916.124ZM395.308 889.443L401.460 889.443L401.460 920L395.308 920L395.308 889.443Z"/></g>
		<g fill="#EDE6DA" role="img" aria-label="FEAR TRIAD"><title>FEAR TRIAD</title><path d="M217.680 956L215.112 956L215.112 938.456L225.696 938.456L225.696 940.856L217.632 940.856L217.632 946.088L225.072 946.088L225.072 948.488L217.680 948.488L217.680 956ZM240.952 956L230.656 956L230.656 938.480L240.952 938.480L240.952 940.784L233.200 940.784L233.200 945.752L240.112 945.752L240.112 948.032L233.200 948.032L233.200 953.696L240.952 953.696L240.952 956ZM247.472 956L244.832 956L249.296 938.480L252.704 938.480L257.168 956L254.552 956L253.496 951.560L248.528 951.560L247.472 956ZM250.208 944.336L249.008 949.424L252.992 949.424L251.792 944.360Q251.480 943.016 251.276 942.020Q251.072 941.024 251 940.664L251 940.664Q250.928 941.024 250.736 942.020Q250.544 943.016 250.208 944.336L250.208 944.336ZM263.808 956L261.216 956L261.216 938.480L266.712 938.480Q268.368 938.480 269.592 939.116Q270.816 939.752 271.500 940.904Q272.184 942.056 272.184 943.616L272.184 943.616Q272.184 945.368 271.284 946.652Q270.384 947.936 268.848 948.464L268.848 948.464L272.424 956L269.472 956L266.280 948.800L263.808 948.800L263.808 956ZM263.808 940.784L263.808 946.520L266.712 946.520Q268.008 946.520 268.776 945.740Q269.544 944.960 269.544 943.664L269.544 943.664Q269.544 942.320 268.776 941.552Q268.008 940.784 266.712 940.784L266.712 940.784L263.808 940.784ZM298.496 956L295.904 956L295.904 940.856L291.224 940.856L291.224 938.456L303.176 938.456L303.176 940.856L298.496 940.856L298.496 956ZM310.008 956L307.416 956L307.416 938.480L312.912 938.480Q314.568 938.480 315.792 939.116Q317.016 939.752 317.700 940.904Q318.384 942.056 318.384 943.616L318.384 943.616Q318.384 945.368 317.484 946.652Q316.584 947.936 315.048 948.464L315.048 948.464L318.624 956L315.672 956L312.480 948.800L310.008 948.800L310.008 956ZM310.008 940.784L310.008 946.520L312.912 946.520Q314.208 946.520 314.976 945.740Q315.744 944.960 315.744 943.664L315.744 943.664Q315.744 942.320 314.976 941.552Q314.208 940.784 312.912 940.784L312.912 940.784L310.008 940.784ZM332.848 956L323.152 956L323.152 953.696L326.680 953.696L326.680 940.784L323.152 940.784L323.152 938.480L332.848 938.480L332.848 940.784L329.320 940.784L329.320 953.696L332.848 953.696L332.848 956ZM339.872 956L337.232 956L341.696 938.480L345.104 938.480L349.568 956L346.952 956L345.896 951.560L340.928 951.560L339.872 956ZM342.608 944.336L341.408 949.424L345.392 949.424L344.192 944.360Q343.880 943.016 343.676 942.020Q343.472 941.024 343.400 940.664L343.400 940.664Q343.328 941.024 343.136 942.020Q342.944 943.016 342.608 944.336L342.608 944.336ZM358.488 956L353.592 956L353.592 938.480L358.488 938.480Q360.216 938.480 361.488 939.140Q362.760 939.800 363.468 941Q364.176 942.200 364.176 943.832L364.176 943.832L364.176 950.624Q364.176 952.232 363.468 953.456Q362.760 954.680 361.488 955.340Q360.216 956 358.488 956L358.488 956ZM356.184 940.832L356.184 953.648L358.488 953.648Q359.928 953.648 360.756 952.844Q361.584 952.040 361.584 950.624L361.584 950.624L361.584 943.832Q361.584 942.440 360.756 941.636Q359.928 940.832 358.488 940.832L358.488 940.832L356.184 940.832Z"/></g>
	</g><g id="label-emotional">
		<g fill="#FAF8F4" role="img" aria-label="Emotional"><title>Emotional</title><path d="M831.240 920L810.752 920L810.752 889.443L831.199 889.443L831.199 894.632L817.007 894.632L817.007 902.015L830.132 902.015L830.132 907.121L817.007 907.121L817.007 914.812L831.240 914.812L831.240 920ZM842.273 920L836.121 920L836.121 897.072L841.822 897.072L842.068 901.522Q842.991 899.021 844.775 897.872Q846.559 896.724 848.610 896.724L848.610 896.724Q852.958 896.724 854.516 901.871L854.516 901.871Q855.480 899.226 857.500 897.975Q859.520 896.724 861.878 896.724L861.878 896.724Q865.037 896.724 867.118 898.764Q869.200 900.805 869.200 904.537L869.200 904.537L869.200 920L863.047 920L863.047 905.706Q863.047 903.778 861.991 902.825Q860.935 901.871 859.397 901.871L859.397 901.871Q857.654 901.871 856.639 902.979Q855.624 904.086 855.624 905.891L855.624 905.891L855.624 920L849.676 920L849.676 905.542Q849.676 903.860 848.682 902.866Q847.687 901.871 846.108 901.871L846.108 901.871Q844.488 901.871 843.380 902.968Q842.273 904.065 842.273 906.137L842.273 906.137L842.273 920ZM884.704 920.451L884.704 920.451Q881.258 920.451 878.736 918.964Q876.213 917.478 874.850 914.822Q873.486 912.166 873.486 908.639L873.486 908.639Q873.486 905.091 874.850 902.425Q876.213 899.759 878.736 898.272Q881.258 896.785 884.704 896.785L884.704 896.785Q888.149 896.785 890.671 898.272Q893.194 899.759 894.558 902.425Q895.921 905.091 895.921 908.639L895.921 908.639Q895.921 912.166 894.558 914.822Q893.194 917.478 890.671 918.964Q888.149 920.451 884.704 920.451ZM884.704 915.611L884.704 915.611Q887.165 915.611 888.416 913.622Q889.667 911.633 889.667 908.618L889.667 908.618Q889.667 905.583 888.416 903.604Q887.165 901.625 884.704 901.625L884.704 901.625Q882.243 901.625 881.002 903.604Q879.761 905.583 879.761 908.618L879.761 908.618Q879.761 911.633 881.002 913.622Q882.243 915.611 884.704 915.611ZM907.303 897.072L911.589 897.072L911.589 901.769L907.303 901.769L907.303 913.294Q907.303 915.427 909.395 915.427L909.395 915.427Q909.744 915.427 910.369 915.334Q910.995 915.242 911.343 915.160L911.343 915.160L912.225 919.774Q911.200 920.082 910.185 920.205Q909.169 920.328 908.247 920.328L908.247 920.328Q904.801 920.328 902.976 918.657Q901.151 916.985 901.151 913.827L901.151 913.827L901.151 901.769L897.993 901.769L897.993 897.072L901.151 897.072L901.151 891.617L907.303 891.617L907.303 897.072ZM921.741 920L915.588 920L915.588 897.072L921.741 897.072L921.741 920ZM918.665 894.078L918.665 894.078Q917.270 894.078 916.286 893.155Q915.301 892.232 915.301 890.920L915.301 890.920Q915.301 889.607 916.286 888.685Q917.270 887.762 918.665 887.762L918.665 887.762Q920.059 887.762 921.054 888.685Q922.048 889.607 922.048 890.920L922.048 890.920Q922.048 892.232 921.054 893.155Q920.059 894.078 918.665 894.078ZM937.224 920.451L937.224 920.451Q933.779 920.451 931.256 918.964Q928.734 917.478 927.370 914.822Q926.006 912.166 926.006 908.639L926.006 908.639Q926.006 905.091 927.370 902.425Q928.734 899.759 931.256 898.272Q933.779 896.785 937.224 896.785L937.224 896.785Q940.669 896.785 943.192 898.272Q945.714 899.759 947.078 902.425Q948.442 905.091 948.442 908.639L948.442 908.639Q948.442 912.166 947.078 914.822Q945.714 917.478 943.192 918.964Q940.669 920.451 937.224 920.451ZM937.224 915.611L937.224 915.611Q939.685 915.611 940.936 913.622Q942.187 911.633 942.187 908.618L942.187 908.618Q942.187 905.583 940.936 903.604Q939.685 901.625 937.224 901.625L937.224 901.625Q934.763 901.625 933.522 903.604Q932.282 905.583 932.282 908.618L932.282 908.618Q932.282 911.633 933.522 913.622Q934.763 915.611 937.224 915.611ZM958.880 906.731L958.880 906.731L958.880 920L952.728 920L952.728 897.072L958.532 897.072L958.614 901.810Q959.578 899.410 961.341 898.098Q963.105 896.785 965.750 896.785L965.750 896.785Q969.319 896.785 971.472 899.082Q973.625 901.379 973.625 905.419L973.625 905.419L973.625 920L967.473 920L967.473 906.485Q967.473 904.353 966.376 903.143Q965.279 901.933 963.331 901.933L963.331 901.933Q961.362 901.933 960.121 903.194Q958.880 904.455 958.880 906.731ZM985.274 920.451L985.274 920.451Q981.993 920.451 979.819 918.718Q977.645 916.985 977.645 913.581L977.645 913.581Q977.645 911.018 978.875 909.562Q980.106 908.105 982.075 907.429Q984.043 906.752 986.299 906.547L986.299 906.547Q989.252 906.260 990.555 905.942Q991.857 905.624 991.857 904.496L991.857 904.496L991.857 904.394Q991.857 902.938 990.924 902.138Q989.991 901.338 988.268 901.338L988.268 901.338Q986.484 901.338 985.397 902.107Q984.310 902.876 983.941 903.983L983.941 903.983L978.301 903.040Q979.183 900.066 981.818 898.426Q984.454 896.785 988.289 896.785L988.289 896.785Q990.750 896.785 992.975 897.564Q995.200 898.344 996.604 900.056Q998.009 901.769 998.009 904.558L998.009 904.558L998.009 920L992.185 920L992.185 916.821L991.980 916.821Q991.139 918.421 989.478 919.436Q987.817 920.451 985.274 920.451ZM987.017 916.124L987.017 916.124Q989.170 916.124 990.534 914.873Q991.898 913.622 991.898 911.797L991.898 911.797L991.898 909.315Q991.529 909.582 990.698 909.777Q989.868 909.972 988.945 910.125Q988.022 910.279 987.345 910.361L987.345 910.361Q985.643 910.607 984.597 911.325Q983.551 912.043 983.551 913.417L983.551 913.417Q983.551 914.750 984.525 915.437Q985.500 916.124 987.017 916.124ZM1003.259 889.443L1009.412 889.443L1009.412 920L1003.259 920L1003.259 889.443Z"/></g>
		<g fill="#EDE6DA" role="img" aria-label="SHAME TRIAD"><title>SHAME TRIAD</title><path d="M832.572 956.240L832.572 956.240Q830.796 956.240 829.524 955.652Q828.252 955.064 827.556 953.972Q826.860 952.880 826.860 951.368L826.860 951.368L829.428 951.368Q829.428 952.568 830.268 953.252Q831.108 953.936 832.596 953.936L832.596 953.936Q833.988 953.936 834.780 953.264Q835.572 952.592 835.572 951.416L835.572 951.416Q835.572 950.432 835.032 949.712Q834.492 948.992 833.484 948.728L833.484 948.728L831.276 948.080Q829.356 947.528 828.312 946.196Q827.268 944.864 827.268 943.016L827.268 943.016Q827.268 941.576 827.916 940.496Q828.564 939.416 829.764 938.816Q830.964 938.216 832.596 938.216L832.596 938.216Q834.996 938.216 836.448 939.512Q837.900 940.808 837.924 942.992L837.924 942.992L835.332 942.992Q835.332 941.840 834.600 941.180Q833.868 940.520 832.548 940.520L832.548 940.520Q831.276 940.520 830.556 941.132Q829.836 941.744 829.836 942.848L829.836 942.848Q829.836 943.832 830.376 944.552Q830.916 945.272 831.924 945.560L831.924 945.560L834.156 946.232Q836.076 946.760 837.108 948.104Q838.140 949.448 838.140 951.320L838.140 951.320Q838.140 952.784 837.444 953.900Q836.748 955.016 835.500 955.628Q834.252 956.240 832.572 956.240ZM845.332 956L842.740 956L842.740 938.480L845.332 938.480L845.332 945.728L850.468 945.728L850.468 938.480L853.060 938.480L853.060 956L850.468 956L850.468 948.128L845.332 948.128L845.332 956ZM859.772 956L857.132 956L861.596 938.480L865.004 938.480L869.468 956L866.852 956L865.796 951.560L860.828 951.560L859.772 956ZM862.508 944.336L861.308 949.424L865.292 949.424L864.092 944.360Q863.780 943.016 863.576 942.020Q863.372 941.024 863.300 940.664L863.300 940.664Q863.228 941.024 863.036 942.020Q862.844 943.016 862.508 944.336L862.508 944.336ZM875.532 956L873.084 956L873.084 938.480L876.276 938.480L878.028 944.096Q878.292 944.888 878.484 945.620Q878.676 946.352 878.748 946.712L878.748 946.712Q878.844 946.352 879.024 945.620Q879.204 944.888 879.444 944.096L879.444 944.096L881.124 938.480L884.316 938.480L884.316 956L881.868 956L881.868 950.096Q881.868 948.968 881.928 947.588Q881.988 946.208 882.108 944.804Q882.228 943.400 882.348 942.116Q882.468 940.832 882.564 939.872L882.564 939.872L879.972 948.392L877.476 948.392L874.836 939.872Q874.956 940.808 875.076 942.044Q875.196 943.280 875.292 944.672Q875.388 946.064 875.460 947.468Q875.532 948.872 875.532 950.096L875.532 950.096L875.532 956ZM899.452 956L889.156 956L889.156 938.480L899.452 938.480L899.452 940.784L891.700 940.784L891.700 945.752L898.612 945.752L898.612 948.032L891.700 948.032L891.700 953.696L899.452 953.696L899.452 956ZM926.196 956L923.604 956L923.604 940.856L918.924 940.856L918.924 938.456L930.876 938.456L930.876 940.856L926.196 940.856L926.196 956ZM937.708 956L935.116 956L935.116 938.480L940.612 938.480Q942.268 938.480 943.492 939.116Q944.716 939.752 945.400 940.904Q946.084 942.056 946.084 943.616L946.084 943.616Q946.084 945.368 945.184 946.652Q944.284 947.936 942.748 948.464L942.748 948.464L946.324 956L943.372 956L940.180 948.800L937.708 948.800L937.708 956ZM937.708 940.784L937.708 946.520L940.612 946.520Q941.908 946.520 942.676 945.740Q943.444 944.960 943.444 943.664L943.444 943.664Q943.444 942.320 942.676 941.552Q941.908 940.784 940.612 940.784L940.612 940.784L937.708 940.784ZM960.548 956L950.852 956L950.852 953.696L954.380 953.696L954.380 940.784L950.852 940.784L950.852 938.480L960.548 938.480L960.548 940.784L957.020 940.784L957.020 953.696L960.548 953.696L960.548 956ZM967.572 956L964.932 956L969.396 938.480L972.804 938.480L977.268 956L974.652 956L973.596 951.560L968.628 951.560L967.572 956ZM970.308 944.336L969.108 949.424L973.092 949.424L971.892 944.360Q971.580 943.016 971.376 942.020Q971.172 941.024 971.100 940.664L971.100 940.664Q971.028 941.024 970.836 942.020Q970.644 943.016 970.308 944.336L970.308 944.336ZM986.188 956L981.292 956L981.292 938.480L986.188 938.480Q987.916 938.480 989.188 939.140Q990.460 939.800 991.168 941Q991.876 942.200 991.876 943.832L991.876 943.832L991.876 950.624Q991.876 952.232 991.168 953.456Q990.460 954.680 989.188 955.340Q987.916 956 986.188 956L986.188 956ZM983.884 940.832L983.884 953.648L986.188 953.648Q987.628 953.648 988.456 952.844Q989.284 952.040 989.284 950.624L989.284 950.624L989.284 943.832Q989.284 942.440 988.456 941.636Q987.628 940.832 986.188 940.832L986.188 940.832L983.884 940.832Z"/></g>
	</g></g>
	<g fill="#EDE6DA" role="img" aria-label="9takes"><title>9takes</title><path d="M562.575 1010.328L562.575 1010.328Q560.332 1010.328 558.617 1009.446Q556.901 1008.564 555.889 1007.102Q554.877 1005.639 554.700 1003.902L554.700 1003.902L560.141 1003.902Q560.332 1004.777 561.016 1005.201Q561.700 1005.625 562.575 1005.625L562.575 1005.625Q564.325 1005.625 565.131 1004.094Q565.938 1002.563 565.938 1000.102L565.938 1000.102L565.829 1000.102Q565.241 1001.496 563.805 1002.289Q562.370 1003.082 560.633 1003.082L560.633 1003.082Q558.788 1003.082 557.393 1002.248Q555.998 1001.414 555.226 999.951Q554.454 998.488 554.454 996.629L554.454 996.629Q554.454 994.428 555.493 992.780Q556.532 991.133 558.371 990.217Q560.209 989.301 562.602 989.301L562.602 989.301Q564.393 989.301 565.986 989.868Q567.579 990.436 568.802 991.659Q570.026 992.883 570.730 994.845Q571.434 996.807 571.434 999.582L571.434 999.582Q571.434 1002.877 570.333 1005.290Q569.233 1007.703 567.237 1009.016Q565.241 1010.328 562.575 1010.328ZM562.657 999.336L562.657 999.336Q563.873 999.336 564.673 998.509Q565.473 997.682 565.473 996.438L565.473 996.438Q565.473 995.180 564.673 994.359Q563.873 993.539 562.657 993.539L562.657 993.539Q561.440 993.539 560.626 994.359Q559.813 995.180 559.813 996.438L559.813 996.438Q559.813 997.695 560.620 998.516Q561.426 999.336 562.657 999.336ZM579.402 994.715L582.027 994.715L582.027 998.707L579.402 998.707L579.402 1005.092Q579.402 1006.049 580.441 1006.049L580.441 1006.049Q580.687 1006.049 581.159 1005.987Q581.630 1005.926 581.781 1005.871L581.781 1005.871L582.437 1009.795Q581.494 1010.055 580.660 1010.144Q579.826 1010.232 579.087 1010.232L579.087 1010.232Q573.906 1010.232 573.906 1005.598L573.906 1005.598L573.906 998.707L571.964 998.707L571.964 994.715L573.906 994.715L573.906 991.078L579.402 991.078L579.402 994.715ZM587.835 1010.246L587.835 1010.246Q585.634 1010.246 584.246 1009.152Q582.858 1008.059 582.858 1005.789L582.858 1005.789Q582.858 1004.107 583.603 1003.082Q584.348 1002.057 585.620 1001.544Q586.891 1001.031 588.464 1000.922L588.464 1000.922Q590.378 1000.785 591.184 1000.519Q591.991 1000.252 591.991 999.582L591.991 999.582L591.991 999.527Q591.991 998.939 591.526 998.618Q591.061 998.297 590.268 998.297L590.268 998.297Q589.489 998.297 588.935 998.632Q588.382 998.967 588.245 999.664L588.245 999.664L583.296 999.172Q583.514 997.887 584.362 996.834Q585.210 995.781 586.707 995.152Q588.204 994.523 590.350 994.523L590.350 994.523Q592.524 994.523 594.131 995.187Q595.737 995.850 596.612 996.984Q597.487 998.119 597.487 999.527L597.487 999.527L597.487 1010L592.346 1010L592.346 1007.840L592.237 1007.840Q591.540 1009.125 590.432 1009.686Q589.325 1010.246 587.835 1010.246ZM589.612 1006.773L589.612 1006.773Q590.542 1006.773 591.294 1006.199Q592.046 1005.625 592.046 1004.586L592.046 1004.586L592.046 1003.328Q591.198 1003.656 589.858 1003.875L589.858 1003.875Q588.901 1004.025 588.464 1004.449Q588.026 1004.873 588.026 1005.461L588.026 1005.461Q588.026 1006.104 588.471 1006.438Q588.915 1006.773 589.612 1006.773ZM605.072 1010L599.576 1010L599.576 989.629L605.072 989.629L605.072 999.855L605.264 999.855L608.955 994.715L615.135 994.715L609.939 1001.414L615.271 1010L609.010 1010L605.893 1004.613L605.072 1005.652L605.072 1010ZM623.185 1010.273L623.185 1010.273Q619.507 1010.273 617.408 1008.188Q615.310 1006.104 615.310 1002.398L615.310 1002.398Q615.310 1000.033 616.260 998.263Q617.210 996.492 618.946 995.508Q620.683 994.523 623.048 994.523L623.048 994.523Q625.359 994.523 627.068 995.474Q628.777 996.424 629.713 998.181Q630.650 999.938 630.650 1002.371L630.650 1002.371L630.650 1003.629L620.696 1003.629Q620.751 1005.051 621.455 1005.734Q622.159 1006.418 623.294 1006.418L623.294 1006.418Q624.142 1006.418 624.743 1006.069Q625.345 1005.721 625.591 1005.092L625.591 1005.092L630.431 1005.803Q629.843 1007.867 627.977 1009.070Q626.111 1010.273 623.185 1010.273ZM620.737 1000.621L620.737 1000.621L625.468 1000.621Q625.208 998.379 623.103 998.379L623.103 998.379Q620.997 998.379 620.737 1000.621ZM638.959 1010.273L638.959 1010.273Q635.842 1010.273 633.846 1008.975Q631.850 1007.676 631.454 1005.420L631.454 1005.420L636.539 1004.682Q636.813 1005.584 637.428 1006.069Q638.043 1006.555 639.205 1006.555L639.205 1006.555Q640.914 1006.555 640.914 1005.598L640.914 1005.598Q640.914 1004.791 639.164 1004.477L639.164 1004.477L636.457 1003.984Q631.809 1003.150 631.809 999.500L631.809 999.500Q631.809 997.107 633.696 995.815Q635.582 994.523 638.864 994.523L638.864 994.523Q641.899 994.523 643.772 995.692Q645.645 996.861 646.000 998.939L646.000 998.939L641.161 999.637Q640.983 998.885 640.381 998.536Q639.780 998.188 638.973 998.188L638.973 998.188Q638.262 998.188 637.770 998.440Q637.278 998.693 637.278 999.172L637.278 999.172Q637.278 999.514 637.572 999.814Q637.866 1000.115 638.727 1000.266L638.727 1000.266L641.844 1000.813Q646.493 1001.633 646.493 1004.941L646.493 1004.941Q646.493 1006.582 645.515 1007.778Q644.537 1008.975 642.842 1009.624Q641.147 1010.273 638.959 1010.273Z"/></g>
</svg>